<svg fill="none" height="256" viewBox="0 0 256 256" width="256" xmlns="http://www.w3.org/2000/svg"><g fill="#000"><path d="m234.485 122.641c3.936 0 7.572-2.1 9.541-5.508 1.967-3.408 1.967-7.608 0-11.016-1.969-3.408-5.605-5.508-9.541-5.508h-18.359v-7.3433c0-.9737-.387-1.9081-1.075-2.5965-.689-.6885-1.623-1.0754-2.597-1.0754-7.185.0082-13.912 3.5195-18.028 9.4076-3.92-6.9208-10.819-11.6417-18.691-12.7861v-3.2309c0-1.6557-1.106-3.1064-2.703-3.544-2.76-.7508-5.532-1.4606-8.312-2.1261v-11.5876c0-3.2801-1.75-6.3094-4.591-7.9502-2.84-1.6392-6.338-1.6392-9.179 0-2.841 1.6409-4.59 4.6702-4.59 7.9502v7.8683c-29.174-4.862-58.9518-4.862-88.1253 0v-7.8683c0-3.2801-1.7491-6.3094-4.5901-7.9502-2.8408-1.6392-6.3387-1.6392-9.1797 0-2.8408 1.6409-4.59 4.6702-4.59 7.9502v11.5876c-2.7785.6688-5.549 1.3769-8.3128 2.1261-.8769.2409-1.6326.7966-2.1228 1.5605-1.7408 2.7375-3.2424 5.6195-4.4864 8.614-3.8505.0623-7.5242 1.6343-10.2271 4.3769-2.7031 2.7425-4.2212 6.4392-4.2258 10.2892v14.688c.0049 3.851 1.5228 7.547 4.2258 10.29 2.7031 2.742 6.3765 4.314 10.2271 4.377 1.2442 2.994 2.7458 5.876 4.4864 8.614.4902.763 1.2459 1.319 2.1228 1.56 2.7605.751 5.5326 1.461 8.3128 2.126v14.321c.0081 7.212 1.6867 14.327 4.906 20.781 2.6228 5.233 3.5293 11.157 2.5916 16.935-.9376 5.777-3.6718 11.111-7.8141 15.245-2.1556 2.149-3.3686 5.067-3.372 8.109-.0016 3.044 1.2065 5.964 3.3605 8.116 2.1523 2.151 5.0718 3.359 8.1159 3.354h63.2782c1.603-.002 3.139-.638 4.272-1.772 1.134-1.133 1.77-2.669 1.772-4.272.003-3.288-1.03-6.493-2.953-9.16-1.921-2.667-4.635-4.66-7.755-5.696-.937-.315-1.724-.971-2.203-1.836-6.0975-11.041-9.3367-23.431-9.4219-36.044 17.3579-.137 33.5469-8.769 43.3369-23.103 11.827-1.589 23.534-3.964 35.043-7.113 1.595-.436 2.7-1.883 2.703-3.536v-3.231c7.872-1.144 14.771-5.865 18.691-12.786 4.116 5.888 10.843 9.4 18.028 9.408.974 0 1.908-.387 2.597-1.075.688-.689 1.075-1.623 1.075-2.597v-7.344zm0-14.688c2.028 0 3.672 1.644 3.672 3.672s-1.644 3.672-3.672 3.672h-18.359v-7.344zm-66.093 11.016h-25.704c-2.624 0-5.048-1.4-6.36-3.672-1.311-2.272-1.311-5.072 0-7.344 1.312-2.272 3.736-3.672 6.36-3.672h25.704zm-14.688-53.2445c0-1.0147.821-1.8359 1.836-1.8359s1.836.8212 1.836 1.8359v9.9582c-1.225-.2574-2.447-.5016-3.672-.7344zm-106.4844 0c0-1.0147.8213-1.8359 1.836-1.8359 1.0146 0 1.8359.8212 1.8359 1.8359v9.2158c-1.2245.2443-2.4474.4902-3.6719.7344zm-29.375 53.2445v-14.688c.0016-1.436.4245-2.84 1.2147-4.04.7917-1.1987 1.9178-2.1396 3.2391-2.7051-2.3572 9.2451-2.3572 18.9331 0 28.1781-1.3212-.565-2.4474-1.506-3.2391-2.705-.7902-1.2-1.2131-2.604-1.2147-4.04zm25.7031 102.368c.0033-1.092.4361-2.138 1.2049-2.912 3.7833-3.785 6.6534-8.383 8.3928-13.443l16.1055 8.052v12.419h-21.5868c-2.272-.002-4.1145-1.844-4.1162-4.116zm60.4073-2.494c1.449.484 2.736 1.356 3.721 2.521.987 1.166 1.633 2.581 1.869 4.089h-32.9486v-14.688c.0082-1.398-.7802-2.68-2.0309-3.304l-19.748-9.873h.0016c.8032-6.807-.4016-13.7-3.467-19.829-2.7096-5.432-4.1243-11.418-4.1308-17.489v-12.705c14.0303 2.941 28.2734 4.752 42.5937 5.416-.2311.9-.4655 1.8-.6606 2.706h-30.9176c-1.272 0-2.4556.657-3.1244 1.741-.6704 1.082-.7311 2.434-.1623 3.572l7.3438 14.687c.6229 1.246 1.8949 2.031 3.2866 2.031h21.7921c.6508 12.593 4.1686 24.873 10.2813 35.9 1.372 2.47 3.6211 4.334 6.3011 5.225zm-36.1053-48.468-3.6719-7.344h23.7195c-.3049 2.442-.4918 4.891-.5803 7.344zm27.1064-3.72c.4131-4.542 1.2376-9.039 2.4638-13.432 1.631.03 3.2571.085 4.8871.085 8.445 0 16.89-.422 25.336-1.219-8.455 9.106-20.261 14.366-32.6868 14.566zm73.4379-29.209c-43.777 11.47-89.7872 11.35-133.5014-.346-4.611-7.698-7.0471-16.502-7.0471-25.475 0-8.974 2.4359-17.7776 7.0471-25.4756 43.7184-11.6958 89.7244-11.8154 133.5014-.3458v11.1335h-25.703c-5.248 0-10.097 2.7998-12.721 7.3439-2.622 4.544-2.622 10.143 0 14.687 2.625 4.544 7.474 7.344 12.721 7.344h25.703zm7.343-7.829v-35.9844c5.577 1.1327 10.314 4.7865 12.824 9.8944 2.51 5.106 2.51 11.089 0 16.196-2.509 5.108-7.247 8.761-12.824 9.894zm33.047-3.767c-4.234-1.093-7.76-4.016-9.62-7.973-1.861-3.959-1.861-8.539 0-12.496 1.86-3.957 5.386-6.88 9.62-7.9731z"/><path d="m58.2352 85.9219c-6.8175 0-13.3547 2.708-18.1743 7.5288-4.8208 4.8192-7.5288 11.3563-7.5288 18.1743s2.708 13.355 7.5288 18.174c4.8192 4.821 11.3564 7.529 18.1743 7.529 6.818 0 13.3548-2.708 18.1744-7.529 4.8208-4.819 7.5288-11.356 7.5288-18.174-.0082-6.814-2.7195-13.3467-7.5372-18.1659-4.8192-4.8175-11.3518-7.5288-18.166-7.5372zm0 44.0621c-4.8687 0-9.5384-1.934-12.9829-5.376-3.4423-3.444-5.3764-8.114-5.3764-12.983s1.9343-9.538 5.3764-12.9829c3.444-3.4424 8.1142-5.3765 12.9829-5.3765s9.5385 1.9343 12.983 5.3765c3.4423 3.4439 5.3764 8.1139 5.3764 12.9829-.0065 4.867-1.9425 9.534-5.3831 12.976-3.4424 3.441-8.1092 5.377-12.9763 5.383z"/><path d="m58.2353 96.9375c-3.8948 0-7.6308 1.5474-10.3862 4.3015-2.7539 2.755-4.3014 6.491-4.3014 10.386s1.5475 7.631 4.3014 10.386c2.7555 2.754 6.4914 4.302 10.3862 4.302 3.8947 0 7.6307-1.548 10.3861-4.302 2.7539-2.755 4.3014-6.491 4.3014-10.386s-1.5475-7.631-4.3014-10.386c-2.7555-2.7541-6.4914-4.3015-10.3861-4.3015zm0 22.0315c-1.9474 0-3.8162-.774-5.1931-2.151-1.377-1.377-2.1507-3.246-2.1507-5.193s.7737-3.816 2.1507-5.193c1.3769-1.377 3.2457-2.151 5.1931-2.151 1.9473 0 3.8161.774 5.193 2.151 1.377 1.377 2.1507 3.246 2.1507 5.193s-.7737 3.816-2.1507 5.193c-1.3769 1.377-3.2457 2.151-5.193 2.151z"/><path d="m105.97 93.2656c-4.869 0-9.5388 1.9343-12.9833 5.3765-3.4423 3.4439-5.3764 8.1139-5.3764 12.9829s1.9343 9.538 5.3764 12.983c3.4441 3.442 8.1143 5.376 12.9833 5.376 4.868 0 9.538-1.934 12.983-5.376 3.442-3.444 5.376-8.114 5.376-12.983-.007-4.867-1.942-9.534-5.383-12.9762-3.443-3.4407-8.109-5.3765-12.976-5.3832zm0 29.3754c-2.921 0-5.725-1.161-7.7898-3.226-2.065-2.066-3.226-4.869-3.226-7.79 0-2.92 1.1606-5.724 3.226-7.789 2.0658-2.065 4.8688-3.226 7.7898-3.226 2.92 0 5.724 1.16 7.789 3.226 2.065 2.065 3.226 4.869 3.226 7.789 0 2.921-1.16 5.725-3.226 7.79-2.065 2.065-4.869 3.226-7.789 3.226z"/><path d="m216.126 74.9063h7.344v-7.3438h7.343v-7.3437h-7.343v-7.3438h-7.344v7.3438h-7.344v7.3437h7.344z"/><path d="m238.157 141h-7.344v7.344h-7.343v7.344h7.343v7.343h7.344v-7.343h7.344v-7.344h-7.344z"/><path d="m48.5834 48.9426c4.3916-1.7556 8.834-3.2883 13.3254-4.598v8.5305h7.3438v-10.4534c3.6718-.8622 7.3437-1.5671 11.0156-2.1408v8.9225h7.3437v-9.878c3.6719-.3672 7.3438-.5951 11.0157-.6901v10.5683h7.3434v-10.5683c3.672.095 7.344.3114 11.016.6901v9.878h7.344v-8.9225c3.69.5721 7.362 1.2786 11.015 2.1408v10.4534h7.344v-8.5305c4.487 1.3113 8.929 2.844 13.325 4.5963l2.725-6.8226v.0017c-5.247-2.0868-10.605-3.8817-16.05-5.3752v-9.5729h-7.344v7.7323c-3.653-.8196-7.325-1.5277-11.015-2.0703v-9.3337h-7.344v8.4453c-3.672-.3672-7.344-.5475-11.016-.6393v-7.8062h-7.3433v7.7882c-3.6719.0918-7.3438.2819-11.0157.6392v-8.4272h-7.3437v9.3337c-3.6719.5442-7.3438 1.2524-11.0157 2.0703v-7.7323h-7.3437v9.5729c-5.4457 1.4933-10.8025 3.2883-16.0497 5.3752z"/></g></svg>