<svg fill="none" height="256" viewBox="0 0 256 256" width="256" xmlns="http://www.w3.org/2000/svg"><g fill="#000"><path d="m137.16 116.854.821-.824c1.292-1.303 2.139-2.983 2.415-4.797.276-1.816-.032-3.671-.879-5.3-.659-1.304-.765-2.819-.297-4.203l.681-2.0163c.674-2.0407.709-4.2381.099-6.2986-.608-2.0621-1.831-3.8868-3.505-5.2356l-9.521-7.6168v.0016c-1.723-1.3823-2.906-3.3257-3.341-5.4909l-.425-2.129c-1.836-9.1284-6.452-17.4645-13.218-23.8621-6.764-6.3991-15.3447-10.5442-24.5615-11.8655-5.7497-.8287-11.6054-.5276-17.2395.885l-5.7389 1.4371c-.1825.0714-.3604.1581-.5277.2585-.1627.0456-.3208.1034-.4744.1703l-3.9505 2.5349c-9.2335 5.8121-15.9729 14.8536-18.9034 25.3628-2.9306 10.5092-1.8415 21.7331 3.0535 31.4836-2.3707 4.037-2.8573 8.911-1.3276 13.336l-.3026-.201h-.0015c-6.1071 9.059-8.569 20.088-6.8915 30.883 1.6757 10.795 7.366 20.561 15.9319 27.34l3.9964 3.198c-.2265 1.105-.3543 2.228-.3816 3.356-17.4997 9.471-29.4734 26.677-32.2743 46.376l-1.3625 9.472v.001c-.1399.98.1521 1.971.7999 2.718.6493.747 1.5906 1.174 2.579 1.172h105.5938c1.183.006 2.286-.602 2.911-1.607s.684-2.263.155-3.321l-6.813-13.587v-.002c-2.565-5.097-6.701-9.233-11.798-11.798-3.623-1.805-6.454-4.879-7.958-8.635-2.72-6.794-8.1262-12.164-14.9403-14.838.2387-.648.4394-1.308.6037-1.979l3.7088-18.489c.0016-.029.0016-.06 0-.088 0-.034.0274-.061.0335-.096l2.725-19.188h.0015c2.909 1.084 5.9888 1.647 9.0938 1.659h23.579c1.913-.001 3.798-.447 5.51-1.301 2.052-1.018 3.778-2.59 4.982-4.538 1.203-1.948 1.839-4.194 1.831-6.484v-8.301c.006-1.545-.406-3.064-1.194-4.393-.787-1.331-1.92-2.421-3.278-3.159zm-49.5293 41.459-23.6843-2.633.733-3.659 23.4787 2.609zm-30.728-3.283c-4.3764-3.762-7.275-8.956-8.175-14.657-.9003-5.701.2554-11.536 3.2602-16.463.6402.177 1.2896.317 1.945.42l5.8346 17.509-2.6672 13.35zm-.4288-57.6881c2.7097 0 5.3102 1.0766 7.2259 2.9931 1.9157 1.916 2.9926 4.516 2.9926 7.225 0 2.71-1.0766 5.311-2.9926 7.226-1.916 1.916-4.5165 2.993-7.2259 2.993-2.7095 0-5.3103-1.077-7.226-2.993s-2.9926-4.516-2.9926-7.226c0-2.709 1.0766-5.31 2.9926-7.225 1.916-1.9161 4.5165-2.9931 7.226-2.9931zm3.2876 77.5461 2.7797-12.508 3.2664.365-4.2911 21.46c-.0441-.066-.1019-.116-.143-.184l-.0015-.002c-1.7335-2.706-2.3129-5.994-1.6103-9.131zm12.8418-11.391 3.2025.357-5.1398 25.706-.0015.002c-.5718-.032-1.1405-.099-1.7031-.205-.4912-.128-.9732-.286-1.4446-.473zm9.9969 1.113 3.87.429-2.9743 14.855c-.6281 3.204-2.5319 6.014-5.2737 7.787-.0852.055-.1764.082-.2616.137zm-16.5887-19.296.2524-1.263 5.1398-2.201 18.1992 2.599-.4912 3.431zm17.4373-8.628 2.17-.931c.4364.511.9261.965 1.3959 1.438zm-18.1108.341-4.3643-13.115c4.7322-1.304 8.6706-4.59 10.8012-9.012l6.6315 1.659c-.2889 2.86.1505 5.748 1.2773 8.392l1.7366 4.05c.1399.34.3406.62.4866.936zm8.084-28.745c0-.25.0745-.481.0745-.729l-.0015-.001c-.0122-3.715-1.2531-7.322-3.528-10.2598l8.7847-5.269 2.1015 5.4029c1.5785 4.0909 1.396 8.6509-.5048 12.6029zm-12.2626-60.0555.4395-.2828 14.5099 37.7242-11.6012 6.9632-.0015-.0015c-2.7782-1.5526-5.9444-2.2734-9.121-2.0772-3.1766.1946-6.2286 1.3001-8.7955 3.1812-3.315-8.0867-3.6694-17.0815-1.0036-25.4041 2.6642-8.3226 8.1797-15.4376 15.5746-20.0938zm-17.1636 70.8505-.0016-.002c.5946.631 1.2348 1.217 1.9176 1.752-3.6922 6.291-5.0592 13.678-3.861 20.874 1.1983 7.197 4.886 13.744 10.4181 18.499l3.0079 2.574-.8212 3.689-1.3457-1.076c-6.7853-5.368-11.4443-12.97-13.149-21.452-1.7061-8.48-.3467-17.293 3.8367-24.866zm-.663 111.11c.999-3.923 3.6982-7.194 7.3583-8.922 3.6617-1.726 7.9044-1.726 11.5661 0 3.6602 1.728 6.3594 4.999 7.3583 8.922zm54.8427-29.607c2.1245 5.307 6.1255 9.647 11.2405 12.197 3.784 1.901 6.854 4.971 8.754 8.754l4.327 8.656h-45.8895c-1.0751-6.399-5.1293-11.906-10.9215-14.833-5.7906-2.927-12.6277-2.927-18.4179 0-5.7922 2.927-9.8463 8.434-10.9215 14.833h-10.0043l.7969-5.587c2.3555-16.779 12.2395-31.568 26.8409-40.163 2.2916 5.873 7.3614 10.216 13.5157 11.581 1.3655.304 2.7584.458 4.156.459 5.7618.025 11.2041-2.641 14.7154-7.208 5.3909 1.884 9.7018 6.009 11.8231 11.31zm36.6445-67.872c-.001 3.042-2.468 5.509-5.51 5.51h-23.58c-3.844.005-7.6043-1.122-10.8144-3.237-3.2101-2.117-5.7268-5.129-7.2384-8.665l-1.7335-4.046c-1.1937-2.779-1.0979-5.943.2585-8.645l.1536-.314c2.8558-5.722 3.1645-12.384.8516-18.3463l-19.3441-49.7392 1.989-.4973c10.1277-2.5106 20.8405-.771 29.6528 4.8128 8.8119 5.5837 14.9589 14.5282 17.0129 24.7563l.426 2.1258c.748 3.7378 2.79 7.0925 5.768 9.4737l9.52 7.6199v-.0015c1.206.9717 1.684 2.5897 1.199 4.0618l-.682 2.0134v-.0015c-1.05 3.1581-.781 6.6061.747 9.5621.345.693.208 1.531-.341 2.077l-2.214 2.214c-1.224 1.225-1.786 2.962-1.51 4.671.277 1.709 1.358 3.181 2.906 3.957l1.478.739c.612.304.998.929.995 1.612z"/><path d="m110.976 83.7182c1.881 0 3.406-1.5252 3.406-3.4062 0-1.8811-1.525-3.4063-3.406-3.4063-2.486-.2326-4.962.5353-6.879 2.1335-1.918 1.5982-3.121 3.896-3.34 6.3824.219 2.4862 1.422 4.7839 3.34 6.3823 1.917 1.5984 4.393 2.3661 6.879 2.1335 1.881 0 3.406-1.5252 3.406-3.4063 0-1.881-1.525-3.4062-3.406-3.4062-2.112 0-3.406-1.104-3.406-1.7031 0-.5992 1.294-1.7032 3.406-1.7032z"/><path d="m220.315 173.928-.473.47c-2.022 2.019-4.297 3.769-6.768 5.205l23.602-50.156-6.165-2.901-26.678 56.707c-1.264.303-2.543.531-3.832.681l-6.329.701.711-.947v.001c1.693-2.256 2.199-5.19 1.358-7.883-.839-2.693-2.922-4.817-5.599-5.711-2.159-.712-4.513-.548-6.554.456l-18.531-33.972-5.98 3.264 19.218 35.23-4.197 4.197.001.002c-.6-.093-1.206-.154-1.812-.181-4.363.01-8.556 1.698-11.709 4.712-3.154 3.014-5.029 7.126-5.237 11.484l-13.507 37.128c-.383 1.046-.232 2.214.406 3.127.639.914 1.682 1.456 2.797 1.455h23.844c1.52-.002 2.857-1.01 3.274-2.473l6.472-22.621c2.731-1.119 5.126-2.927 6.948-5.249l8.996.871c1.409.137 2.816.204 4.216.204v.002c9.255.112 18.254-3.032 25.426-8.884 4.761-4.032 8.521-9.113 10.988-14.844 1.125-2.628.959-5.63-.45-8.118-1.41-2.486-3.901-4.173-6.732-4.556-2.833-.384-5.683.577-7.704 2.598zm-34.338 3.12c.524-.526 1.302-.709 2.006-.47.601.198 1.068.671 1.258 1.274.188.603.076 1.26-.304 1.764l-3.959 5.266c-1.072-1.222-2.316-2.285-3.692-3.154zm-19.665 53.138h-16.411l8.724-23.995h-.001c2.98 4.038 7.596 6.548 12.603 6.854zm5.975-23.844c-2.71 0-5.31-1.077-7.226-2.993s-2.993-4.516-2.993-7.226c0-2.709 1.077-5.31 2.993-7.226 1.916-1.915 4.517-2.992 7.226-2.992s5.31 1.076 7.226 2.992 2.993 4.517 2.993 7.226c0 2.71-1.077 5.311-2.993 7.226-1.916 1.916-4.517 2.993-7.226 2.993zm56.649-25.02c-2.711 6.487-7.483 11.904-13.576 15.412s-13.172 4.915-20.146 4.004l-6.425-.623h.002c.707-2.648.699-5.437-.025-8.08l11.983-1.332c9.042-1.014 17.469-5.067 23.909-11.493l.473-.47c.792-.795 2.038-.915 2.967-.285.931.629 1.28 1.83.835 2.861z"/><path d="m156.71 76.2907 34.062 23.8433c.041.031.089.038.13.066.041.027.091.079.143.109l.001-.001c.144.071.295.132.449.184.095.038.187.085.285.115h.002c.791.247 1.647.172 2.384-.208.041-.02.092 0 .133-.033.041-.034.054-.044.085-.061.03-.017.065-.02.096-.041l34.062-20.4378c1.025-.6159 1.652-1.7245 1.652-2.9197v-37.4689c-.014-1.5617-1.103-2.9075-2.626-3.2496l-33.307-16.823c-.965-.4867-2.102-.4867-3.066 0l-33.313 16.823c-1.524.3421-2.612 1.6879-2.626 3.2496v34.0627c0 1.1116.543 2.1532 1.454 2.7904zm5.359-31.4914 13.625 6.9009v8.175c0 .9033.359 1.7701.997 2.4087l12.628 12.6261v15.8939l-27.25-19.0751zm31.477 24.7014-11.04-11.0355v-3.3409l8.683 4.3873v-.0015c.964.4866 2.102.4866 3.066 0l12.095-6.1071v10.979zm2.585 21.8273v-15.5228l14.892-5.9549v.0015c1.294-.5185 2.141-1.7716 2.139-3.1645v-16.7241l10.219-5.1643v30.1787zm-3.406-65.1082 26.163 13.2159-26.163 13.2159-26.163-13.2159z"/><path d="m165.838 105.678 6.094-3.047 30.656 61.312-6.093 3.048z"/><path d="m196.736 136.28 30.655-44.2817 5.601 3.8776-30.655 44.2811z"/></g></svg>