<svg fill="none" height="256" viewBox="0 0 256 256" width="256" xmlns="http://www.w3.org/2000/svg"><g fill="#000"><path d="m152.507 154.808-7.979-5.32c-.489-2.454-1.879-4.637-3.896-6.119 12.453-10.773 19.948-26.177 20.739-42.625.793-16.4451-5.187-32.4983-16.547-44.4162-11.358-11.9184-27.105-18.664-43.572-18.664-16.4667 0-32.2122 6.7456-43.5722 18.664-11.36 11.9194-17.3398 27.9726-16.5473 44.4162.7912 16.446 8.2865 31.85 20.739 42.625-2.0167 1.482-3.4065 3.665-3.8959 6.119l-7.9788 5.32c-7.7801.284-15.1471 3.572-20.5537 9.173s-8.4339 13.08-8.4431 20.864v46.813c0 .887.3523 1.738.9792 2.365.627.627 1.4779.979 2.3646.979h153.8132c.887 0 1.738-.352 2.365-.979.626-.627.979-1.478.979-2.365v-46.813c-.009-7.784-3.036-15.263-8.443-20.864s-12.774-8.889-20.554-9.173zm-83.468-6.744h65.653c1.846 0 3.343 1.497 3.343 3.344 0 1.846-1.497 3.343-3.343 3.343h-66.8758c-1.8466 0-3.3438-1.497-3.3438-3.343 0-1.847 1.4972-3.344 3.3438-3.344zm78.512-23.406h-63.0886c-4.0721-.012-7.9998-1.52-11.0329-4.238-3.0333-2.717-4.9633-6.455-5.4219-10.502 13.6514 5.949 28.3831 9.017 43.2744 9.012 14.411.004 28.677-2.868 41.963-8.446-1.211 4.972-3.129 9.746-5.698 14.174zm6.975-22.093c-13.57 6.368-28.378 9.661-43.365 9.643-14.9874-.018-29.7898-3.347-43.3433-9.746v-18.0026c.006-4.4142 1.7615-8.6445 4.8827-11.7659 3.1213-3.1199 7.3517-4.8754 11.7658-4.88h60.9868c6.069 8.8612 9.313 19.3537 9.303 30.0939 0 1.5644-.094 3.1166-.227 4.6576zm-106.7747-4.6576c-.0194-14.3514 5.7367-28.1071 15.9694-38.1682 10.2327-10.0627 24.0828-15.5843 38.4323-15.3233 14.348.2598 27.989 6.2829 37.849 16.7101h-55.5411c-6.1862.006-12.1182 2.466-16.4934 6.8411-4.3752 4.3737-6.8354 10.3046-6.8427 16.4919v23.554-.001c.0075 6.187 2.4675 12.118 6.8427 16.492 4.3752 4.375 10.3076 6.835 16.4934 6.841h58.4951c-3.045 3.808-6.597 7.183-10.554 10.031h-62.3086c-14.0156-10.045-22.3345-26.226-22.3467-43.4689zm-20.0626 86.9376c.0074-5.626 2.0376-11.062 5.7203-15.317 3.6841-4.253 8.7744-7.04 14.3423-7.852v66.639h-20.0626zm26.7501-24.961 4.859-3.241v.001c1.8107 2.971 5.0367 4.788 8.5161 4.795h66.8751c3.48-.007 6.706-1.824 8.516-4.795l4.859 3.24v68.43h-6.687v-39.598c-.006-5.458-2.178-10.691-6.037-14.551-3.86-3.859-9.092-6.03-14.551-6.037h-39.0746c-5.4589.006-10.6913 2.178-14.5513 6.037-3.8589 3.861-6.0306 9.093-6.0368 14.551v39.598h-6.6875zm23.4064 68.43v-10.031h46.8128v10.031zm53.4998 0v-13.375c0-.886-.352-1.737-.979-2.364s-1.478-.98-2.364-.98h-53.5006c-1.8465 0-3.3438 1.498-3.3438 3.344v13.375h-3.3437v-39.598c.0045-3.685 1.4704-7.219 4.0767-9.823 2.6049-2.607 6.138-4.072 9.8238-4.077h39.0746c3.685.004 7.219 1.47 9.823 4.077 2.607 2.605 4.073 6.138 4.077 9.823v39.598zm43.469 0h-20.062v-66.638c5.568.812 10.658 3.599 14.342 7.852 3.683 4.254 5.713 9.691 5.72 15.317z"/><path d="m231.661 21h-103.657c-1.847 0-3.344 1.4972-3.344 3.3438v13.375h6.688v-10.0313h96.969v157.1575h-10.031c-1.092 0-2.114.532-2.74 1.427l-17.323 24.748v-22.832c0-.886-.352-1.737-.979-2.364s-1.478-.979-2.365-.979h-6.687v6.687h3.343v30.094c.002 1.459.948 2.748 2.34 3.187 1.391.438 2.906-.076 3.743-1.27l22.41-32.011h11.633c.886 0 1.737-.352 2.364-.979s.979-1.478.979-2.365v-163.8442c0-.8867-.352-1.7376-.979-2.3646-.627-.6269-1.478-.9792-2.364-.9792z"/><path d="m144.723 41.0626h16.719v6.6876h-16.719z"/><path d="m168.129 41.0626h46.813v6.6876h-46.813z"/><path d="m161.442 61.1252h33.437v6.6876h-33.437z"/><path d="m201.567 61.1252h13.375v6.6876h-13.375z"/><path d="m168.129 81.1877h46.813v6.6876h-46.813z"/><path d="m168.129 101.25h6.688v6.688h-6.688z"/><path d="m181.504 101.25h33.438v6.688h-33.438z"/><path d="m164.785 121.313h36.782v6.688h-36.782z"/><path d="m208.254 121.313h6.688v6.688h-6.688z"/><path d="m158.098 141.376h43.469v6.687h-43.469z"/><path d="m87.8787 181.501c-3.5467 0-6.9489 1.409-9.4581 3.917-2.5078 2.509-3.9169 5.911-3.9169 9.458s1.4091 6.949 3.9169 9.458c2.5094 2.508 5.9114 3.917 9.4581 3.917s6.9489-1.409 9.4581-3.917c2.5078-2.509 3.9172-5.911 3.9172-9.458s-1.4094-6.949-3.9172-9.458c-2.5093-2.508-5.9114-3.917-9.4581-3.917zm0 20.062c-1.7734 0-3.4751-.704-4.729-1.958s-1.9585-2.956-1.9585-4.729.7046-3.475 1.9585-4.729 2.9556-1.959 4.729-1.959 3.4752.705 4.7291 1.959 1.9585 2.956 1.9585 4.729-.7046 3.475-1.9585 4.729-2.9557 1.958-4.7291 1.958z"/><path d="m104.598 184.845h20.062v6.687h-20.062z"/><path d="m104.598 198.22h20.062v6.687h-20.062z"/></g></svg>