<?xml version="1.0" encoding="UTF-8"?>
<svg width="700pt" height="700pt" version="1.1" viewBox="0 0 700 700" xmlns="http://www.w3.org/2000/svg" xmlns:xlink="http://www.w3.org/1999/xlink">
 <defs>
  <symbol id="d" overflow="visible">
   <path d="m29.312-1.75c-1.5117 0.78125-3.0898 1.3711-4.7344 1.7656-1.6367 0.40625-3.3398 0.60938-5.1094 0.60938-5.3125 0-9.5273-1.4844-12.641-4.4531-3.1055-2.9688-4.6562-7-4.6562-12.094s1.5508-9.125 4.6562-12.094c3.1133-2.9688 7.3281-4.4531 12.641-4.4531 1.7695 0 3.4727 0.19922 5.1094 0.59375 1.6445 0.39844 3.2227 0.99219 4.7344 1.7812v6.5938c-1.5312-1.0391-3.0391-1.8008-4.5156-2.2812-1.4805-0.48828-3.0391-0.73438-4.6719-0.73438-2.9375 0-5.2461 0.94531-6.9219 2.8281-1.6797 1.875-2.5156 4.4648-2.5156 7.7656 0 3.293 0.83594 5.8828 2.5156 7.7656 1.6758 1.875 3.9844 2.8125 6.9219 2.8125 1.6328 0 3.1914-0.23828 4.6719-0.71875 1.4766-0.48828 2.9844-1.2539 4.5156-2.2969z"/>
  </symbol>
  <symbol id="k" overflow="visible">
   <path d="m21.453-17.406c-0.67969-0.3125-1.3516-0.53906-2.0156-0.6875-0.65625-0.15625-1.3203-0.23438-1.9844-0.23438-1.9688 0-3.4844 0.63281-4.5469 1.8906-1.0547 1.2617-1.5781 3.0703-1.5781 5.4219v11.016h-7.6562v-23.922h7.6562v3.9219c0.97656-1.5625 2.1016-2.7031 3.375-3.4219 1.2812-0.71875 2.8125-1.0781 4.5938-1.0781 0.25 0 0.52344 0.011719 0.82812 0.03125 0.30078 0.023438 0.73438 0.070312 1.2969 0.14062z"/>
  </symbol>
  <symbol id="a" overflow="visible">
   <path d="m27.562-12.031v2.1875h-17.891c0.1875 1.793 0.83203 3.1367 1.9375 4.0312 1.1133 0.89844 2.6719 1.3438 4.6719 1.3438 1.6016 0 3.25-0.23438 4.9375-0.70312 1.6875-0.47656 3.4219-1.2031 5.2031-2.1719v5.8906c-1.8047 0.6875-3.6094 1.2031-5.4219 1.5469-1.8125 0.35156-3.6211 0.53125-5.4219 0.53125-4.3359 0-7.7031-1.0977-10.109-3.2969-2.3984-2.207-3.5938-5.2969-3.5938-9.2656 0-3.9062 1.1758-6.9727 3.5312-9.2031 2.3633-2.2383 5.6094-3.3594 9.7344-3.3594 3.7578 0 6.7695 1.1367 9.0312 3.4062 2.2578 2.2617 3.3906 5.2812 3.3906 9.0625zm-7.8594-2.5312c0-1.457-0.42969-2.6289-1.2812-3.5156-0.84375-0.89453-1.9492-1.3438-3.3125-1.3438-1.4922 0-2.6992 0.41797-3.625 1.25-0.91797 0.83594-1.4922 2.0391-1.7188 3.6094z"/>
  </symbol>
  <symbol id="j" overflow="visible">
   <path d="m14.391-10.766c-1.5938 0-2.793 0.27344-3.5938 0.8125-0.80469 0.54297-1.2031 1.3398-1.2031 2.3906 0 0.96875 0.32031 1.7305 0.96875 2.2812 0.64453 0.54297 1.5469 0.8125 2.7031 0.8125 1.4375 0 2.6445-0.51562 3.625-1.5469 0.98828-1.0312 1.4844-2.3203 1.4844-3.875v-0.875zm11.688-2.8906v13.656h-7.7031v-3.5469c-1.0312 1.4492-2.1875 2.5078-3.4688 3.1719s-2.8398 1-4.6719 1c-2.4805 0-4.4961-0.72266-6.0469-2.1719-1.543-1.4453-2.3125-3.3203-2.3125-5.625 0-2.8125 0.96094-4.8672 2.8906-6.1719 1.9375-1.3125 4.9688-1.9688 9.0938-1.9688h4.5156v-0.60938c0-1.207-0.48047-2.0938-1.4375-2.6562-0.94922-0.5625-2.4375-0.84375-4.4688-0.84375-1.6367 0-3.1562 0.16797-4.5625 0.5-1.4062 0.32422-2.7188 0.8125-3.9375 1.4688v-5.8281c1.6445-0.40625 3.2891-0.70703 4.9375-0.90625 1.6562-0.20703 3.3047-0.3125 4.9531-0.3125 4.3203 0 7.4375 0.85547 9.3438 2.5625 1.9141 1.6992 2.875 4.4609 2.875 8.2812z"/>
  </symbol>
  <symbol id="i" overflow="visible">
   <path d="m12.031-30.719v6.7969h7.875v5.4688h-7.875v10.141c0 1.1172 0.21875 1.8711 0.65625 2.2656 0.4375 0.38672 1.3125 0.57812 2.625 0.57812h3.9375v5.4688h-6.5625c-3.0234 0-5.1641-0.62891-6.4219-1.8906-1.2617-1.2578-1.8906-3.3984-1.8906-6.4219v-10.141h-3.7969v-5.4688h3.7969v-6.7969z"/>
  </symbol>
  <symbol id="h" overflow="visible">
   <path d="m19.953-20.422v-12.812h7.6875v33.234h-7.6875v-3.4531c-1.0547 1.4062-2.2148 2.4375-3.4844 3.0938-1.2734 0.65625-2.7422 0.98438-4.4062 0.98438-2.9492 0-5.3711-1.1719-7.2656-3.5156-1.8867-2.3438-2.8281-5.3594-2.8281-9.0469s0.94141-6.7031 2.8281-9.0469c1.8945-2.3438 4.3164-3.5156 7.2656-3.5156 1.6562 0 3.1172 0.33594 4.3906 1 1.2812 0.65625 2.4453 1.6836 3.5 3.0781zm-5.0469 15.484c1.6445 0 2.8945-0.59766 3.75-1.7969 0.86328-1.1953 1.2969-2.9297 1.2969-5.2031 0-2.2812-0.43359-4.0195-1.2969-5.2188-0.85547-1.1953-2.1055-1.7969-3.75-1.7969-1.625 0-2.8711 0.60156-3.7344 1.7969-0.85547 1.1992-1.2812 2.9375-1.2812 5.2188 0 2.2734 0.42578 4.0078 1.2812 5.2031 0.86328 1.1992 2.1094 1.7969 3.7344 1.7969z"/>
  </symbol>
  <symbol id="g" overflow="visible">
   <path d="m16.406-4.9375c1.6328 0 2.8828-0.59766 3.75-1.7969 0.86328-1.1953 1.2969-2.9297 1.2969-5.2031 0-2.2812-0.43359-4.0195-1.2969-5.2188-0.86719-1.1953-2.1172-1.7969-3.75-1.7969-1.6367 0-2.8906 0.60547-3.7656 1.8125-0.875 1.1992-1.3125 2.9336-1.3125 5.2031 0 2.2617 0.4375 3.9961 1.3125 5.2031 0.875 1.1992 2.1289 1.7969 3.7656 1.7969zm-5.0781-15.484c1.0508-1.3945 2.2188-2.4219 3.5-3.0781 1.2812-0.66406 2.7539-1 4.4219-1 2.9453 0 5.3672 1.1719 7.2656 3.5156 1.8945 2.3438 2.8438 5.3594 2.8438 9.0469s-0.94922 6.7031-2.8438 9.0469c-1.8984 2.3438-4.3203 3.5156-7.2656 3.5156-1.668 0-3.1406-0.33594-4.4219-1s-2.4492-1.6914-3.5-3.0781v3.4531h-7.6562v-33.234h7.6562z"/>
  </symbol>
  <symbol id="f" overflow="visible">
   <path d="m0.53125-23.922h7.6562l6.4219 16.234 5.4688-16.234h7.6562l-10.062 26.188c-1.0117 2.6641-2.1953 4.5234-3.5469 5.5781-1.3438 1.0625-3.1211 1.5938-5.3281 1.5938h-4.4219v-5.0156h2.3906c1.3008 0 2.2422-0.21094 2.8281-0.625 0.59375-0.40625 1.0547-1.1484 1.3906-2.2188l0.20312-0.65625z"/>
  </symbol>
  <symbol id="e" overflow="visible">
   <path d="m0.21875-31.891h8.2656l8.4531 23.531 8.4375-23.531h8.2656l-11.812 31.891h-9.7969z"/>
  </symbol>
  <symbol id="p" overflow="visible">
   <path d="m4.0156-31.891h8.2188v31.891h-8.2188z"/>
  </symbol>
  <symbol id="c" overflow="visible">
   <path d="m4.0156-31.891h9.1875l11.594 21.875v-21.875h7.7969v31.891h-9.1875l-11.594-21.875v21.875h-7.7969z"/>
  </symbol>
  <symbol id="o" overflow="visible">
   <path d="m2.4531-31.891h26.812v4.9688l-17.109 20.703h17.594v6.2188h-27.781v-4.9844l17.109-20.688h-16.625z"/>
  </symbol>
  <symbol id="b" overflow="visible">
   <path d="m4.0156-31.891h22.203v6.2188h-13.984v5.9375h13.141v6.2188h-13.141v7.2969h14.453v6.2188h-22.672z"/>
  </symbol>
  <symbol id="n" overflow="visible">
   <path d="m26.219-30.891v6.75c-1.7617-0.78125-3.4766-1.3672-5.1406-1.7656-1.668-0.40625-3.2422-0.60938-4.7188-0.60938-1.9609 0-3.4141 0.27344-4.3594 0.8125-0.9375 0.54297-1.4062 1.3867-1.4062 2.5312 0 0.85547 0.31641 1.5234 0.95312 2 0.63281 0.46875 1.7852 0.875 3.4531 1.2188l3.5 0.70312c3.5391 0.71875 6.0625 1.8047 7.5625 3.25 1.5 1.4492 2.25 3.5117 2.25 6.1875 0 3.5234-1.0469 6.1406-3.1406 7.8594-2.0859 1.7188-5.2734 2.5781-9.5625 2.5781-2.0234 0-4.0547-0.19531-6.0938-0.57812-2.0312-0.38281-4.0625-0.95703-6.0938-1.7188v-6.9375c2.0312 1.0859 3.9922 1.9023 5.8906 2.4531 1.9062 0.54297 3.7422 0.8125 5.5156 0.8125 1.7891 0 3.1602-0.29688 4.1094-0.89062 0.95703-0.60156 1.4375-1.457 1.4375-2.5625 0-1-0.32422-1.7695-0.96875-2.3125-0.64844-0.53906-1.9375-1.0234-3.875-1.4531l-3.1875-0.70312c-3.1875-0.6875-5.5234-1.7734-7-3.2656-1.4688-1.5-2.2031-3.5156-2.2031-6.0469 0-3.1758 1.0234-5.6172 3.0781-7.3281 2.0508-1.707 5-2.5625 8.8438-2.5625 1.75 0 3.5508 0.13281 5.4062 0.39062 1.8516 0.26172 3.7695 0.65625 5.75 1.1875z"/>
  </symbol>
  <symbol id="m" overflow="visible">
   <path d="m0.21875-31.891h29.391v6.2188h-10.578v25.672h-8.2188v-25.672h-10.594z"/>
  </symbol>
  <symbol id="l" overflow="visible">
   <path d="m4.0156-31.891h8.2188v19.109c0 2.6367 0.42969 4.5234 1.2969 5.6562 0.86328 1.1367 2.2695 1.7031 4.2188 1.7031 1.9688 0 3.3789-0.56641 4.2344-1.7031 0.86328-1.1328 1.2969-3.0195 1.2969-5.6562v-19.109h8.2344v19.109c0 4.5234-1.1367 7.8867-3.4062 10.094-2.2617 2.2109-5.7148 3.3125-10.359 3.3125-4.625 0-8.0742-1.1016-10.344-3.3125-2.2617-2.207-3.3906-5.5703-3.3906-10.094z"/>
  </symbol>
 </defs>
 <g>
  <path d="m580.27 227.95-46.516-15.504v-28.699c0-48.734-19.359-95.473-53.82-129.93-34.457-34.461-81.195-53.82-129.93-53.82s-95.473 19.359-129.93 53.82c-34.461 34.457-53.82 81.195-53.82 129.93v28.699l-46.516 15.504c-3.5703 1.1914-5.9805 4.5312-5.9844 8.2969v105c0.003906 3.7656 2.4141 7.1055 5.9844 8.2969l46.516 15.504v142.45c-9.3789 0-18.043 5.0039-22.734 13.125-4.6875 8.1211-4.6875 18.129 0 26.25 4.6914 8.1211 13.355 13.125 22.734 13.125h367.5c9.3789 0 18.043-5.0039 22.734-13.125 4.6875-8.1211 4.6875-18.129 0-26.25-4.6914-8.1211-13.355-13.125-22.734-13.125v-142.45l46.516-15.504c3.5703-1.1914 5.9805-4.5312 5.9844-8.2969v-105c-0.003906-3.7656-2.4141-7.1055-5.9844-8.2969zm-11.516 14.605v19.941h-35v-31.605zm0 54.941h-35v-17.5h35zm-385-113.75c0-44.094 17.516-86.379 48.695-117.55 31.176-31.18 73.461-48.695 117.55-48.695s86.379 17.516 117.55 48.695c31.18 31.176 48.695 73.461 48.695 117.55v186.69c-20.75 9.125-38.41 24.07-50.836 43.031-12.422 18.961-19.082 41.117-19.164 63.789v30.238h-192.5v-30.238c-0.082031-22.672-6.7422-44.828-19.164-63.789-12.426-18.961-30.086-33.906-50.836-43.031zm-52.5 96.25h35v17.5h-35zm35-49.105v31.605h-35v-19.941zm-35 104.05v-19.941h35v31.605zm52.5 54.855c15.824 8.5 29.055 21.117 38.297 36.52s14.148 33.016 14.203 50.98v30.203h-52.5zm358.75 143.95c0 2.3203-0.92188 4.5469-2.5625 6.1875s-3.8672 2.5625-6.1875 2.5625h-367.5c-4.832 0-8.75-3.918-8.75-8.75s3.918-8.75 8.75-8.75h367.5c2.3203 0 4.5469 0.92188 6.1875 2.5625s2.5625 3.8672 2.5625 6.1875zm-78.75-26.25v-30.238c0.054688-17.965 4.9609-35.578 14.203-50.98s22.473-28.02 38.297-36.52v117.74zm70-160.89v-31.605h35v19.941z"/>
  <path d="m245 288.75h0.59375c1.6328 6.9727 6.457 12.766 13.02 15.633 6.5664 2.8633 14.094 2.4648 20.316-1.082 6.2227-3.543 10.406-9.8164 11.289-16.922l7.1133-56.926 8.4805-25.445c0.29297 2.6758 0.44141 5.3633 0.44531 8.0586v10.852-0.003907c-0.003906 2.5742-0.13672 5.1445-0.40234 7.6992l-10.91 47.637c-4.1875 18.238-5.1953 37.062-2.9844 55.641l13.246 111.24c0.65234 11.562-0.90625 23.145-4.582 34.125-1.4805 4.5312-0.70312 9.4922 2.0938 13.352 2.7969 3.8555 7.2734 6.1406 12.035 6.1445h26.742c3.0391 0 6.0078-0.9375 8.5039-2.6758 2.4961 1.7383 5.4648 2.6758 8.5039 2.6758h26.742c4.7812 0.003906 9.2734-2.293 12.07-6.1719s3.5625-8.8633 2.0508-13.402c-3.6211-10.789-5.1914-22.164-4.6211-33.531l13.293-111.79c2.2109-18.582 1.1992-37.41-2.9844-55.648l-10.902-47.59v-0.003907c-0.26562-2.5547-0.39844-5.125-0.40234-7.6992v-10.852 0.003906c0.003906-2.6953 0.15234-5.3828 0.44531-8.0586l8.4805 25.445 7.1133 56.926c0.88281 7.1055 5.0664 13.379 11.289 16.922 6.2227 3.5469 13.754 3.9453 20.316 1.082 6.5625-2.8672 11.387-8.6602 13.02-15.633h0.58594c2.3203 0 4.5469-0.92188 6.1875-2.5625s2.5625-3.8672 2.5625-6.1875v-10.5c-0.019531-6.7812-2.7109-13.285-7.4883-18.094-1.332-1.3906-2.1719-3.1797-2.3828-5.0938-5.1641-30.988-13.59-61.344-25.129-90.562-0.42578-11.574-4.7305-22.672-12.227-31.504-7.4922-8.8281-17.738-14.887-29.09-17.191-3.3125-0.64844-6.1328-2.8008-7.6328-5.8242l-1.75-3.5c4.5547-6.9375 6.9727-15.059 6.9492-23.355 0.53516-9.8516-2.8438-19.516-9.3984-26.891-6.5547-7.3711-15.754-11.859-25.602-12.484-9.8477 0.625-19.047 5.1133-25.602 12.484-6.5547 7.375-9.9336 17.039-9.3984 26.891-0.007812 8.3047 2.4258 16.426 7 23.355l-1.75 3.5c-1.5 3.0156-4.3164 5.168-7.6211 5.8164-11.363 2.293-21.625 8.3438-29.133 17.18-7.5039 8.8359-11.82 19.938-12.246 31.523-11.625 29.43-20.094 60.012-25.27 91.227-0.28125 1.6602-1.0742 3.1914-2.2656 4.375-4.7852 4.8281-7.4688 11.352-7.4648 18.148v10.5c0 2.3203 0.92188 4.5469 2.5625 6.1875s3.8672 2.5625 6.1875 2.5625zm111 72.773-4.8555 82.574c-0.22656 3.7852-0.60938 7.5547-1.1445 11.305-0.54297-3.7578-0.92578-7.5234-1.1445-11.305l-4.8555-82.574h-0.007812c-1.1953-20.875 0.82812-41.812 6.0039-62.07 5.1758 20.258 7.1992 41.195 6.0039 62.07zm-6.0039-309.02c5.1875 0.66016 9.9141 3.3086 13.18 7.3945 3.2656 4.082 4.8164 9.2734 4.3203 14.48 0.49609 5.207-1.0547 10.398-4.3203 14.48-3.2656 4.0859-7.9922 6.7344-13.18 7.3945-5.1875-0.66016-9.9141-3.3086-13.18-7.3945-3.2656-4.082-4.8164-9.2734-4.3203-14.48-0.49609-5.207 1.0547-10.398 4.3203-14.48 3.2656-4.0859 7.9922-6.7344 13.18-7.3945zm-96.25 217c0.007812-2.1445 0.85938-4.1953 2.3711-5.7148 3.918-3.9648 6.4609-9.0781 7.2617-14.594 5.0586-30.262 13.355-59.891 24.746-88.375 0.42188-1.0547 0.63281-2.1797 0.62109-3.3164 0.027344-7.8359 2.7578-15.422 7.7305-21.48 4.9727-6.0586 11.879-10.215 19.562-11.77 8.2148-1.6445 15.273-6.8672 19.25-14.246 9.1641 5.043 20.273 5.043 29.441 0 3.9766 7.3789 11.031 12.602 19.25 14.246 7.6758 1.5586 14.578 5.7188 19.547 11.777 4.9648 6.0547 7.6914 13.641 7.7188 21.473 0 1.1133 0.21094 2.2148 0.62109 3.2461 11.473 28.73 19.809 58.617 24.859 89.137 0.875 5.2578 3.375 10.109 7.1484 13.879 1.5195 1.5234 2.3711 3.5859 2.3711 5.7383v1.75c-4.832 0-8.75 3.918-8.75 8.75v3.5508c-0.011719 2.7383-2.1445 4.9922-4.8711 5.1641-2.7305 0.17188-5.125-1.8047-5.4805-4.5156l-7.2188-57.75c-0.066407-0.57031-0.19531-1.1367-0.38281-1.6797l-17.5-52.5c-1.1211-3.3555-4.1523-5.707-7.6836-5.9609-3.5273-0.25-6.8633 1.6484-8.4453 4.8164-6.3359 12.719-9.6445 26.73-9.668 40.941v10.852-0.003907c0 3.3789 0.18359 6.75 0.55078 10.105 0.039063 0.33594 0.097657 0.67188 0.17578 1l11.023 48.125c3.7266 16.285 4.6133 33.094 2.625 49.684l-13.297 112.3c-0.70703 12.531 0.76172 25.094 4.3477 37.125h-19.582c3.6055-11.738 5.793-23.867 6.5156-36.129l4.8555-82.566h0.003906c1.8477-32.258-3.3867-64.531-15.34-94.551-1.3242-3.3281-4.5469-5.5117-8.1289-5.5117s-6.8047 2.1836-8.1289 5.5117c-11.953 30.02-17.188 62.293-15.34 94.551l4.8555 82.566h0.003906c0.72266 12.262 2.9102 24.391 6.5156 36.129h-19.582c3.6211-12.211 5.0781-24.965 4.3047-37.676l-13.281-111.78c-1.9883-16.586-1.1016-33.391 2.625-49.676l11.023-48.125c0.082031-0.32813 0.14062-0.66016 0.17578-0.99609 0.375-3.3477 0.56641-6.7148 0.57812-10.082v-10.852 0.003906c-0.003906-14.219-3.3008-28.242-9.625-40.977-1.582-3.1641-4.918-5.0664-8.4453-4.8164-3.5312 0.25391-6.5625 2.6055-7.6797 5.9609l-17.5 52.5c-0.19141 0.54688-0.32031 1.1094-0.38672 1.6797l-7.2188 57.75c-0.16797 2.8711-2.6328 5.0625-5.5039 4.8906-2.8711-0.16797-5.0586-2.6328-4.8906-5.5039v-3.5508c0-2.3203-0.92188-4.5469-2.5625-6.1875s-3.8672-2.5625-6.1875-2.5625z"/>
  <path d="m332.5 148.75h35v17.5h-35z"/>
  <path d="m332.5 175h35v17.5h-35z"/>
  <path d="m332.5 201.25h35v17.5h-35z"/>
  <use x="70" y="691.25" xlink:href="#d"/>
  <use x="102.109375" y="691.25" xlink:href="#k"/>
  <use x="123.683594" y="691.25" xlink:href="#a"/>
  <use x="153.355469" y="691.25" xlink:href="#j"/>
  <use x="182.878906" y="691.25" xlink:href="#i"/>
  <use x="203.792969" y="691.25" xlink:href="#a"/>
  <use x="233.464844" y="691.25" xlink:href="#h"/>
  <use x="280.011719" y="691.25" xlink:href="#g"/>
  <use x="311.328125" y="691.25" xlink:href="#f"/>
  <use x="355.078125" y="691.25" xlink:href="#e"/>
  <use x="388.9375" y="691.25" xlink:href="#p"/>
  <use x="405.21875" y="691.25" xlink:href="#c"/>
  <use x="441.832031" y="691.25" xlink:href="#o"/>
  <use x="473.554688" y="691.25" xlink:href="#b"/>
  <use x="503.441406" y="691.25" xlink:href="#c"/>
  <use x="540.054688" y="691.25" xlink:href="#d"/>
  <use x="572.164062" y="691.25" xlink:href="#b"/>
  <use x="617.28125" y="691.25" xlink:href="#n"/>
  <use x="648.789062" y="691.25" xlink:href="#m"/>
  <use x="678.632812" y="691.25" xlink:href="#l"/>
 </g>
</svg>
