<svg fill="none" height="256" viewBox="0 0 256 256" width="256" xmlns="http://www.w3.org/2000/svg"><g fill="#000"><path d="m225.853 105.677-19.728-6.5758v-12.1715c0-20.6684-8.21-40.4908-22.825-55.1042-14.614-14.6152-34.436-22.8255-55.105-22.8255-20.668 0-40.4903 8.2103-55.1037 22.8255-14.6152 14.6134-22.8255 34.4353-22.8255 55.1042v12.1715l-19.7278 6.5758c-1.5142.505-2.5363 1.921-2.538 3.518v44.532c.0017 1.597 1.0238 3.013 2.538 3.518l19.7278 6.576v60.414c-3.9777 0-7.6522 2.122-9.6417 5.566-1.988 3.444-1.988 7.689 0 11.133 1.9897 3.444 5.664 5.566 9.6417 5.566h155.8592c3.978 0 7.652-2.122 9.642-5.566 1.988-3.444 1.988-7.689 0-11.133-1.99-3.444-5.664-5.566-9.642-5.566v-60.414l19.728-6.576c1.514-.505 2.536-1.921 2.538-3.518v-44.532c-.002-1.597-1.024-3.013-2.538-3.518zm-4.884 6.194v8.457h-14.844v-13.404zm0 23.3h-14.844v-7.421h14.844zm-163.2813-48.2417c0-18.7006 7.4286-36.634 20.6519-49.8538 13.2219-13.2237 31.1554-20.6519 49.8534-20.6519 18.699 0 36.634 7.4286 49.854 20.6519 13.224 13.2219 20.652 31.1553 20.652 49.8538v79.1767c-8.8 3.87-16.29 10.208-21.56 18.25-5.268 8.041-8.093 17.438-8.127 27.053v12.824h-81.6411v-12.824c-.0347-9.615-2.8594-19.012-8.1276-27.053-5.2699-8.042-12.7596-14.38-21.5599-18.25zm-22.2657 40.8207h14.8438v7.421h-14.8438zm14.8438-20.826v13.404h-14.8438v-8.457zm-14.8438 44.128v-8.457h14.8438v13.404zm22.2657 23.265c6.711 3.604 12.3224 8.955 16.242 15.488s6.0003 14.002 6.0236 21.621v12.809h-22.2656zm152.1483 61.05c0 .984-.391 1.928-1.087 2.624-.695.696-1.64 1.087-2.624 1.087h-155.8592c-2.0493 0-3.7109-1.662-3.7109-3.711s1.6616-3.711 3.7109-3.711h155.8592c.984 0 1.929.391 2.624 1.087.696.695 1.087 1.64 1.087 2.624zm-33.398-11.133v-12.824c.023-7.619 2.104-15.089 6.023-21.621 3.92-6.532 9.531-11.884 16.242-15.489v49.935zm29.687-68.235v-13.404h14.844v8.458z"/><path d="m83.6626 131.462h.2518c.6925 2.957 2.7385 5.414 5.5219 6.63 2.7848 1.215 5.9773 1.046 8.6161-.459 2.6396-1.502 4.4136-4.163 4.7876-7.176l3.017-24.143 3.597-10.7915c.124 1.1348.187 2.2746.188 3.4177v4.6028-.002c-.001 1.092-.057 2.182-.17 3.265l-4.627 20.203c-1.776 7.735-2.204 15.719-1.266 23.598l5.618 47.178c.277 4.903-.384 9.816-1.943 14.473-.628 1.921-.299 4.025.888 5.662 1.186 1.635 3.084 2.605 5.104 2.606h11.341c1.289 0 2.548-.397 3.607-1.135 1.058.738 2.317 1.135 3.606 1.135h11.342c2.028.002 3.933-.972 5.119-2.617s1.511-3.759.87-5.684c-1.536-4.576-2.202-9.4-1.96-14.221l5.637-47.411c.938-7.881.509-15.866-1.265-23.601l-4.624-20.183v-.002c-.113-1.083-.169-2.173-.171-3.265v-4.6023.0017c.002-1.1431.065-2.2829.189-3.4177l3.597 10.7913 3.017 24.143c.374 3.013 2.148 5.674 4.787 7.177 2.64 1.504 5.834 1.673 8.617.458 2.783-1.216 4.829-3.672 5.521-6.63h.249c.984 0 1.928-.391 2.624-1.086.696-.696 1.087-1.641 1.087-2.625v-4.453c-.008-2.876-1.15-5.634-3.176-7.674-.565-.589-.921-1.348-1.01-2.16-2.191-13.142-5.764-26.0163-10.658-38.4078-.18-4.9086-2.006-9.6154-5.185-13.3611-3.178-3.7441-7.523-6.3137-12.338-7.2908-1.405-.275-2.601-1.1879-3.237-2.4701l-.742-1.4844c1.932-2.9422 2.957-6.3866 2.947-9.905.227-4.1782-1.206-8.2769-3.986-11.4047-2.78-3.1261-6.681-5.0295-10.858-5.2945-4.176.265-8.078 2.1685-10.858 5.2945-2.78 3.1278-4.213 7.2264-3.986 11.4047-.003 3.5221 1.029 6.9664 2.969 9.905l-.742 1.4844c-.636 1.2789-1.831 2.1918-3.232 2.4668-4.819.9724-9.172 3.5386-12.3558 7.2861-3.1824 3.7474-5.0129 8.4559-5.1936 13.3692-4.9302 12.4814-8.522 25.4517-10.7172 38.6897-.1193.704-.4556 1.354-.9608 1.856-2.0295 2.047-3.1676 4.814-3.1659 7.696v4.454c0 .984.391 1.928 1.0868 2.624s1.6401 1.087 2.6241 1.087zm47.0754 30.864-2.059 35.02c-.096 1.605-.258 3.204-.485 4.795-.23-1.594-.393-3.191-.486-4.795l-2.059-35.02h-.003c-.507-8.853.351-17.733 2.546-26.325 2.195 8.592 3.053 17.472 2.546 26.325zm-2.546-131.0579c2.2.28 4.205 1.4032 5.59 3.1361 1.385 1.7312 2.043 3.9329 1.832 6.1411.211 2.2083-.447 4.4098-1.832 6.141-1.385 1.7329-3.39 2.8562-5.59 3.1361-2.2-.28-4.204-1.4032-5.59-3.1361-1.385-1.7312-2.042-3.9329-1.832-6.141-.21-2.2084.447-4.4099 1.832-6.1411 1.385-1.7329 3.39-2.8561 5.59-3.1361zm-40.8201 92.0309c.0033-.909.3644-1.779 1.0056-2.423 1.6616-1.682 2.7401-3.85 3.0797-6.19 2.1454-12.834 5.664-25.3999 10.4948-37.4802.179-.4473.269-.9244.264-1.4065.011-3.3232 1.169-6.5406 3.278-9.1098 2.109-2.5695 5.038-4.3323 8.297-4.9917 3.483-.6975 6.477-2.9125 8.164-6.0419 3.886 2.1388 8.598 2.1388 12.486 0 1.686 3.1295 4.678 5.3446 8.164 6.0419 3.255.661 6.182 2.4253 8.29 4.9947 2.105 2.5678 3.262 5.7852 3.273 9.1068 0 .4722.09.9393.264 1.3767 4.866 12.1846 8.401 24.86 10.543 37.804.371 2.23 1.431 4.287 3.031 5.886.645.646 1.006 1.521 1.006 2.434v.742c-2.049 0-3.711 1.661-3.711 3.711v1.506c-.005 1.161-.909 2.117-2.066 2.19-1.158.073-2.173-.766-2.324-1.915l-3.062-24.493c-.028-.241-.083-.482-.162-.712l-7.422-22.2656c-.475-1.4231-1.761-2.4204-3.259-2.5281-1.496-.106-2.91.6991-3.581 2.0427-2.687 5.3942-4.091 11.3364-4.101 17.3634v4.6026-.002c0 1.433.078 2.863.234 4.286.017.142.041.285.075.424l4.675 20.41c1.58 6.907 1.956 14.035 1.113 21.071l-5.64 47.628c-.299 5.314.324 10.642 1.844 15.745h-8.305c1.53-4.979 2.457-10.123 2.764-15.323l2.059-35.017h.002c.783-13.681-1.437-27.368-6.506-40.1-.562-1.411-1.928-2.337-3.448-2.337-1.519 0-2.886.926-3.447 2.337-5.07 12.732-7.29 26.419-6.506 40.1l2.059 35.017h.002c.306 5.2 1.234 10.344 2.763 15.323h-8.305c1.536-5.179 2.154-10.588 1.826-15.979l-5.633-47.407c-.843-7.034-.467-14.161 1.114-21.068l4.675-20.41c.034-.139.059-.28.074-.422.159-1.42.24-2.848.245-4.276v-4.6026.0016c-.001-6.0304-1.399-11.9776-4.082-17.3786-.671-1.3419-2.085-2.1487-3.581-2.0427-1.498.1077-2.784 1.105-3.257 2.5281l-7.4222 22.2652c-.0812.232-.1359.471-.164.713l-3.0616 24.492c-.0712 1.218-1.1166 2.147-2.3342 2.074-1.2177-.071-2.1454-1.116-2.0741-2.334v-1.506c0-.984-.391-1.928-1.0868-2.624s-1.6401-1.087-2.6242-1.087z"/><path d="m120.772 72.0872h14.844v7.4218h-14.844z"/><path d="m120.772 83.22h14.844v7.4218h-14.844z"/><path d="m120.772 94.3528h14.844v7.4222h-14.844z"/></g></svg>