<svg fill="none" height="256" viewBox="0 0 256 256" width="256" xmlns="http://www.w3.org/2000/svg"><path d="m221.081 107.146-18.803-6.267v-11.6013c0-19.6999-7.826-38.5933-21.756-52.5219-13.929-13.9303-32.822-21.7558-52.522-21.7558s-38.5933 7.8255-52.5219 21.7558c-13.9302 13.9286-21.7558 32.8216-21.7558 52.5219v11.6013l-18.8032 6.267c-1.4432.482-2.4175 1.832-2.4191 3.354v42.444c.0016 1.522.9759 2.872 2.4191 3.354l18.8032 6.267v57.583c-3.7912 0-7.2935 2.023-9.1898 5.306-1.8948 3.282-1.8948 7.328 0 10.611 1.8965 3.283 5.3986 5.305 9.1898 5.305h148.5557c3.791 0 7.293-2.022 9.189-5.305 1.895-3.283 1.895-7.329 0-10.611-1.896-3.283-5.398-5.306-9.189-5.306v-57.583l18.803-6.267c1.443-.482 2.417-1.832 2.419-3.354v-42.444c-.002-1.522-.976-2.872-2.419-3.354zm-76.978 70.203 4.276 2.122c.516.259.843.788.842 1.366.004.507-.247.984-.668 1.266-.419.281-.948.34-1.415.155l-2.122-.856c-4.949-1.97-9.181-5.403-12.129-9.84-1.044-1.559-2.68-2.62-4.529-2.939-.377-.066-.761-.099-1.144-.099-1.482.001-2.922.48-4.107 1.365-5.003 3.751-11.504 4.869-17.471 3.004-5.9688-1.865-10.6772-6.484-12.6543-12.416l-1.5175-4.553c-1.4022-4.232-1.4022-8.804 0-13.036 5.0024-14.925 14.8128-27.769 27.8968-36.52.193-.13.373-.278.537-.442l3.537-3.537c.388-.39.682-.862.856-1.384l1.443-4.3434c1.481-4.4292 4.66-8.0911 8.838-10.1802 4.178-2.089 9.013-2.4348 13.445-.9616l2.505.8385c4.012 1.3374 7.396 4.0944 9.518 7.7515 2.124 3.6571 2.838 7.9632 2.009 12.1092l-1.301 6.515c-.473 2.364-1.752 4.493-3.616 6.02-1.867 1.527-4.205 2.36-6.617 2.356h-1.294c-.548 0-1.09.126-1.581.371l-4.124 2.065c-1.45.723-3.046 1.099-4.666 1.101h-1.535c-2.76-.007-5.407-1.102-7.365-3.049l-2.989-2.989h.002c-1.013-1.011-2.533-1.314-3.855-.766-1.321.548-2.184 1.836-2.184 3.267v4.145c-.015 5.465-2.185 10.703-6.038 14.576-.807.808-1.173 1.958-.984 3.084.188 1.126.91 2.092 1.936 2.594l20.791 10.141c3.024 1.478 5.341 4.094 6.441 7.276 1.103 3.182.899 6.67-.566 9.701-.855 1.745-.141 3.855 1.599 4.722zm-18.339-34.851-2.776-1.355c.425-.608.79-1.258 1.164-1.899l16.157 2.016h-.002c6.035.764 12.159.395 18.056-1.089l.4-.1.001.002c3.346-.842 6.782-1.27 10.232-1.278h1.447c2.785.01 5.517-.761 7.886-2.225 2.368-1.465 4.279-3.564 5.515-6.058l.747-1.492c.654-1.317 1.661-2.426 2.912-3.198 1.25-.772 2.692-1.18 4.162-1.175h3.537v3.951c-4.291 1.033-7.904 3.914-9.864 7.87l-.747 1.492c-.653 1.317-1.661 2.425-2.911 3.198-1.251.772-2.693 1.179-4.163 1.174h-8.52c-4.027.002-8.039.496-11.946 1.472-5.293 1.328-10.794 1.611-16.196.831zm56.928-92.1285h-6.978c-7.292-9.0621-17.202-15.6531-28.378-18.874l-4.481-1.2869 1.528-6.013c15.469 3.9082 29.045 13.1849 38.309 26.1741zm-45.274-27.5541-1.569 6.3319h-15.699l-1.585-6.3319h.001c6.25-.99 12.617-.99 18.866 0zm-25.82 1.3612 1.546 6.0319-4.467 1.2727c-11.1847 3.2212-21.0993 9.8184-28.3929 18.8885h-6.9778c9.2642-12.9891 22.8407-22.2659 38.3087-26.174zm-72.0262 88.8744 3.537-1.181v39.706l-3.537-1.181zm10.6111 40.88v-44.417l3.537-1.178v46.774zm155.6291 76.828c0 .938-.372 1.838-1.036 2.502-.663.663-1.563 1.035-2.501 1.035h-148.5551c-1.9532 0-3.537-1.583-3.537-3.537 0-1.953 1.5838-3.537 3.537-3.537h148.5551c.938 0 1.838.373 2.501 1.036.664.663 1.036 1.563 1.036 2.501zm-145.018-10.611v-130.8699c-.0111-11.1147 2.7522-22.0557 8.0406-31.8332h13.1816c1.1132 0 2.1617-.5243 2.8296-1.4149 6.4346-8.5474 15.4742-14.7702 25.7572-17.7276l7.283-2.0795h20.224l7.282 2.0795c10.283 2.9576 19.323 9.1806 25.758 17.7276.668.8906 1.716 1.4149 2.829 1.4149h13.182c5.288 9.7775 8.051 20.7185 8.041 31.8332v28.2959h-3.537c-2.786-.009-5.517.761-7.886 2.225-2.369 1.466-4.279 3.564-5.516 6.059l-.747 1.492c-.654 1.317-1.661 2.425-2.912 3.198-1.25.772-2.692 1.179-4.162 1.174h-1.446c-4.027.002-8.039.496-11.946 1.472l-.402.1c-5.052 1.264-10.294 1.58-15.461.933l-14.173-1.769c.327-1.176.575-2.373.744-3.583 2.842 1.849 6.158 2.839 9.55 2.851h1.535c2.714-.005 5.392-.635 7.824-1.843l3.388-1.698h.46c4.042 0 7.961-1.402 11.088-3.965 3.126-2.562 5.269-6.129 6.063-10.094l1.301-6.515c1.172-5.837.172-11.8987-2.814-17.0478-2.985-5.1507-7.749-9.0305-13.396-10.9126l-2.505-.8385c-6.21-2.0654-12.987-1.5822-18.842 1.3454-5.855 2.9275-10.308 8.0595-12.383 14.2665l-1.181 3.5544-2.702 2.7016v.002c-14.242 9.624-24.9214 23.67-30.3866 39.968-1.8822 5.686-1.8822 11.829 0 17.515l1.5174 4.552c2.6844 8.044 9.0512 14.319 17.1312 16.886 8.081 2.568 16.902 1.118 23.736-3.902 3.731 5.521 9.035 9.791 15.223 12.26l2.122.859c2.652 1.063 5.657.741 8.024-.859 2.365-1.601 3.783-4.271 3.783-7.128.005-1.598-.437-3.166-1.279-4.525-.84-1.361-2.045-2.457-3.479-3.168l-1.414-.707c1.005-3.648.945-7.507-.173-11.123-1.119-3.614-3.249-6.832-6.14-9.275 1.015.063 2.03.106 3.041.106v.001c4.02 0 8.025-.494 11.923-1.471 3.345-.836 6.776-1.26 10.223-1.264h8.52c2.786.01 5.517-.761 7.886-2.224 2.369-1.466 4.279-3.564 5.516-6.059l.747-1.492c.772-1.511 2.013-2.73 3.537-3.474v83.991zm141.481-88.425v-23.387l3.537 1.178v44.417l-3.537 1.178zm14.148 18.671-3.537 1.182v-39.707l3.537 1.181z" fill="#000"/></svg>