<?xml version="1.0" encoding="UTF-8"?>
<svg width="700pt" height="700pt" version="1.1" viewBox="0 0 700 700" xmlns="http://www.w3.org/2000/svg" xmlns:xlink="http://www.w3.org/1999/xlink">
 <defs>
  <symbol id="d" overflow="visible">
   <path d="m29.312-1.75c-1.5117 0.78125-3.0898 1.3711-4.7344 1.7656-1.6367 0.40625-3.3398 0.60938-5.1094 0.60938-5.3125 0-9.5273-1.4844-12.641-4.4531-3.1055-2.9688-4.6562-7-4.6562-12.094s1.5508-9.125 4.6562-12.094c3.1133-2.9688 7.3281-4.4531 12.641-4.4531 1.7695 0 3.4727 0.19922 5.1094 0.59375 1.6445 0.39844 3.2227 0.99219 4.7344 1.7812v6.5938c-1.5312-1.0391-3.0391-1.8008-4.5156-2.2812-1.4805-0.48828-3.0391-0.73438-4.6719-0.73438-2.9375 0-5.2461 0.94531-6.9219 2.8281-1.6797 1.875-2.5156 4.4648-2.5156 7.7656 0 3.293 0.83594 5.8828 2.5156 7.7656 1.6758 1.875 3.9844 2.8125 6.9219 2.8125 1.6328 0 3.1914-0.23828 4.6719-0.71875 1.4766-0.48828 2.9844-1.2539 4.5156-2.2969z"/>
  </symbol>
  <symbol id="k" overflow="visible">
   <path d="m21.453-17.406c-0.67969-0.3125-1.3516-0.53906-2.0156-0.6875-0.65625-0.15625-1.3203-0.23438-1.9844-0.23438-1.9688 0-3.4844 0.63281-4.5469 1.8906-1.0547 1.2617-1.5781 3.0703-1.5781 5.4219v11.016h-7.6562v-23.922h7.6562v3.9219c0.97656-1.5625 2.1016-2.7031 3.375-3.4219 1.2812-0.71875 2.8125-1.0781 4.5938-1.0781 0.25 0 0.52344 0.011719 0.82812 0.03125 0.30078 0.023438 0.73438 0.070312 1.2969 0.14062z"/>
  </symbol>
  <symbol id="a" overflow="visible">
   <path d="m27.562-12.031v2.1875h-17.891c0.1875 1.793 0.83203 3.1367 1.9375 4.0312 1.1133 0.89844 2.6719 1.3438 4.6719 1.3438 1.6016 0 3.25-0.23438 4.9375-0.70312 1.6875-0.47656 3.4219-1.2031 5.2031-2.1719v5.8906c-1.8047 0.6875-3.6094 1.2031-5.4219 1.5469-1.8125 0.35156-3.6211 0.53125-5.4219 0.53125-4.3359 0-7.7031-1.0977-10.109-3.2969-2.3984-2.207-3.5938-5.2969-3.5938-9.2656 0-3.9062 1.1758-6.9727 3.5312-9.2031 2.3633-2.2383 5.6094-3.3594 9.7344-3.3594 3.7578 0 6.7695 1.1367 9.0312 3.4062 2.2578 2.2617 3.3906 5.2812 3.3906 9.0625zm-7.8594-2.5312c0-1.457-0.42969-2.6289-1.2812-3.5156-0.84375-0.89453-1.9492-1.3438-3.3125-1.3438-1.4922 0-2.6992 0.41797-3.625 1.25-0.91797 0.83594-1.4922 2.0391-1.7188 3.6094z"/>
  </symbol>
  <symbol id="j" overflow="visible">
   <path d="m14.391-10.766c-1.5938 0-2.793 0.27344-3.5938 0.8125-0.80469 0.54297-1.2031 1.3398-1.2031 2.3906 0 0.96875 0.32031 1.7305 0.96875 2.2812 0.64453 0.54297 1.5469 0.8125 2.7031 0.8125 1.4375 0 2.6445-0.51562 3.625-1.5469 0.98828-1.0312 1.4844-2.3203 1.4844-3.875v-0.875zm11.688-2.8906v13.656h-7.7031v-3.5469c-1.0312 1.4492-2.1875 2.5078-3.4688 3.1719s-2.8398 1-4.6719 1c-2.4805 0-4.4961-0.72266-6.0469-2.1719-1.543-1.4453-2.3125-3.3203-2.3125-5.625 0-2.8125 0.96094-4.8672 2.8906-6.1719 1.9375-1.3125 4.9688-1.9688 9.0938-1.9688h4.5156v-0.60938c0-1.207-0.48047-2.0938-1.4375-2.6562-0.94922-0.5625-2.4375-0.84375-4.4688-0.84375-1.6367 0-3.1562 0.16797-4.5625 0.5-1.4062 0.32422-2.7188 0.8125-3.9375 1.4688v-5.8281c1.6445-0.40625 3.2891-0.70703 4.9375-0.90625 1.6562-0.20703 3.3047-0.3125 4.9531-0.3125 4.3203 0 7.4375 0.85547 9.3438 2.5625 1.9141 1.6992 2.875 4.4609 2.875 8.2812z"/>
  </symbol>
  <symbol id="i" overflow="visible">
   <path d="m12.031-30.719v6.7969h7.875v5.4688h-7.875v10.141c0 1.1172 0.21875 1.8711 0.65625 2.2656 0.4375 0.38672 1.3125 0.57812 2.625 0.57812h3.9375v5.4688h-6.5625c-3.0234 0-5.1641-0.62891-6.4219-1.8906-1.2617-1.2578-1.8906-3.3984-1.8906-6.4219v-10.141h-3.7969v-5.4688h3.7969v-6.7969z"/>
  </symbol>
  <symbol id="h" overflow="visible">
   <path d="m19.953-20.422v-12.812h7.6875v33.234h-7.6875v-3.4531c-1.0547 1.4062-2.2148 2.4375-3.4844 3.0938-1.2734 0.65625-2.7422 0.98438-4.4062 0.98438-2.9492 0-5.3711-1.1719-7.2656-3.5156-1.8867-2.3438-2.8281-5.3594-2.8281-9.0469s0.94141-6.7031 2.8281-9.0469c1.8945-2.3438 4.3164-3.5156 7.2656-3.5156 1.6562 0 3.1172 0.33594 4.3906 1 1.2812 0.65625 2.4453 1.6836 3.5 3.0781zm-5.0469 15.484c1.6445 0 2.8945-0.59766 3.75-1.7969 0.86328-1.1953 1.2969-2.9297 1.2969-5.2031 0-2.2812-0.43359-4.0195-1.2969-5.2188-0.85547-1.1953-2.1055-1.7969-3.75-1.7969-1.625 0-2.8711 0.60156-3.7344 1.7969-0.85547 1.1992-1.2812 2.9375-1.2812 5.2188 0 2.2734 0.42578 4.0078 1.2812 5.2031 0.86328 1.1992 2.1094 1.7969 3.7344 1.7969z"/>
  </symbol>
  <symbol id="g" overflow="visible">
   <path d="m16.406-4.9375c1.6328 0 2.8828-0.59766 3.75-1.7969 0.86328-1.1953 1.2969-2.9297 1.2969-5.2031 0-2.2812-0.43359-4.0195-1.2969-5.2188-0.86719-1.1953-2.1172-1.7969-3.75-1.7969-1.6367 0-2.8906 0.60547-3.7656 1.8125-0.875 1.1992-1.3125 2.9336-1.3125 5.2031 0 2.2617 0.4375 3.9961 1.3125 5.2031 0.875 1.1992 2.1289 1.7969 3.7656 1.7969zm-5.0781-15.484c1.0508-1.3945 2.2188-2.4219 3.5-3.0781 1.2812-0.66406 2.7539-1 4.4219-1 2.9453 0 5.3672 1.1719 7.2656 3.5156 1.8945 2.3438 2.8438 5.3594 2.8438 9.0469s-0.94922 6.7031-2.8438 9.0469c-1.8984 2.3438-4.3203 3.5156-7.2656 3.5156-1.668 0-3.1406-0.33594-4.4219-1s-2.4492-1.6914-3.5-3.0781v3.4531h-7.6562v-33.234h7.6562z"/>
  </symbol>
  <symbol id="f" overflow="visible">
   <path d="m0.53125-23.922h7.6562l6.4219 16.234 5.4688-16.234h7.6562l-10.062 26.188c-1.0117 2.6641-2.1953 4.5234-3.5469 5.5781-1.3438 1.0625-3.1211 1.5938-5.3281 1.5938h-4.4219v-5.0156h2.3906c1.3008 0 2.2422-0.21094 2.8281-0.625 0.59375-0.40625 1.0547-1.1484 1.3906-2.2188l0.20312-0.65625z"/>
  </symbol>
  <symbol id="e" overflow="visible">
   <path d="m0.21875-31.891h8.2656l8.4531 23.531 8.4375-23.531h8.2656l-11.812 31.891h-9.7969z"/>
  </symbol>
  <symbol id="p" overflow="visible">
   <path d="m4.0156-31.891h8.2188v31.891h-8.2188z"/>
  </symbol>
  <symbol id="c" overflow="visible">
   <path d="m4.0156-31.891h9.1875l11.594 21.875v-21.875h7.7969v31.891h-9.1875l-11.594-21.875v21.875h-7.7969z"/>
  </symbol>
  <symbol id="o" overflow="visible">
   <path d="m2.4531-31.891h26.812v4.9688l-17.109 20.703h17.594v6.2188h-27.781v-4.9844l17.109-20.688h-16.625z"/>
  </symbol>
  <symbol id="b" overflow="visible">
   <path d="m4.0156-31.891h22.203v6.2188h-13.984v5.9375h13.141v6.2188h-13.141v7.2969h14.453v6.2188h-22.672z"/>
  </symbol>
  <symbol id="n" overflow="visible">
   <path d="m26.219-30.891v6.75c-1.7617-0.78125-3.4766-1.3672-5.1406-1.7656-1.668-0.40625-3.2422-0.60938-4.7188-0.60938-1.9609 0-3.4141 0.27344-4.3594 0.8125-0.9375 0.54297-1.4062 1.3867-1.4062 2.5312 0 0.85547 0.31641 1.5234 0.95312 2 0.63281 0.46875 1.7852 0.875 3.4531 1.2188l3.5 0.70312c3.5391 0.71875 6.0625 1.8047 7.5625 3.25 1.5 1.4492 2.25 3.5117 2.25 6.1875 0 3.5234-1.0469 6.1406-3.1406 7.8594-2.0859 1.7188-5.2734 2.5781-9.5625 2.5781-2.0234 0-4.0547-0.19531-6.0938-0.57812-2.0312-0.38281-4.0625-0.95703-6.0938-1.7188v-6.9375c2.0312 1.0859 3.9922 1.9023 5.8906 2.4531 1.9062 0.54297 3.7422 0.8125 5.5156 0.8125 1.7891 0 3.1602-0.29688 4.1094-0.89062 0.95703-0.60156 1.4375-1.457 1.4375-2.5625 0-1-0.32422-1.7695-0.96875-2.3125-0.64844-0.53906-1.9375-1.0234-3.875-1.4531l-3.1875-0.70312c-3.1875-0.6875-5.5234-1.7734-7-3.2656-1.4688-1.5-2.2031-3.5156-2.2031-6.0469 0-3.1758 1.0234-5.6172 3.0781-7.3281 2.0508-1.707 5-2.5625 8.8438-2.5625 1.75 0 3.5508 0.13281 5.4062 0.39062 1.8516 0.26172 3.7695 0.65625 5.75 1.1875z"/>
  </symbol>
  <symbol id="m" overflow="visible">
   <path d="m0.21875-31.891h29.391v6.2188h-10.578v25.672h-8.2188v-25.672h-10.594z"/>
  </symbol>
  <symbol id="l" overflow="visible">
   <path d="m4.0156-31.891h8.2188v19.109c0 2.6367 0.42969 4.5234 1.2969 5.6562 0.86328 1.1367 2.2695 1.7031 4.2188 1.7031 1.9688 0 3.3789-0.56641 4.2344-1.7031 0.86328-1.1328 1.2969-3.0195 1.2969-5.6562v-19.109h8.2344v19.109c0 4.5234-1.1367 7.8867-3.4062 10.094-2.2617 2.2109-5.7148 3.3125-10.359 3.3125-4.625 0-8.0742-1.1016-10.344-3.3125-2.2617-2.207-3.3906-5.5703-3.3906-10.094z"/>
  </symbol>
 </defs>
 <g>
  <path d="m580.27 227.95-46.516-15.504v-28.699c0-48.734-19.359-95.473-53.82-129.93-34.457-34.461-81.195-53.82-129.93-53.82s-95.473 19.359-129.93 53.82c-34.461 34.457-53.82 81.195-53.82 129.93v28.699l-46.516 15.504c-3.5703 1.1914-5.9805 4.5312-5.9844 8.2969v105c0.003906 3.7656 2.4141 7.1055 5.9844 8.2969l46.516 15.504v142.45c-9.3789 0-18.043 5.0039-22.734 13.125-4.6875 8.1211-4.6875 18.129 0 26.25 4.6914 8.1211 13.355 13.125 22.734 13.125h367.5c9.3789 0 18.043-5.0039 22.734-13.125 4.6875-8.1211 4.6875-18.129 0-26.25-4.6914-8.1211-13.355-13.125-22.734-13.125v-142.45l46.516-15.504c3.5703-1.1914 5.9805-4.5312 5.9844-8.2969v-105c-0.003906-3.7656-2.4141-7.1055-5.9844-8.2969zm-190.43 173.67 10.578 5.25c1.2773 0.64062 2.0859 1.9492 2.082 3.3789 0.011719 1.2539-0.60938 2.4336-1.6523 3.1328-1.0352 0.69531-2.3438 0.83984-3.5 0.38281l-5.25-2.1172c-12.242-4.875-22.711-13.367-30.004-24.344-2.582-3.8555-6.6289-6.4805-11.203-7.2695-0.93359-0.16406-1.8828-0.24609-2.832-0.24609-3.6641 0.003906-7.2266 1.1875-10.16 3.3789-12.375 9.2773-28.457 12.043-43.219 7.4297-14.766-4.6133-26.414-16.039-31.305-30.715l-3.7539-11.262c-3.4688-10.469-3.4688-21.781 0-32.25 12.375-36.922 36.645-68.695 69.012-90.344 0.47656-0.32031 0.92188-0.6875 1.3281-1.0938l8.75-8.75c0.96094-0.96484 1.6875-2.1328 2.1172-3.4219l3.5703-10.746c3.6641-10.957 11.527-20.016 21.863-25.184 10.336-5.168 22.297-6.0234 33.262-2.3789l6.1953 2.0742c9.9258 3.3086 18.297 10.129 23.547 19.176 5.2539 9.0469 7.0195 19.699 4.9688 29.957l-3.2188 16.117c-1.168 5.8477-4.332 11.113-8.9453 14.891-4.6172 3.7773-10.402 5.8398-16.367 5.8281h-3.2031c-1.3555 0-2.6953 0.3125-3.9102 0.91797l-10.203 5.1094c-3.5859 1.7891-7.5352 2.7188-11.543 2.7227h-3.7969c-6.8281-0.015625-13.375-2.7266-18.219-7.543l-7.3945-7.3945h0.003906c-2.5039-2.5-6.2656-3.25-9.5352-1.8945-3.2695 1.3555-5.4023 4.543-5.4023 8.082v10.254c-0.039062 13.52-5.4062 26.477-14.938 36.059-1.9961 2-2.9023 4.8438-2.4336 7.6289 0.46484 2.7852 2.25 5.1758 4.7891 6.418l51.434 25.086c7.4805 3.6562 13.211 10.129 15.934 18 2.7266 7.8711 2.2227 16.5-1.4023 24-2.1133 4.3164-0.34766 9.5352 3.957 11.68zm-45.367-86.215-6.8672-3.3516c1.0508-1.5039 1.9531-3.1133 2.8789-4.6992l39.969 4.9883h-0.003906c14.93 1.8906 30.078 0.97656 44.668-2.6953l0.98828-0.24609 0.003906 0.003906c8.2773-2.082 16.777-3.1406 25.312-3.1602h3.5781c6.8906 0.023438 13.648-1.8828 19.508-5.5039 5.8594-3.625 10.586-8.8164 13.645-14.988l1.8477-3.6914c1.6172-3.2578 4.1094-6 7.2031-7.9102s6.6602-2.918 10.297-2.9062h8.75v9.7734c-10.617 2.5547-19.555 9.6836-24.402 19.469l-1.8477 3.6914c-1.6172 3.2578-4.1094 6-7.2031 7.9102s-6.6602 2.918-10.297 2.9062h-21.078c-9.9609 0.003906-19.887 1.2266-29.551 3.6406-13.094 3.2852-26.703 3.9844-40.066 2.0547zm140.83-227.91h-17.262c-18.039-22.418-42.555-38.723-70.203-46.691l-11.086-3.1836 3.7812-14.875c38.266 9.668 71.852 32.617 94.77 64.75zm-112-68.164-3.8828 15.664h-38.836l-3.9219-15.664h0.003906c15.461-2.4492 31.211-2.4492 46.672 0zm-63.875 3.3672 3.8242 14.922-11.051 3.1484c-27.668 7.9688-52.195 24.289-70.238 46.727h-17.262c22.918-32.133 56.504-55.082 94.77-64.75zm-178.18 219.86 8.75-2.9219v98.227l-8.75-2.9219zm26.25 101.13v-109.88l8.75-2.9141v115.71zm385 190.06c0 2.3203-0.92188 4.5469-2.5625 6.1875s-3.8672 2.5625-6.1875 2.5625h-367.5c-4.832 0-8.75-3.918-8.75-8.75s3.918-8.75 8.75-8.75h367.5c2.3203 0 4.5469 0.92188 6.1875 2.5625s2.5625 3.8672 2.5625 6.1875zm-358.75-26.25v-323.75c-0.027344-27.496 6.8086-54.562 19.891-78.75h32.609c2.7539 0 5.3477-1.2969 7-3.5 15.918-21.145 38.281-36.539 63.719-43.855l18.016-5.1445h50.031l18.016 5.1445c25.438 7.3164 47.801 22.711 63.719 43.855 1.6523 2.2031 4.2461 3.5 7 3.5h32.609c13.082 24.188 19.918 51.254 19.891 78.75v70h-8.75c-6.8906-0.023438-13.648 1.8828-19.508 5.5039-5.8594 3.625-10.586 8.8164-13.645 14.988l-1.8477 3.6914c-1.6172 3.2578-4.1094 6-7.2031 7.9102s-6.6602 2.918-10.297 2.9062h-3.5781c-9.9609 0.003906-19.887 1.2266-29.551 3.6406l-0.99609 0.24609c-12.496 3.1289-25.465 3.9102-38.246 2.3086l-35.062-4.375c0.80859-2.9102 1.4219-5.8711 1.8398-8.8633 7.0312 4.5742 15.234 7.0234 23.625 7.0508h3.7969c6.7148-0.011718 13.34-1.5703 19.355-4.5586l8.3828-4.1992h1.1367c10 0 19.695-3.4688 27.43-9.8086 7.7344-6.3398 13.035-15.164 15-24.973l3.2188-16.117c2.8984-14.438 0.42578-29.434-6.9609-42.172-7.3867-12.742-19.172-22.34-33.141-26.996l-6.1953-2.0742c-15.363-5.1094-32.129-3.9141-46.613 3.3281s-25.5 19.938-30.633 35.293l-2.9219 8.793-6.6836 6.6836v0.003907c-35.234 23.809-61.652 58.555-75.172 98.875-4.6562 14.066-4.6562 29.262 0 43.328l3.7539 11.262c6.6406 19.898 22.391 35.422 42.379 41.773 19.992 6.3516 41.812 2.7656 58.719-9.6523 9.2305 13.656 22.352 24.219 37.66 30.328l5.25 2.125c6.5586 2.6289 13.992 1.832 19.848-2.125 5.8516-3.9609 9.3594-10.566 9.3594-17.633 0.011719-3.9531-1.082-7.832-3.1641-11.195-2.0781-3.3672-5.0586-6.0781-8.6055-7.8359l-3.5-1.75c2.4883-9.0234 2.3398-18.57-0.42578-27.516-2.7695-8.9414-8.0391-16.902-15.191-22.945 2.5117 0.15625 5.0234 0.26172 7.5234 0.26172v0.003906c9.9453 0 19.852-1.2227 29.496-3.6406 8.2734-2.0664 16.762-3.1172 25.289-3.125h21.078c6.8906 0.023438 13.648-1.8828 19.508-5.5039 5.8594-3.625 10.586-8.8164 13.645-14.988l1.8477-3.6914c1.9102-3.7383 4.9805-6.7539 8.75-8.5938v207.78zm350-218.75v-57.855l8.75 2.9141v109.88l-8.75 2.9141zm35 46.191-8.75 2.9219v-98.227l8.75 2.9219z"/>
  <use x="70" y="691.25" xlink:href="#d"/>
  <use x="102.109375" y="691.25" xlink:href="#k"/>
  <use x="123.683594" y="691.25" xlink:href="#a"/>
  <use x="153.355469" y="691.25" xlink:href="#j"/>
  <use x="182.878906" y="691.25" xlink:href="#i"/>
  <use x="203.792969" y="691.25" xlink:href="#a"/>
  <use x="233.464844" y="691.25" xlink:href="#h"/>
  <use x="280.011719" y="691.25" xlink:href="#g"/>
  <use x="311.328125" y="691.25" xlink:href="#f"/>
  <use x="355.078125" y="691.25" xlink:href="#e"/>
  <use x="388.9375" y="691.25" xlink:href="#p"/>
  <use x="405.21875" y="691.25" xlink:href="#c"/>
  <use x="441.832031" y="691.25" xlink:href="#o"/>
  <use x="473.554688" y="691.25" xlink:href="#b"/>
  <use x="503.441406" y="691.25" xlink:href="#c"/>
  <use x="540.054688" y="691.25" xlink:href="#d"/>
  <use x="572.164062" y="691.25" xlink:href="#b"/>
  <use x="617.28125" y="691.25" xlink:href="#n"/>
  <use x="648.789062" y="691.25" xlink:href="#m"/>
  <use x="678.632812" y="691.25" xlink:href="#l"/>
 </g>
</svg>
