<svg fill="none" height="256" viewBox="0 0 256 256" width="256" xmlns="http://www.w3.org/2000/svg"><g fill="#000"><path d="m39.8609 37.7707c.5635 1.6904 2.3011 2.6962 4.0483 2.3405l34.1996-6.8327 21.507 9.2265v11.7796h-10.5772c-1.0294 0-2.0069.4502-2.6758 1.2309l-42.3088 49.3605c-.2282.267-.4155.568-.554.891-.0205.053-.0252.113-.0456.165v.001c-.1275.339-.1999.696-.2157 1.058 0 .063-.0346.113-.0346.176v17.629c0 .935.3715 1.832 1.0325 2.493.6611.661 1.5583 1.033 2.4932 1.033h.3526c.8799 4.196 3.2613 7.925 6.6989 10.489v14.194c0 .935.3714 1.832 1.0325 2.493s1.5583 1.033 2.4932 1.033h28.2058c.935 0 1.8322-.372 2.4932-1.033.6611-.661 1.0326-1.558 1.0326-2.493v-10.577h77.5664v10.577c0 .935.371 1.832 1.032 2.493s1.558 1.033 2.493 1.033h28.206c.935 0 1.832-.372 2.493-1.033s1.033-1.558 1.033-2.493v-14.194c3.436-2.563 5.819-6.291 6.699-10.486h.352c.935 0 1.832-.371 2.494-1.033.661-.661 1.032-1.558 1.032-2.493v-17.628c0-.063-.031-.114-.035-.177-.015-.362-.088-.719-.215-1.057-.017-.054-.025-.114-.046-.166-.138-.324-.326-.625-.554-.892l-42.309-49.3603c-.669-.7823-1.646-1.2324-2.675-1.234h-10.578v-11.7796l21.536-9.2265 34.171 6.8327c1.742.3478 3.471-.6564 4.034-2.3406l3.526-10.5772c.323-.9695.209-2.0304-.312-2.9103-.519-.8798-1.394-1.4905-2.4-1.6731l-38.783-7.0515c-.652-.1164-1.324-.0503-1.939.1936l-35.258 14.103c-1.334.5398-2.206 1.8368-2.203 3.2754v21.1544h-21.154v-21.1544c0-1.4433-.879-2.7403-2.218-3.2754l-35.2575-14.103c-.6154-.2471-1.2875-.3148-1.9392-.1936l-38.783 7.0515c-1.0042.1826-1.8809.7933-2.4003 1.6731-.521.8799-.6343 1.9408-.3117 2.9103zm26.613 51.7698h45.8711l-4.689 14.1025h-53.261zm74.0721 14.1025h-25.459l4.7-14.1025h16.07zm29.585 7.052v10.577h-3.526v-10.577zm35.257 0v10.577h-3.525v-10.577zm-10.577 10.577h-17.628v-10.577h17.628zm-35.257 0h-7.052v-10.577h7.052zm-14.103 0h-35.257v-10.577h35.257zm-59.9374 0v-10.577h3.5258v10.577zm-35.2573 0v-10.577h3.5258v10.577zm10.5772-10.577h17.6287v10.577h-17.6287zm35.2573 0h7.0512v10.577h-7.0512zm-14.1029 38.783h-21.1544v-7.404c1.1601.236 2.3421.354 3.5258.352h17.6286zm112.8231 0h-21.154v-7.052h17.629c1.183.002 2.365-.116 3.525-.352zm-3.525-14.103h-126.9267c-2.1863-.003-4.3192-.682-6.1054-1.944-1.7849-1.262-3.137-3.047-3.8689-5.108h146.876c-.732 2.061-2.084 3.846-3.869 5.108-1.786 1.262-3.919 1.941-6.105 1.944zm7.051-31.732h-50.347l-4.7-14.1025h45.878l12.09 14.1025zm-15.22-21.154h-110.5873l18.1323-21.1544h74.322zm-37.666-46.9748 32.084-12.8405 33.788 6.1448-1.245 3.7666-32.19-6.4378c-.699-.1432-1.426-.0692-2.081.2141l-24.68 10.5772c-1.302.5524-2.147 1.8274-2.15 3.2408v14.1029h-3.526zm-67.3394-12.8405 32.0844 12.8405v18.7682h-3.526v-14.103c0-1.4103-.84-2.6852-2.136-3.2408l-24.68-10.5772c-.6563-.2833-1.3819-.3573-2.0808-.2141l-32.2038 6.4378-1.2592-3.765z"/><path d="m230.613 156.712c-5.983.735-11.49 3.631-15.485 8.144-3.996 4.513-6.206 10.33-6.213 16.357-4.948.022-9.777 1.524-13.866 4.308-4.091 2.786-7.257 6.729-9.09 11.324-10.313-3.063-21.449-1.482-30.503 4.327-9.055 5.81-15.132 15.272-16.646 25.924-4.042.286-7.887 1.848-10.986 4.457-3.1-2.61-6.945-4.171-10.987-4.457-1.514-10.652-7.591-20.114-16.646-25.924-9.0539-5.809-20.1896-7.39-30.5025-4.327-1.8337-4.595-4.9988-8.538-9.0899-11.324-4.089-2.785-8.9183-4.286-13.8668-4.308-.0063-6.027-2.2162-11.844-6.2125-16.357-3.9948-4.513-9.5022-7.409-15.485-8.144-.7052-2.104-2.0525-3.933-3.8516-5.232-1.8006-1.297-3.9633-1.995-6.1827-1.999v7.052c.9349 0 1.8321.371 2.4932 1.032.6611.662 1.0325 1.559 1.0325 2.494s.3715 1.832 1.0326 2.493c.661.661 1.5582 1.032 2.4932 1.032 4.6733.007 9.1544 1.866 12.4597 5.169 3.3038 3.306 5.1625 7.787 5.1689 12.46-.0031 1.089-.107 2.177-.3132 3.247-.2157 1.143.1464 2.319.968 3.142s1.9958 1.188 3.1385.976c1.0751-.203 2.1642-.309 3.2581-.314 4.02.018 7.9142 1.4 11.043 3.923 3.1289 2.523 5.3076 6.035 6.1763 9.959.2219 1.021.8846 1.893 1.8117 2.378s2.021.533 2.9874.132c9.011-3.741 19.2815-2.855 27.518 2.375 8.2361 5.231 13.4061 14.147 13.8531 23.895.044.976.494 1.89 1.24 2.521.748.63 1.722.924 2.695.814l.554-.074h-.002c.29-.049.582-.078.875-.088 3.743.014 7.274 1.739 9.587 4.683.669.835 1.681 1.323 2.753 1.323s2.084-.488 2.753-1.323c2.314-2.944 5.844-4.669 9.587-4.683.293.01.586.039.875.088l.554.074h-.001c.971.115 1.947-.179 2.693-.812s1.196-1.546 1.242-2.523c.447-9.748 5.616-18.664 13.853-23.895 8.236-5.23 18.507-6.116 27.518-2.375.968.398 2.062.349 2.99-.134.926-.486 1.587-1.355 1.809-2.376.868-3.924 3.047-7.436 6.176-9.959s7.023-3.905 11.043-3.923c1.094.005 2.183.111 3.258.314 1.143.212 2.317-.153 3.139-.976.821-.823 1.183-1.999.968-3.142-.207-1.07-.31-2.158-.314-3.247.007-4.673 1.866-9.154 5.169-12.46 3.306-3.304 7.787-5.162 12.46-5.169.935 0 1.832-.371 2.493-1.032s1.033-1.558 1.033-2.493c0-1.947 1.578-3.526 3.525-3.526v-7.052c-2.219.004-4.381.702-6.182 1.999-1.799 1.299-3.147 3.128-3.852 5.232z"/><path d="m64.3597 160.057h-7.0515c-.0267 9.972 3.9366 19.541 11.0068 26.573l.6059.603h.0016c1.3757 1.371 3.6013 1.371 4.9771 0l.6107-.606c7.0688-7.033 11.0305-16.599 11.0039-26.57h-7.0514c.0204 7.133-2.4775 14.044-7.0515 19.519-4.5742-5.475-7.072-12.386-7.0514-19.519z"/><path d="m177.183 160.057h-7.052c-.026 9.972 3.937 19.541 11.007 26.573l.606.603h.002c1.375 1.371 3.601 1.371 4.977 0l.611-.606c7.068-7.033 11.03-16.599 11.003-26.57h-7.051c.02 7.133-2.477 14.044-7.051 19.519-4.575-5.475-7.072-12.386-7.052-19.519z"/></g></svg>