<svg fill="none" height="256" viewBox="0 0 256 256" width="256" xmlns="http://www.w3.org/2000/svg"><g fill="#000"><path d="m231.035 221.398c-.759-.885-1.867-1.396-3.035-1.396h-4v-8c0-1.258-.593-2.444-1.6-3.199l-14.4-10.8v-9.999c-.002-1.168-.513-2.277-1.4-3.035l-28-23.999c-1.186-1.014-2.854-1.246-4.272-.594-1.418.651-2.326 2.069-2.328 3.63v35.997h-8v-15.999c0-1.212-.552-2.36-1.498-3.119-.947-.759-2.186-1.048-3.37-.784l-11.132 2.471v-18.566c0-1.186-.525-2.311-1.436-3.071l-14.564-12.128v-13.535c3.137-1.093 5.677-3.444 7.007-6.488 1.328-3.045 1.328-6.505 0-9.55-1.33-3.044-3.87-5.396-7.007-6.489v-5.771c5.742-1.107 10.716-4.664 13.619-9.7403 3.715 1.9677 7.197 4.3483 10.381 7.0923v23.683h-4c-2.209 0-4 1.791-4 3.999v15.999h8v-11.999h24v11.999h8v-15.999c0-1.06-.422-2.078-1.172-2.828s-1.768-1.171-2.828-1.171h-4v-5.555c-.016-12.846-4.388-25.3035-12.4-35.3422-1.727-2.1623-4.632-2.9962-7.243-2.0802s-4.359 3.3801-4.357 6.1477v3.0355c-2.552-1.7516-5.225-3.3194-8-4.6909v-3.5997c6.53-4.3515 11.455-10.7243 14.019-18.1401.44.0608.881.1036 1.316.1679.193.0357.388.0571.584.0607 1.449.0018 2.784-.7803 3.493-2.0445 6.12-11.1869 6.12-24.7215 0-35.9084-.812-1.4482-2.434-2.2446-4.077-1.9999l-.216.0286v-.0018c-2.412-10.7102-9.582-19.73447-19.469-24.50717-9.888-4.77271-21.413-4.77271-31.3 0-9.888 4.7727-17.0573 13.79747-19.4701 24.50717l-.2161-.0286v.0018c-1.6429-.2446-3.2643.5517-4.0768 1.9999-6.1198 11.1869-6.1198 24.7215 0 35.9084.8125 1.4481 2.4339 2.2445 4.0768 1.9998.4357-.0642.8768-.1071 1.3161-.1678 2.5643 7.4157 7.4891 13.7883 14.0191 18.14v3.5998c-2.774 1.3713-5.448 2.9391-7.9995 4.6909v-3.0355c.0035-2.7677-1.7428-5.2353-4.3553-6.1514-2.6107-.9178-5.5177-.0821-7.2448 2.0802-8.0105 10.035-12.3821 22.4898-12.4 35.3298v5.555h-4c-2.2089 0-4 1.791-4 4v15.998h8v-11.999h24v11.999h7.9996v-15.998c0-1.061-.421-2.079-1.171-2.829s-1.768-1.171-2.829-1.171h-3.9996v-23.683c3.1896-2.746 6.6786-5.1244 10.3996-7.0923 2.9 5.0713 7.865 8.6283 13.6 9.7403v5.771c-3.137 1.093-5.676 3.445-7.007 6.489-1.328 3.045-1.328 6.505 0 9.55 1.331 3.044 3.87 5.396 7.007 6.488v6.861l-1.435-1.2v-.002c-1.484-1.239-3.645-1.239-5.129 0l-24 19.999c-.9107.762-1.4375 1.889-1.4357 3.076v23.782l-8-2.667v-9.116c0-1.06-.4214-2.078-1.1714-2.828s-1.7679-1.171-2.8286-1.171h-23.9999c-2.2089 0-4 1.791-4 3.999v19.999h-12c-2.2089 0-4 1.791-4 4v19.998h-4c-1.0607 0-2.0786.422-2.8285 1.172l-27.99999 27.998c-1.1428587 1.144-1.485716 2.864-.86606 4.359.619656 1.494 2.0768 2.469 3.69462 2.469h247.99953c1.562 0 2.982-.909 3.634-2.328.652-1.42.42-3.09-.598-4.275zm-67.035-125.6416c5.207 7.9316 7.988 17.2096 8 26.6986v5.554h-8zm-79.9998 32.2536v-5.555c.0125-9.489 2.7929-18.767 8-26.6981v32.2531zm63.5518-111.9926h-13.896l-2.829-2.8284h.002c-1.562-1.5606-4.094-1.5606-5.657 0l-2.827 2.8284h-13.896c5.216-5.1265 12.238-7.99949 19.552-7.99949s14.336 2.87299 19.552 7.99949zm-44.832 7.9994h21.281c1.06 0 2.078-.4214 2.828-1.1713l1.172-1.1732 1.171 1.1714v.0018c.75.7499 1.768 1.1713 2.829 1.1713h21.28c.78 1.6374 1.398 3.348 1.843 5.1069-18.023 2.0481-36.223 2.0481-54.245 0 .445-1.7588 1.063-3.4694 1.843-5.1069zm-8.3518 12.3672c22.3178 3.048 44.9458 3.048 67.2638 0 3.188 7.4262 3.188 15.8366 0 23.2629-22.318-3.0498-44.946-3.0498-67.2638 0-3.1875-7.4263-3.1875-15.8367 0-23.2629zm7.8228 30.3979h.002c17.15-1.8499 34.448-1.8499 51.602 0-2.835 6.8407-8.273 12.2758-15.114 15.1099-6.843 2.8337-14.53 2.8337-21.373 0-6.841-2.8338-12.278-8.2692-15.113-15.1099zm15.08 26.4179-1.271-2.2481v-.9999c7.764 2.7462 16.236 2.7462 24 0v.9999l-1.271 2.2284c-1.449 2.5338-3.745 4.473-6.486 5.4749-2.74 1.0017-5.747 1.0017-8.486 0-2.741-1.0017-5.037-2.9409-6.486-5.4749zm10.729 26.8102c1.618 0 3.077.975 3.695 2.47.619 1.494.278 3.214-.866 4.358-1.145 1.145-2.865 1.486-4.359.866-1.495-.617-2.47-2.076-2.47-3.694 0-2.209 1.791-4 4-4zm-114.3448 127.992 20-19.999h2.3446v8h8v-31.998h16v31.998h8v-35.998c0-1.061-.4215-2.079-1.1715-2.828-.75-.75-1.7678-1.172-2.8285-1.172h-4v-15.999h16v55.997h7.9999v-42.446l16 5.332v37.114h8.0003v-39.998c0-1.723-1.102-3.251-2.736-3.796l-5.2645-1.755v-24.575l19.9995-16.671 20 16.663v18.476l-16.867 3.748v-.002c-1.832.407-3.136 2.035-3.132 3.912v43.997h8v-40.797l28-6.219v47.019h8v-27.999h24v27.999h8v-31.998c0-1.061-.422-2.079-1.172-2.829s-1.768-1.171-2.828-1.171h-12v-27.302l20 17.144v46.154h7.999v-27.998l8 6v21.998h8v-7.999h2.161l17.145 19.998z"/><path d="m62.6336 131.356-4.3679-6.699c-17.909 11.599-32.6248 27.502-42.8035 46.25-10.17694 18.753-15.4930445 39.757-15.46058742 61.093h7.99998742c-.02858-20.004 4.9554-39.697 14.5001-57.276 9.5428-17.582 23.3412-32.492 40.132-43.366z"/><path d="m248 232.003h8c.025-21.241-5.247-42.154-15.34-60.846s-24.689-34.571-42.464-46.2l-4.4 6.687c16.666 10.903 30.352 25.789 39.816 43.313 9.464 17.522 14.409 37.13 14.388 57.043z"/></g></svg>