<?xml version="1.0" encoding="UTF-8"?>
<svg width="700pt" height="700pt" version="1.1" viewBox="0 0 700 700" xmlns="http://www.w3.org/2000/svg" xmlns:xlink="http://www.w3.org/1999/xlink">
 <defs>
  <symbol id="d" overflow="visible">
   <path d="m29.312-1.75c-1.5117 0.78125-3.0898 1.3711-4.7344 1.7656-1.6367 0.40625-3.3398 0.60938-5.1094 0.60938-5.3125 0-9.5273-1.4844-12.641-4.4531-3.1055-2.9688-4.6562-7-4.6562-12.094s1.5508-9.125 4.6562-12.094c3.1133-2.9688 7.3281-4.4531 12.641-4.4531 1.7695 0 3.4727 0.19922 5.1094 0.59375 1.6445 0.39844 3.2227 0.99219 4.7344 1.7812v6.5938c-1.5312-1.0391-3.0391-1.8008-4.5156-2.2812-1.4805-0.48828-3.0391-0.73438-4.6719-0.73438-2.9375 0-5.2461 0.94531-6.9219 2.8281-1.6797 1.875-2.5156 4.4648-2.5156 7.7656 0 3.293 0.83594 5.8828 2.5156 7.7656 1.6758 1.875 3.9844 2.8125 6.9219 2.8125 1.6328 0 3.1914-0.23828 4.6719-0.71875 1.4766-0.48828 2.9844-1.2539 4.5156-2.2969z"/>
  </symbol>
  <symbol id="k" overflow="visible">
   <path d="m21.453-17.406c-0.67969-0.3125-1.3516-0.53906-2.0156-0.6875-0.65625-0.15625-1.3203-0.23438-1.9844-0.23438-1.9688 0-3.4844 0.63281-4.5469 1.8906-1.0547 1.2617-1.5781 3.0703-1.5781 5.4219v11.016h-7.6562v-23.922h7.6562v3.9219c0.97656-1.5625 2.1016-2.7031 3.375-3.4219 1.2812-0.71875 2.8125-1.0781 4.5938-1.0781 0.25 0 0.52344 0.011719 0.82812 0.03125 0.30078 0.023438 0.73438 0.070312 1.2969 0.14062z"/>
  </symbol>
  <symbol id="a" overflow="visible">
   <path d="m27.562-12.031v2.1875h-17.891c0.1875 1.793 0.83203 3.1367 1.9375 4.0312 1.1133 0.89844 2.6719 1.3438 4.6719 1.3438 1.6016 0 3.25-0.23438 4.9375-0.70312 1.6875-0.47656 3.4219-1.2031 5.2031-2.1719v5.8906c-1.8047 0.6875-3.6094 1.2031-5.4219 1.5469-1.8125 0.35156-3.6211 0.53125-5.4219 0.53125-4.3359 0-7.7031-1.0977-10.109-3.2969-2.3984-2.207-3.5938-5.2969-3.5938-9.2656 0-3.9062 1.1758-6.9727 3.5312-9.2031 2.3633-2.2383 5.6094-3.3594 9.7344-3.3594 3.7578 0 6.7695 1.1367 9.0312 3.4062 2.2578 2.2617 3.3906 5.2812 3.3906 9.0625zm-7.8594-2.5312c0-1.457-0.42969-2.6289-1.2812-3.5156-0.84375-0.89453-1.9492-1.3438-3.3125-1.3438-1.4922 0-2.6992 0.41797-3.625 1.25-0.91797 0.83594-1.4922 2.0391-1.7188 3.6094z"/>
  </symbol>
  <symbol id="j" overflow="visible">
   <path d="m14.391-10.766c-1.5938 0-2.793 0.27344-3.5938 0.8125-0.80469 0.54297-1.2031 1.3398-1.2031 2.3906 0 0.96875 0.32031 1.7305 0.96875 2.2812 0.64453 0.54297 1.5469 0.8125 2.7031 0.8125 1.4375 0 2.6445-0.51562 3.625-1.5469 0.98828-1.0312 1.4844-2.3203 1.4844-3.875v-0.875zm11.688-2.8906v13.656h-7.7031v-3.5469c-1.0312 1.4492-2.1875 2.5078-3.4688 3.1719s-2.8398 1-4.6719 1c-2.4805 0-4.4961-0.72266-6.0469-2.1719-1.543-1.4453-2.3125-3.3203-2.3125-5.625 0-2.8125 0.96094-4.8672 2.8906-6.1719 1.9375-1.3125 4.9688-1.9688 9.0938-1.9688h4.5156v-0.60938c0-1.207-0.48047-2.0938-1.4375-2.6562-0.94922-0.5625-2.4375-0.84375-4.4688-0.84375-1.6367 0-3.1562 0.16797-4.5625 0.5-1.4062 0.32422-2.7188 0.8125-3.9375 1.4688v-5.8281c1.6445-0.40625 3.2891-0.70703 4.9375-0.90625 1.6562-0.20703 3.3047-0.3125 4.9531-0.3125 4.3203 0 7.4375 0.85547 9.3438 2.5625 1.9141 1.6992 2.875 4.4609 2.875 8.2812z"/>
  </symbol>
  <symbol id="i" overflow="visible">
   <path d="m12.031-30.719v6.7969h7.875v5.4688h-7.875v10.141c0 1.1172 0.21875 1.8711 0.65625 2.2656 0.4375 0.38672 1.3125 0.57812 2.625 0.57812h3.9375v5.4688h-6.5625c-3.0234 0-5.1641-0.62891-6.4219-1.8906-1.2617-1.2578-1.8906-3.3984-1.8906-6.4219v-10.141h-3.7969v-5.4688h3.7969v-6.7969z"/>
  </symbol>
  <symbol id="h" overflow="visible">
   <path d="m19.953-20.422v-12.812h7.6875v33.234h-7.6875v-3.4531c-1.0547 1.4062-2.2148 2.4375-3.4844 3.0938-1.2734 0.65625-2.7422 0.98438-4.4062 0.98438-2.9492 0-5.3711-1.1719-7.2656-3.5156-1.8867-2.3438-2.8281-5.3594-2.8281-9.0469s0.94141-6.7031 2.8281-9.0469c1.8945-2.3438 4.3164-3.5156 7.2656-3.5156 1.6562 0 3.1172 0.33594 4.3906 1 1.2812 0.65625 2.4453 1.6836 3.5 3.0781zm-5.0469 15.484c1.6445 0 2.8945-0.59766 3.75-1.7969 0.86328-1.1953 1.2969-2.9297 1.2969-5.2031 0-2.2812-0.43359-4.0195-1.2969-5.2188-0.85547-1.1953-2.1055-1.7969-3.75-1.7969-1.625 0-2.8711 0.60156-3.7344 1.7969-0.85547 1.1992-1.2812 2.9375-1.2812 5.2188 0 2.2734 0.42578 4.0078 1.2812 5.2031 0.86328 1.1992 2.1094 1.7969 3.7344 1.7969z"/>
  </symbol>
  <symbol id="g" overflow="visible">
   <path d="m16.406-4.9375c1.6328 0 2.8828-0.59766 3.75-1.7969 0.86328-1.1953 1.2969-2.9297 1.2969-5.2031 0-2.2812-0.43359-4.0195-1.2969-5.2188-0.86719-1.1953-2.1172-1.7969-3.75-1.7969-1.6367 0-2.8906 0.60547-3.7656 1.8125-0.875 1.1992-1.3125 2.9336-1.3125 5.2031 0 2.2617 0.4375 3.9961 1.3125 5.2031 0.875 1.1992 2.1289 1.7969 3.7656 1.7969zm-5.0781-15.484c1.0508-1.3945 2.2188-2.4219 3.5-3.0781 1.2812-0.66406 2.7539-1 4.4219-1 2.9453 0 5.3672 1.1719 7.2656 3.5156 1.8945 2.3438 2.8438 5.3594 2.8438 9.0469s-0.94922 6.7031-2.8438 9.0469c-1.8984 2.3438-4.3203 3.5156-7.2656 3.5156-1.668 0-3.1406-0.33594-4.4219-1s-2.4492-1.6914-3.5-3.0781v3.4531h-7.6562v-33.234h7.6562z"/>
  </symbol>
  <symbol id="f" overflow="visible">
   <path d="m0.53125-23.922h7.6562l6.4219 16.234 5.4688-16.234h7.6562l-10.062 26.188c-1.0117 2.6641-2.1953 4.5234-3.5469 5.5781-1.3438 1.0625-3.1211 1.5938-5.3281 1.5938h-4.4219v-5.0156h2.3906c1.3008 0 2.2422-0.21094 2.8281-0.625 0.59375-0.40625 1.0547-1.1484 1.3906-2.2188l0.20312-0.65625z"/>
  </symbol>
  <symbol id="e" overflow="visible">
   <path d="m0.21875-31.891h8.2656l8.4531 23.531 8.4375-23.531h8.2656l-11.812 31.891h-9.7969z"/>
  </symbol>
  <symbol id="p" overflow="visible">
   <path d="m4.0156-31.891h8.2188v31.891h-8.2188z"/>
  </symbol>
  <symbol id="c" overflow="visible">
   <path d="m4.0156-31.891h9.1875l11.594 21.875v-21.875h7.7969v31.891h-9.1875l-11.594-21.875v21.875h-7.7969z"/>
  </symbol>
  <symbol id="o" overflow="visible">
   <path d="m2.4531-31.891h26.812v4.9688l-17.109 20.703h17.594v6.2188h-27.781v-4.9844l17.109-20.688h-16.625z"/>
  </symbol>
  <symbol id="b" overflow="visible">
   <path d="m4.0156-31.891h22.203v6.2188h-13.984v5.9375h13.141v6.2188h-13.141v7.2969h14.453v6.2188h-22.672z"/>
  </symbol>
  <symbol id="n" overflow="visible">
   <path d="m26.219-30.891v6.75c-1.7617-0.78125-3.4766-1.3672-5.1406-1.7656-1.668-0.40625-3.2422-0.60938-4.7188-0.60938-1.9609 0-3.4141 0.27344-4.3594 0.8125-0.9375 0.54297-1.4062 1.3867-1.4062 2.5312 0 0.85547 0.31641 1.5234 0.95312 2 0.63281 0.46875 1.7852 0.875 3.4531 1.2188l3.5 0.70312c3.5391 0.71875 6.0625 1.8047 7.5625 3.25 1.5 1.4492 2.25 3.5117 2.25 6.1875 0 3.5234-1.0469 6.1406-3.1406 7.8594-2.0859 1.7188-5.2734 2.5781-9.5625 2.5781-2.0234 0-4.0547-0.19531-6.0938-0.57812-2.0312-0.38281-4.0625-0.95703-6.0938-1.7188v-6.9375c2.0312 1.0859 3.9922 1.9023 5.8906 2.4531 1.9062 0.54297 3.7422 0.8125 5.5156 0.8125 1.7891 0 3.1602-0.29688 4.1094-0.89062 0.95703-0.60156 1.4375-1.457 1.4375-2.5625 0-1-0.32422-1.7695-0.96875-2.3125-0.64844-0.53906-1.9375-1.0234-3.875-1.4531l-3.1875-0.70312c-3.1875-0.6875-5.5234-1.7734-7-3.2656-1.4688-1.5-2.2031-3.5156-2.2031-6.0469 0-3.1758 1.0234-5.6172 3.0781-7.3281 2.0508-1.707 5-2.5625 8.8438-2.5625 1.75 0 3.5508 0.13281 5.4062 0.39062 1.8516 0.26172 3.7695 0.65625 5.75 1.1875z"/>
  </symbol>
  <symbol id="m" overflow="visible">
   <path d="m0.21875-31.891h29.391v6.2188h-10.578v25.672h-8.2188v-25.672h-10.594z"/>
  </symbol>
  <symbol id="l" overflow="visible">
   <path d="m4.0156-31.891h8.2188v19.109c0 2.6367 0.42969 4.5234 1.2969 5.6562 0.86328 1.1367 2.2695 1.7031 4.2188 1.7031 1.9688 0 3.3789-0.56641 4.2344-1.7031 0.86328-1.1328 1.2969-3.0195 1.2969-5.6562v-19.109h8.2344v19.109c0 4.5234-1.1367 7.8867-3.4062 10.094-2.2617 2.2109-5.7148 3.3125-10.359 3.3125-4.625 0-8.0742-1.1016-10.344-3.3125-2.2617-2.207-3.3906-5.5703-3.3906-10.094z"/>
  </symbol>
 </defs>
 <g>
  <path d="m575.39 484.3c-1.6602-1.9375-4.0859-3.0547-6.6406-3.0547h-8.75v-17.5c0-2.7539-1.2969-5.3477-3.5-7l-31.5-23.625v-21.875c-0.003906-2.5547-1.1211-4.9805-3.0625-6.6406l-61.25-52.5c-2.5938-2.2188-6.2422-2.7266-9.3438-1.3008-3.1016 1.4258-5.0898 4.5273-5.0938 7.9414v78.75h-17.5v-35c0-2.6523-1.207-5.1641-3.2773-6.8242-2.0703-1.6602-4.7812-2.293-7.3711-1.7148l-24.352 5.4062v-40.617c0-2.5938-1.1484-5.0547-3.1406-6.7188l-31.859-26.531v-29.609c6.8633-2.3906 12.418-7.5352 15.328-14.195 2.9062-6.6602 2.9062-14.23 0-20.891-2.9102-6.6602-8.4648-11.805-15.328-14.195v-12.625c12.562-2.4219 23.441-10.203 29.793-21.309 8.125 4.3047 15.742 9.5117 22.707 15.516v51.809h-8.75c-4.832 0-8.75 3.918-8.75 8.75v35h17.5v-26.25h52.5v26.25h17.5v-35c0-2.3203-0.92188-4.5469-2.5625-6.1875s-3.8672-2.5625-6.1875-2.5625h-8.75v-12.152c-0.035156-28.102-9.5977-55.355-27.125-77.316-3.7773-4.7305-10.133-6.5547-15.844-4.5508-5.7109 2.0039-9.5352 7.3945-9.5312 13.449v6.6406c-5.582-3.832-11.43-7.2617-17.5-10.262v-7.875c14.285-9.5195 25.059-23.461 30.668-39.684 0.96094 0.13281 1.9258 0.22656 2.8789 0.36719 0.42188 0.078124 0.84766 0.125 1.2773 0.13281 3.168 0.003906 6.0898-1.707 7.6406-4.4727 13.387-24.473 13.387-54.082 0-78.555-1.7773-3.168-5.3242-4.9102-8.918-4.375l-0.47266 0.0625v-0.003906c-5.2773-23.43-20.961-43.172-42.59-53.613-21.629-10.441-46.84-10.441-68.469 0-21.629 10.441-37.312 30.184-42.59 53.613l-0.47266-0.0625v0.003906c-3.5938-0.53516-7.1406 1.207-8.918 4.375-13.387 24.473-13.387 54.082 0 78.555 1.7773 3.168 5.3242 4.9102 8.918 4.375 0.95312-0.14062 1.918-0.23438 2.8789-0.36719 5.6094 16.223 16.383 30.164 30.668 39.684v7.875c-6.0703 3-11.918 6.4297-17.5 10.262v-6.6406c0.007812-6.0547-3.8125-11.453-9.5273-13.457-5.7109-2.0078-12.07-0.17969-15.848 4.5508-17.523 21.953-27.086 49.199-27.125 77.289v12.152h-8.75c-4.832 0-8.75 3.918-8.75 8.75v35h17.5v-26.25h52.5v26.25h17.5v-35c0-2.3203-0.92188-4.5469-2.5625-6.1875s-3.8672-2.5625-6.1875-2.5625h-8.75v-51.809c6.9766-6.0078 14.609-11.211 22.75-15.516 6.3438 11.094 17.203 18.875 29.75 21.309v12.625c-6.8633 2.3906-12.418 7.5352-15.328 14.195-2.9062 6.6602-2.9062 14.23 0 20.891 2.9102 6.6602 8.4648 11.805 15.328 14.195v15.008l-3.1406-2.625v-0.003907c-3.2461-2.7109-7.9727-2.7109-11.219 0l-52.5 43.75c-1.9922 1.668-3.1445 4.1328-3.1406 6.7305v52.027l-17.5-5.8359v-19.941c0-2.3203-0.92188-4.5469-2.5625-6.1875s-3.8672-2.5625-6.1875-2.5625h-52.5c-4.832 0-8.75 3.918-8.75 8.75v43.75h-26.25c-4.832 0-8.75 3.918-8.75 8.75v43.75h-8.75c-2.3203 0-4.5469 0.92188-6.1875 2.5625l-61.25 61.25c-2.5 2.5039-3.25 6.2656-1.8945 9.5352 1.3555 3.2695 4.543 5.4023 8.082 5.4023h542.5c3.418 0 6.5234-1.9883 7.9492-5.0938s0.91797-6.7578-1.3086-9.3516zm-146.64-274.86c11.391 17.352 17.473 37.648 17.5 58.406v12.152h-17.5zm-175 70.559v-12.152c0.027344-20.758 6.1094-41.055 17.5-58.406v70.559zm139.02-245h-30.398l-6.1875-6.1875h0.003906c-3.418-3.4141-8.957-3.4141-12.375 0l-6.1836 6.1875h-30.398c11.41-11.215 26.77-17.5 42.77-17.5s31.359 6.2852 42.77 17.5zm-98.07 17.5h46.551c2.3203 0 4.5469-0.92188 6.1875-2.5625l2.5625-2.5664 2.5625 2.5625v0.003906c1.6406 1.6406 3.8672 2.5625 6.1875 2.5625h46.551c1.707 3.582 3.0586 7.3242 4.0312 11.172-39.426 4.4805-79.238 4.4805-118.66 0 0.97266-3.8477 2.3242-7.5898 4.0312-11.172zm-18.27 27.055c48.82 6.668 98.32 6.668 147.14 0 6.9727 16.246 6.9727 34.645 0 50.891-48.82-6.6719-98.32-6.6719-147.14 0-6.9727-16.246-6.9727-34.645 0-50.891zm17.113 66.5h0.003906c37.516-4.0469 75.355-4.0469 112.88 0-6.2031 14.965-18.098 26.855-33.062 33.055-14.969 6.1992-31.785 6.1992-46.754 0-14.965-6.1992-26.859-18.09-33.059-33.055zm32.988 57.793-2.7812-4.918v-2.1875c16.984 6.0078 35.516 6.0078 52.5 0v2.1875l-2.7812 4.875c-3.168 5.543-8.1914 9.7852-14.188 11.977-5.9922 2.1914-12.57 2.1914-18.562 0-5.9961-2.1914-11.02-6.4336-14.188-11.977zm23.469 58.652c3.5391 0 6.7305 2.1328 8.082 5.4023 1.3555 3.2695 0.60938 7.0312-1.8945 9.5352s-6.2656 3.25-9.5352 1.8945c-3.2695-1.3516-5.4023-4.543-5.4023-8.082 0-4.832 3.918-8.75 8.75-8.75zm-250.13 280 43.75-43.75h5.1289v17.5h17.5v-70h35v70h17.5v-78.75c0-2.3203-0.92188-4.5469-2.5625-6.1875s-3.8672-2.5625-6.1875-2.5625h-8.75v-35h35v122.5h17.5v-92.855l35 11.664v81.191h17.5v-87.5c0-3.7695-2.4102-7.1133-5.9844-8.3047l-11.516-3.8398v-53.762l43.75-36.469 43.75 36.453v40.418l-36.898 8.1992v-0.003906c-4.0078 0.89062-6.8594 4.4531-6.8516 8.5586v96.25h17.5v-89.25l61.25-13.605v102.86h17.5v-61.25h52.5v61.25h17.5v-70c0-2.3203-0.92188-4.5469-2.5625-6.1875s-3.8672-2.5625-6.1875-2.5625h-26.25v-59.727l43.75 37.504v100.97h17.5v-61.25l17.5 13.125v48.125h17.5v-17.5h4.7266l37.504 43.75z"/>
  <path d="m207.01 287.32-9.5547-14.656c-39.176 25.375-71.367 60.164-93.633 101.18-22.262 41.023-33.891 86.973-33.82 133.65h17.5c-0.0625-43.762 10.84-86.844 31.719-125.3 20.875-38.465 51.059-71.082 87.789-94.871z"/>
  <path d="m612.5 507.5h17.5c0.054688-46.469-11.477-92.219-33.555-133.11-22.078-40.891-54.008-75.629-92.891-101.07l-9.625 14.629c36.457 23.852 66.395 56.418 87.098 94.754 20.703 38.332 31.52 81.227 31.473 124.79z"/>
  <use x="70" y="691.25" xlink:href="#d"/>
  <use x="102.109375" y="691.25" xlink:href="#k"/>
  <use x="123.683594" y="691.25" xlink:href="#a"/>
  <use x="153.355469" y="691.25" xlink:href="#j"/>
  <use x="182.878906" y="691.25" xlink:href="#i"/>
  <use x="203.792969" y="691.25" xlink:href="#a"/>
  <use x="233.464844" y="691.25" xlink:href="#h"/>
  <use x="280.011719" y="691.25" xlink:href="#g"/>
  <use x="311.328125" y="691.25" xlink:href="#f"/>
  <use x="355.078125" y="691.25" xlink:href="#e"/>
  <use x="388.9375" y="691.25" xlink:href="#p"/>
  <use x="405.21875" y="691.25" xlink:href="#c"/>
  <use x="441.832031" y="691.25" xlink:href="#o"/>
  <use x="473.554688" y="691.25" xlink:href="#b"/>
  <use x="503.441406" y="691.25" xlink:href="#c"/>
  <use x="540.054688" y="691.25" xlink:href="#d"/>
  <use x="572.164062" y="691.25" xlink:href="#b"/>
  <use x="617.28125" y="691.25" xlink:href="#n"/>
  <use x="648.789062" y="691.25" xlink:href="#m"/>
  <use x="678.632812" y="691.25" xlink:href="#l"/>
 </g>
</svg>
