<?xml version="1.0" encoding="UTF-8"?>
<svg width="700pt" height="700pt" version="1.1" viewBox="0 0 700 700" xmlns="http://www.w3.org/2000/svg" xmlns:xlink="http://www.w3.org/1999/xlink">
 <defs>
  <symbol id="d" overflow="visible">
   <path d="m29.312-1.75c-1.5117 0.78125-3.0898 1.3711-4.7344 1.7656-1.6367 0.40625-3.3398 0.60938-5.1094 0.60938-5.3125 0-9.5273-1.4844-12.641-4.4531-3.1055-2.9688-4.6562-7-4.6562-12.094s1.5508-9.125 4.6562-12.094c3.1133-2.9688 7.3281-4.4531 12.641-4.4531 1.7695 0 3.4727 0.19922 5.1094 0.59375 1.6445 0.39844 3.2227 0.99219 4.7344 1.7812v6.5938c-1.5312-1.0391-3.0391-1.8008-4.5156-2.2812-1.4805-0.48828-3.0391-0.73438-4.6719-0.73438-2.9375 0-5.2461 0.94531-6.9219 2.8281-1.6797 1.875-2.5156 4.4648-2.5156 7.7656 0 3.293 0.83594 5.8828 2.5156 7.7656 1.6758 1.875 3.9844 2.8125 6.9219 2.8125 1.6328 0 3.1914-0.23828 4.6719-0.71875 1.4766-0.48828 2.9844-1.2539 4.5156-2.2969z"/>
  </symbol>
  <symbol id="k" overflow="visible">
   <path d="m21.453-17.406c-0.67969-0.3125-1.3516-0.53906-2.0156-0.6875-0.65625-0.15625-1.3203-0.23438-1.9844-0.23438-1.9688 0-3.4844 0.63281-4.5469 1.8906-1.0547 1.2617-1.5781 3.0703-1.5781 5.4219v11.016h-7.6562v-23.922h7.6562v3.9219c0.97656-1.5625 2.1016-2.7031 3.375-3.4219 1.2812-0.71875 2.8125-1.0781 4.5938-1.0781 0.25 0 0.52344 0.011719 0.82812 0.03125 0.30078 0.023438 0.73438 0.070312 1.2969 0.14062z"/>
  </symbol>
  <symbol id="a" overflow="visible">
   <path d="m27.562-12.031v2.1875h-17.891c0.1875 1.793 0.83203 3.1367 1.9375 4.0312 1.1133 0.89844 2.6719 1.3438 4.6719 1.3438 1.6016 0 3.25-0.23438 4.9375-0.70312 1.6875-0.47656 3.4219-1.2031 5.2031-2.1719v5.8906c-1.8047 0.6875-3.6094 1.2031-5.4219 1.5469-1.8125 0.35156-3.6211 0.53125-5.4219 0.53125-4.3359 0-7.7031-1.0977-10.109-3.2969-2.3984-2.207-3.5938-5.2969-3.5938-9.2656 0-3.9062 1.1758-6.9727 3.5312-9.2031 2.3633-2.2383 5.6094-3.3594 9.7344-3.3594 3.7578 0 6.7695 1.1367 9.0312 3.4062 2.2578 2.2617 3.3906 5.2812 3.3906 9.0625zm-7.8594-2.5312c0-1.457-0.42969-2.6289-1.2812-3.5156-0.84375-0.89453-1.9492-1.3438-3.3125-1.3438-1.4922 0-2.6992 0.41797-3.625 1.25-0.91797 0.83594-1.4922 2.0391-1.7188 3.6094z"/>
  </symbol>
  <symbol id="j" overflow="visible">
   <path d="m14.391-10.766c-1.5938 0-2.793 0.27344-3.5938 0.8125-0.80469 0.54297-1.2031 1.3398-1.2031 2.3906 0 0.96875 0.32031 1.7305 0.96875 2.2812 0.64453 0.54297 1.5469 0.8125 2.7031 0.8125 1.4375 0 2.6445-0.51562 3.625-1.5469 0.98828-1.0312 1.4844-2.3203 1.4844-3.875v-0.875zm11.688-2.8906v13.656h-7.7031v-3.5469c-1.0312 1.4492-2.1875 2.5078-3.4688 3.1719s-2.8398 1-4.6719 1c-2.4805 0-4.4961-0.72266-6.0469-2.1719-1.543-1.4453-2.3125-3.3203-2.3125-5.625 0-2.8125 0.96094-4.8672 2.8906-6.1719 1.9375-1.3125 4.9688-1.9688 9.0938-1.9688h4.5156v-0.60938c0-1.207-0.48047-2.0938-1.4375-2.6562-0.94922-0.5625-2.4375-0.84375-4.4688-0.84375-1.6367 0-3.1562 0.16797-4.5625 0.5-1.4062 0.32422-2.7188 0.8125-3.9375 1.4688v-5.8281c1.6445-0.40625 3.2891-0.70703 4.9375-0.90625 1.6562-0.20703 3.3047-0.3125 4.9531-0.3125 4.3203 0 7.4375 0.85547 9.3438 2.5625 1.9141 1.6992 2.875 4.4609 2.875 8.2812z"/>
  </symbol>
  <symbol id="i" overflow="visible">
   <path d="m12.031-30.719v6.7969h7.875v5.4688h-7.875v10.141c0 1.1172 0.21875 1.8711 0.65625 2.2656 0.4375 0.38672 1.3125 0.57812 2.625 0.57812h3.9375v5.4688h-6.5625c-3.0234 0-5.1641-0.62891-6.4219-1.8906-1.2617-1.2578-1.8906-3.3984-1.8906-6.4219v-10.141h-3.7969v-5.4688h3.7969v-6.7969z"/>
  </symbol>
  <symbol id="h" overflow="visible">
   <path d="m19.953-20.422v-12.812h7.6875v33.234h-7.6875v-3.4531c-1.0547 1.4062-2.2148 2.4375-3.4844 3.0938-1.2734 0.65625-2.7422 0.98438-4.4062 0.98438-2.9492 0-5.3711-1.1719-7.2656-3.5156-1.8867-2.3438-2.8281-5.3594-2.8281-9.0469s0.94141-6.7031 2.8281-9.0469c1.8945-2.3438 4.3164-3.5156 7.2656-3.5156 1.6562 0 3.1172 0.33594 4.3906 1 1.2812 0.65625 2.4453 1.6836 3.5 3.0781zm-5.0469 15.484c1.6445 0 2.8945-0.59766 3.75-1.7969 0.86328-1.1953 1.2969-2.9297 1.2969-5.2031 0-2.2812-0.43359-4.0195-1.2969-5.2188-0.85547-1.1953-2.1055-1.7969-3.75-1.7969-1.625 0-2.8711 0.60156-3.7344 1.7969-0.85547 1.1992-1.2812 2.9375-1.2812 5.2188 0 2.2734 0.42578 4.0078 1.2812 5.2031 0.86328 1.1992 2.1094 1.7969 3.7344 1.7969z"/>
  </symbol>
  <symbol id="g" overflow="visible">
   <path d="m16.406-4.9375c1.6328 0 2.8828-0.59766 3.75-1.7969 0.86328-1.1953 1.2969-2.9297 1.2969-5.2031 0-2.2812-0.43359-4.0195-1.2969-5.2188-0.86719-1.1953-2.1172-1.7969-3.75-1.7969-1.6367 0-2.8906 0.60547-3.7656 1.8125-0.875 1.1992-1.3125 2.9336-1.3125 5.2031 0 2.2617 0.4375 3.9961 1.3125 5.2031 0.875 1.1992 2.1289 1.7969 3.7656 1.7969zm-5.0781-15.484c1.0508-1.3945 2.2188-2.4219 3.5-3.0781 1.2812-0.66406 2.7539-1 4.4219-1 2.9453 0 5.3672 1.1719 7.2656 3.5156 1.8945 2.3438 2.8438 5.3594 2.8438 9.0469s-0.94922 6.7031-2.8438 9.0469c-1.8984 2.3438-4.3203 3.5156-7.2656 3.5156-1.668 0-3.1406-0.33594-4.4219-1s-2.4492-1.6914-3.5-3.0781v3.4531h-7.6562v-33.234h7.6562z"/>
  </symbol>
  <symbol id="f" overflow="visible">
   <path d="m0.53125-23.922h7.6562l6.4219 16.234 5.4688-16.234h7.6562l-10.062 26.188c-1.0117 2.6641-2.1953 4.5234-3.5469 5.5781-1.3438 1.0625-3.1211 1.5938-5.3281 1.5938h-4.4219v-5.0156h2.3906c1.3008 0 2.2422-0.21094 2.8281-0.625 0.59375-0.40625 1.0547-1.1484 1.3906-2.2188l0.20312-0.65625z"/>
  </symbol>
  <symbol id="e" overflow="visible">
   <path d="m0.21875-31.891h8.2656l8.4531 23.531 8.4375-23.531h8.2656l-11.812 31.891h-9.7969z"/>
  </symbol>
  <symbol id="p" overflow="visible">
   <path d="m4.0156-31.891h8.2188v31.891h-8.2188z"/>
  </symbol>
  <symbol id="c" overflow="visible">
   <path d="m4.0156-31.891h9.1875l11.594 21.875v-21.875h7.7969v31.891h-9.1875l-11.594-21.875v21.875h-7.7969z"/>
  </symbol>
  <symbol id="o" overflow="visible">
   <path d="m2.4531-31.891h26.812v4.9688l-17.109 20.703h17.594v6.2188h-27.781v-4.9844l17.109-20.688h-16.625z"/>
  </symbol>
  <symbol id="b" overflow="visible">
   <path d="m4.0156-31.891h22.203v6.2188h-13.984v5.9375h13.141v6.2188h-13.141v7.2969h14.453v6.2188h-22.672z"/>
  </symbol>
  <symbol id="n" overflow="visible">
   <path d="m26.219-30.891v6.75c-1.7617-0.78125-3.4766-1.3672-5.1406-1.7656-1.668-0.40625-3.2422-0.60938-4.7188-0.60938-1.9609 0-3.4141 0.27344-4.3594 0.8125-0.9375 0.54297-1.4062 1.3867-1.4062 2.5312 0 0.85547 0.31641 1.5234 0.95312 2 0.63281 0.46875 1.7852 0.875 3.4531 1.2188l3.5 0.70312c3.5391 0.71875 6.0625 1.8047 7.5625 3.25 1.5 1.4492 2.25 3.5117 2.25 6.1875 0 3.5234-1.0469 6.1406-3.1406 7.8594-2.0859 1.7188-5.2734 2.5781-9.5625 2.5781-2.0234 0-4.0547-0.19531-6.0938-0.57812-2.0312-0.38281-4.0625-0.95703-6.0938-1.7188v-6.9375c2.0312 1.0859 3.9922 1.9023 5.8906 2.4531 1.9062 0.54297 3.7422 0.8125 5.5156 0.8125 1.7891 0 3.1602-0.29688 4.1094-0.89062 0.95703-0.60156 1.4375-1.457 1.4375-2.5625 0-1-0.32422-1.7695-0.96875-2.3125-0.64844-0.53906-1.9375-1.0234-3.875-1.4531l-3.1875-0.70312c-3.1875-0.6875-5.5234-1.7734-7-3.2656-1.4688-1.5-2.2031-3.5156-2.2031-6.0469 0-3.1758 1.0234-5.6172 3.0781-7.3281 2.0508-1.707 5-2.5625 8.8438-2.5625 1.75 0 3.5508 0.13281 5.4062 0.39062 1.8516 0.26172 3.7695 0.65625 5.75 1.1875z"/>
  </symbol>
  <symbol id="m" overflow="visible">
   <path d="m0.21875-31.891h29.391v6.2188h-10.578v25.672h-8.2188v-25.672h-10.594z"/>
  </symbol>
  <symbol id="l" overflow="visible">
   <path d="m4.0156-31.891h8.2188v19.109c0 2.6367 0.42969 4.5234 1.2969 5.6562 0.86328 1.1367 2.2695 1.7031 4.2188 1.7031 1.9688 0 3.3789-0.56641 4.2344-1.7031 0.86328-1.1328 1.2969-3.0195 1.2969-5.6562v-19.109h8.2344v19.109c0 4.5234-1.1367 7.8867-3.4062 10.094-2.2617 2.2109-5.7148 3.3125-10.359 3.3125-4.625 0-8.0742-1.1016-10.344-3.3125-2.2617-2.207-3.3906-5.5703-3.3906-10.094z"/>
  </symbol>
 </defs>
 <g>
  <path d="m223.61 526.47-2.2305-1.4688h14.875c2.3203 0 4.5469-0.92188 6.1875-2.5625l8.75-8.75c2.6641-2.6641 3.3242-6.7305 1.6445-10.098l-0.48828-0.98047 12.922-4.3047c1.2852-0.43359 2.457-1.1602 3.4219-2.1172l7.7422-7.7422v-0.003906c12.32-2.25 22.629-10.652 27.316-22.27 1.1641-2.5352 2.1016-5.1719 2.8008-7.875l32.141-32.141v0.003906c1.6328-1.6328 2.5547-3.8477 2.5625-6.1602v-8.75h26.25c2.7539 0 5.3477-1.2969 7-3.5l26.25-35-0.0625-0.042969c1.1562-1.4922 1.793-3.3203 1.8125-5.207v-17.5c0-4.1602-2.9258-7.7422-7-8.5742l-0.52344-0.10547 0.19922-0.070312 1.3398-0.44531c3.5742-1.1914 5.9844-4.5352 5.9844-8.3047v-26.25c0-2.3203-0.92188-4.5469-2.5625-6.1875s-3.8672-2.5625-6.1875-2.5625h-16.758c5.0977-3.2852 9.8555-7.0781 14.195-11.312 3.4141-3.418 3.4141-8.957 0-12.375l-17.5-17.5c-2.1758-2.1719-5.332-3.0469-8.3125-2.3008l-45.719 11.426v0.003906c4.5234-7.3984 8.2734-15.242 11.191-23.406l7.7266-5.1523v-0.003906c11.609-7.7656 21.055-18.355 27.457-30.773l10.867-16.309c3.6289-5.3672 4.3281-12.195 1.8555-18.188-2.4727-5.9883-7.7852-10.336-14.145-11.578-6.3633-1.2383-12.918 0.79297-17.461 5.4141l-20.43 20.43-34.469 25.875v0.050781c-1.1016 0.79688-2 1.8359-2.625 3.0391-5.5898 11.172-12.168 21.82-19.66 31.812l-14.133 18.848-5.7031 5.75h-5.1289c-3.3164 0-6.3477 1.8711-7.832 4.8398l-8.2148 16.441-17.902 19.895-3.6133-3.6133c-1.5898-1.5547-3.7188-2.4336-5.9414-2.457l1.5312-6.125c4.793-19.148 4.0234-39.266-2.2227-57.988-0.73438-2.1992-2.3125-4.0234-4.3867-5.0625-2.0781-1.0391-4.4805-1.207-6.6836-0.47656l-26.25 8.75c-2.6133 0.87109-4.668 2.9258-5.5391 5.5391l-4.8203 14.5c-2.1523 6.4297-5.7656 12.27-10.551 17.07-3.418 3.418-3.418 8.957 0 12.375l15.008 15.008c0 0.22656-0.070312 0.44531-0.070312 0.68359v20.422l-4.5078 2.7031v-0.003906c-2.6367 1.582-4.25 4.4258-4.2539 7.5v43.75h0.097656c-0.03125 1.3516 0.25 2.6875 0.82031 3.9102l7.1328 14.262-6.457 19.371-14.254 7.1211v0.003907c-1.3633 0.6875-2.5234 1.7109-3.3711 2.9766l-17.5 26.25c-1.3945 2.0898-1.8242 4.6758-1.1797 7.1016 0.64453 2.4297 2.3008 4.4648 4.5508 5.5859l8.6367 4.3125-9.4062 14.105h-4.0703c-2.9258 0-5.6562 1.4609-7.2812 3.8945l-35 52.5c-1.7891 2.6836-1.957 6.1367-0.43359 8.9844 1.5195 2.8438 4.4883 4.6211 7.7148 4.6211h131.25c3.3164 0 6.3477-1.8711 7.832-4.8398l8.75-17.5c1.9727-3.9453 0.69531-8.7422-2.9766-11.191zm21.395-39.863v-5.3555c0-1.3555-0.3125-2.6953-0.91797-3.9102l-8.75-17.5c-0.74609-1.4883-1.8984-2.7344-3.3242-3.5898l-43.75-26.25c-0.55469-0.33203-1.1406-0.60156-1.75-0.80469l-17.945-5.9766 3.9961-11.969h9.125l33.059 16.527 0.097656 0.050781v0.003906c1.2148 0.60547 2.5547 0.91797 3.9102 0.91797h5.1289l3.6211 3.6211v5.1289c-0.019531 3.332 1.8594 6.3867 4.8398 7.875l17.5 8.75c0.89062 0.4375 1.8477 0.71875 2.832 0.83203-0.85938 4.2461-1.0039 8.6094-0.42578 12.906 0.70703 5.1016 2.9062 9.8828 6.3242 13.738l-0.79687 0.79688zm42.918-27.879c-4.4805 9.5195-12.25 13.578-15.375 12.109h0.003906c-1.8125-1.3047-2.918-3.375-2.9961-5.6055-0.5-4.8008 0.37891-9.6406 2.5312-13.957 2.2227-6.2188 7.4492-10.887 13.875-12.398 0.51562-0.011719 1.0273 0.085938 1.4961 0.28906 1.8125 1.3047 2.918 3.375 2.9961 5.6055 0.5 4.8008-0.37891 9.6406-2.5312 13.957zm35.832-56.227v13.879l-18.289 18.277c-2.0391-4.9336-5.8008-8.957-10.586-11.324-10.91-5.1445-24.246 0.11328-33.32 11.934l-1.207 0.30469-5.6094 1.3984-9.7383-4.875v-3.3438c0-2.3203-0.92188-4.5469-2.5625-6.1875l-8.75-8.75c-0.8125-0.80859-1.7734-1.4531-2.8359-1.8906-0.28125-0.12109-0.61328-0.097656-0.875-0.19141-0.78516-0.26953-1.6055-0.43359-2.4336-0.48047h-6.7969l-33.082-16.547h-0.003906c-1.2109-0.61719-2.5508-0.94531-3.9102-0.95312h-12.094l-3.668-7.3242 12.652-14.051h0.003906c21.098 5.5547 41.34 13.965 60.164 24.996l12.809 7.6914c1.3633 0.81641 2.9219 1.25 4.5078 1.2539h35c2.3203 0 4.5469-0.92578 6.1875-2.5664l21.176-21.184 11.742 7.832-5.9141 5.9141h-0.003906c-1.6406 1.6406-2.5625 3.8672-2.5625 6.1875zm61.25-40.504c-6.6602 2.9023-13.758 4.6758-21 5.25l-6.125-12.406c-0.42578-0.83984-0.98047-1.6094-1.6445-2.2773l-1.4453-1.4453 30.215 6.0586zm-21.875 31.754h-9.5039l8.9766-8.9766c2.625-0.12109 5.1992-0.32422 7.7773-0.69141zm21.875-67.637c-11.414 3.3867-23.184 5.4219-35.07 6.0703-0.035157-1.2461-0.33594-2.4688-0.875-3.5938l-6.7734-13.59h42.719zm-12.75-46.48c-8.9883 7.0664-19.52 11.914-30.738 14.141l-9.293 1.8633c-0.57031-2.7539-2.4414-5.0586-5.0195-6.1797l-11.586-4.9688 49.203-12.301zm-43.383-57.312-5.1172 3.4297-11.105-7.4023 21.438-16.082 11.551 3.8594c-4.5625 6.3672-10.242 11.855-16.766 16.195zm32.777-44.844c0.46875 0.22656 0.8125 0.64844 0.9375 1.1562 0.14062 0.5 0.050781 1.0391-0.24609 1.4688l-7.1562 10.734-6.4844-2.1602 10.859-10.859c0.55078-0.55078 1.3945-0.6875 2.0898-0.33984zm-60.934 53.926 12.453 8.3047c-5.1758 12.699-12.695 24.316-22.164 34.238l-14.824-6.3516 7.832-10.438v-0.003906c6.1445-8.1953 11.727-16.797 16.703-25.75zm-57.961 71.953c0.52734-0.58984 0.97656-1.2422 1.332-1.9453l6.3242-12.66h3.3438c2.3203 0 4.5469-0.92188 6.1875-2.5625l4.5664-4.5586 50.496 21.637v2.9844c0 2.3203 0.92188 4.5469 2.5625 6.1875l7.7422 7.7422 7.1953 14.387v15.434c0 2.3203 0.92188 4.5469 2.5625 6.1875l7.7422 7.7422 5.293 10.598-3.2539 3.2539-20.613-13.781c-3.4688-2.3125-8.0938-1.8555-11.043 1.0938l-23.688 23.688h-28.953l-10.734-6.4062c-17.695-10.363-36.586-18.543-56.254-24.352zm-76.5 58.844v-15.996l31.289-18.77zm3.5-91.168 3.457-10.359 13.379-4.4609v-0.003907c2.4609 11.191 2.6602 22.762 0.58594 34.031-3.5117-1.3906-7.332-1.8164-11.066-1.2383-3.7305 0.57812-7.2422 2.1406-10.172 4.5273l-5.25-5.25c3.9219-5.2305 6.9805-11.051 9.0664-17.246zm5.25 39.594c0-2.418 1.957-4.375 4.375-4.375s4.375 1.957 4.375 4.375v4.6719l-8.75 5.25zm-29.008 133.66 12.172-6.125 21.875 7.2969 40.738 24.449 6.7227 13.406v6.6836c0 1.3555 0.3125 2.6953 0.91797 3.9102l5.9336 11.863-1.75 1.75-5.1016 0.003906c0-0.21875-0.12109-0.42188-0.14062-0.64062-0.066406-0.83984-0.25391-1.668-0.55859-2.457-0.10938-0.32422-0.23438-0.64453-0.37891-0.95313-0.53516-1.0703-1.2852-2.0156-2.2031-2.7852l-43.75-35c-1.5508-1.25-3.4766-1.9336-5.4688-1.9414h-32.934l-6.7891-3.3945zm-1.3125 36.961h27.246l35.875 28.664-1.2148 2.4219-1.0312 2.0664-34.406-22.941c-1.4531-0.96094-3.1562-1.4688-4.8984-1.4609h-27.395zm-14.574 61.25 5.8281-8.75h18.941l13.125 8.75zm74.488 0h-12.25c0-0.29688 0.13281-0.57031 0.10547-0.875-0.26172-2.6055-1.6719-4.9609-3.8516-6.4141l-26.25-17.5c-1.4375-0.94922-3.125-1.4609-4.8477-1.4609h-26.25c-2.9258 0-5.6562 1.4609-7.2812 3.8945l-14.898 22.355h-14l23.328-35h45.227l40.453 26.969 3.4141 2.2734z"/>
  <path d="m78.75 166.25h64.594l15.078 30.16h-0.003906c1.4805 2.9727 4.5156 4.8477 7.832 4.8477s6.3516-1.875 7.832-4.8477l15.074-30.16h64.594c2.3203 0 4.5469-0.92188 6.1875-2.5625s2.5625-3.8672 2.5625-6.1875v-105c0-2.3203-0.92188-4.5469-2.5625-6.1875s-3.8672-2.5625-6.1875-2.5625h-175c-4.832 0-8.75 3.918-8.75 8.75v105c0 2.3203 0.92188 4.5469 2.5625 6.1875s3.8672 2.5625 6.1875 2.5625zm8.75-105h157.5v87.5h-61.25c-3.3164 0-6.3477 1.8711-7.832 4.8398l-9.668 19.344-9.625-19.344c-1.4883-2.9805-4.543-4.8594-7.875-4.8398h-61.25z"/>
  <path d="m455 350v140c0 2.3203 0.92188 4.5469 2.5625 6.1875s3.8672 2.5625 6.1875 2.5625h10.668l7.0977 28.375h-0.003906c0.82031 3.2734 3.4492 5.7812 6.7539 6.4492 0.57031 0.12109 1.1523 0.17969 1.7344 0.17578 2.7539 0 5.3477-1.2969 7-3.5l23.625-31.5h65.625c2.3203 0 4.5469-0.92188 6.1875-2.5625s2.5625-3.8672 2.5625-6.1875v-140c0-2.3203-0.92188-4.5469-2.5625-6.1875s-3.8672-2.5625-6.1875-2.5625h-122.5c-4.832 0-8.75 3.918-8.75 8.75zm17.5 8.75h105v122.5h-61.25c-2.7539 0-5.3477 1.2969-7 3.5l-15.227 20.293-4.2891-17.168h0.003906c-0.97656-3.8945-4.4766-6.625-8.4883-6.625h-8.75z"/>
  <path d="m490 376.25h70v17.5h-70z"/>
  <path d="m525 411.25h35v17.5h-35z"/>
  <path d="m490 446.25h52.5v17.5h-52.5z"/>
  <path d="m490 411.25h17.5v17.5h-17.5z"/>
  <path d="m140 78.75h87.5v17.5h-87.5z"/>
  <path d="m105 113.75h87.5v17.5h-87.5z"/>
  <path d="m105 78.75h17.5v17.5h-17.5z"/>
  <path d="m621.25 0h-542.5c-4.832 0-8.75 3.918-8.75 8.75v17.5h17.5v-8.75h525v52.5h17.5v-61.25c0-2.3203-0.92188-4.5469-2.5625-6.1875s-3.8672-2.5625-6.1875-2.5625z"/>
  <path d="m70 183.75h17.5v315h-17.5z"/>
  <path d="m612.5 245h-96.25c-4.832 0-8.75 3.918-8.75 8.75v43.75c0 2.3203 0.92188 4.5469 2.5625 6.1875s3.8672 2.5625 6.1875 2.5625h96.25v236.25h-166.25v-26.25c0-2.3203-0.92188-4.5469-2.5625-6.1875s-3.8672-2.5625-6.1875-2.5625h-131.25c-4.832 0-8.75 3.918-8.75 8.75v26.25h-61.25v17.5h385c2.3203 0 4.5469-0.92188 6.1875-2.5625s2.5625-3.8672 2.5625-6.1875v-341.25h-17.5zm-297.5 280h113.75v17.5h-113.75zm210-236.25v-26.25h87.5v26.25z"/>
  <path d="m210 113.75h17.5v17.5h-17.5z"/>
  <path d="m490 70h-192.5c-4.832 0-8.75 3.918-8.75 8.75v96.25h17.5v-87.5h175v122.5h-96.25v17.5h105c2.3203 0 4.5469-0.92188 6.1875-2.5625s2.5625-3.8672 2.5625-6.1875v-140c0-2.3203-0.92188-4.5469-2.5625-6.1875s-3.8672-2.5625-6.1875-2.5625z"/>
  <path d="m533.75 96.25v87.5c0 2.3203 0.92188 4.5469 2.5625 6.1875s3.8672 2.5625 6.1875 2.5625h87.5v-17.5h-78.75v-70h78.75v-17.5h-87.5c-4.832 0-8.75 3.918-8.75 8.75z"/>
  <path d="m568.75 131.25h17.5v17.5h-17.5z"/>
  <path d="m603.75 131.25h17.5v17.5h-17.5z"/>
  <use x="70" y="691.25" xlink:href="#d"/>
  <use x="102.109375" y="691.25" xlink:href="#k"/>
  <use x="123.683594" y="691.25" xlink:href="#a"/>
  <use x="153.355469" y="691.25" xlink:href="#j"/>
  <use x="182.878906" y="691.25" xlink:href="#i"/>
  <use x="203.792969" y="691.25" xlink:href="#a"/>
  <use x="233.464844" y="691.25" xlink:href="#h"/>
  <use x="280.011719" y="691.25" xlink:href="#g"/>
  <use x="311.328125" y="691.25" xlink:href="#f"/>
  <use x="355.078125" y="691.25" xlink:href="#e"/>
  <use x="388.9375" y="691.25" xlink:href="#p"/>
  <use x="405.21875" y="691.25" xlink:href="#c"/>
  <use x="441.832031" y="691.25" xlink:href="#o"/>
  <use x="473.554688" y="691.25" xlink:href="#b"/>
  <use x="503.441406" y="691.25" xlink:href="#c"/>
  <use x="540.054688" y="691.25" xlink:href="#d"/>
  <use x="572.164062" y="691.25" xlink:href="#b"/>
  <use x="617.28125" y="691.25" xlink:href="#n"/>
  <use x="648.789062" y="691.25" xlink:href="#m"/>
  <use x="678.632812" y="691.25" xlink:href="#l"/>
 </g>
</svg>
