<svg fill="none" height="256" viewBox="0 0 256 256" width="256" xmlns="http://www.w3.org/2000/svg"><g fill="#000"><path d="m70.2218 240.672-1.0197-.672h6.8c1.0607 0 2.0786-.421 2.8286-1.171l4-4c1.2179-1.218 1.5196-3.077.7518-4.616l-.2233-.449 5.9072-1.968c.5876-.198 1.1232-.53 1.5643-.967l3.5393-3.54v-.001c5.632-1.029 10.345-4.87 12.487-10.181.532-1.159.961-2.364 1.281-3.6l14.693-14.693v.002c.746-.747 1.168-1.759 1.171-2.816v-4h12c1.259 0 2.445-.593 3.2-1.6l12-16-.028-.02c.528-.682.819-1.518.828-2.38v-8c0-1.902-1.337-3.54-3.2-3.92l-.239-.048.091-.032.612-.204c1.634-.544 2.736-2.073 2.736-3.796v-12c0-1.061-.421-2.079-1.171-2.829s-1.768-1.171-2.829-1.171h-7.661c2.331-1.502 4.506-3.236 6.489-5.171 1.561-1.563 1.561-4.095 0-5.658l-8-8c-.994-.992-2.437-1.392-3.8-1.051l-20.9 5.223v.002c2.068-3.382 3.783-6.968 5.116-10.7l3.532-2.355v-.002c5.307-3.55 9.626-8.391 12.552-14.0678l4.968-7.4556c1.659-2.4535 1.979-5.5748.848-8.3145-1.13-2.7375-3.559-4.725-6.466-5.2927-2.909-.5661-5.905.3625-7.982 2.475l-9.34 9.3394-15.757 11.8285v.0232c-.504.3643-.914.8393-1.2 1.3893-2.5553 5.1072-5.5625 9.9752-8.9874 14.5422l-6.4608 8.617-2.6071 2.628h-2.3446c-1.5161 0-2.9019.856-3.5804 2.213l-3.7553 7.516-8.1838 9.094-1.6518-1.651c-.7268-.711-1.7-1.113-2.7161-1.124l.7-2.8c2.1911-8.753 1.8393-17.95-1.0161-26.508-.3357-1.006-1.0571-1.84-2.0053-2.315-.95-.475-2.0483-.551-3.0554-.217l-12 4c-1.1946.398-2.1339 1.337-2.5321 2.532l-2.2036 6.628c-.9839 2.94-2.6357 5.609-4.8233 7.804-1.5625 1.562-1.5625 4.094 0 5.657l6.8608 6.861c0 .103-.0322.203-.0322.312v9.336l-2.0607 1.236v-.002c-1.2053.723-1.9428 2.023-1.9446 3.428v20h.0446c-.0143.618.1143 1.229.375 1.788l3.2607 6.52-2.9517 8.855-6.5162 3.255v.002c-.6232.314-1.1535.782-1.541 1.361l-8 12c-.6375.955-.8339 2.137-.5393 3.246.2946 1.111 1.0518 2.041 2.0803 2.554l3.9483 1.971-4.3 6.448h-1.8607c-1.3375 0-2.5857.668-3.3286 1.78l-15.999981 24c-.817875 1.227-.894627 2.806-.198211 4.108.694632 1.3 2.051792 2.112 3.526762 2.112h60.00003c1.516 0 2.9018-.855 3.5803-2.212l4-8c.9018-1.804.3179-3.997-1.3607-5.116zm9.7805-18.223v-2.449c0-.619-.1428-1.232-.4196-1.787l-4-8c-.3411-.681-.8678-1.25-1.5196-1.641l-20-12c-.2536-.152-.5215-.275-.8-.368l-8.2035-2.732 1.8268-5.472h4.1714l15.1127 7.555.0447.024v.001c.5553.277 1.1678.42 1.7875.42h2.3446l1.6554 1.655v2.345c-.0089 1.523.85 2.92 2.2125 3.6l8 4c.4071.2.8446.329 1.2946.38-.3929 1.941-.4589 3.936-.1946 5.9.3232 2.332 1.3285 4.518 2.891 6.281l-.3643.364zm19.6197-12.745c-2.0482 4.352-5.6 6.207-7.0286 5.535h.0018c-.8286-.596-1.3339-1.542-1.3696-2.562-.2286-2.195.1732-4.407 1.1571-6.38 1.0161-2.843 3.4053-4.977 6.3428-5.668.2357-.005.4697.039.684.132.8285.597 1.3335 1.543 1.3695 2.563.229 2.194-.173 4.407-1.157 6.38zm16.38-25.704v6.345l-8.36 8.355c-.933-2.255-2.652-4.095-4.84-5.177-4.9871-2.351-11.0836.052-15.2317 5.456l-.5517.139-2.5643.639-4.4518-2.228v-1.529c0-1.06-.4215-2.078-1.1715-2.828l-4-4c-.3714-.37-.8107-.665-1.2964-.865-.1285-.055-.2803-.044-.4-.087-.3589-.123-.7339-.198-1.1125-.22h-3.1071l-15.1232-7.564h-.0018c-.5536-.282-1.1661-.432-1.7875-.436h-5.5287l-1.6768-3.348 5.7838-6.423h.0017c9.6448 2.539 18.8983 6.384 27.5036 11.426l5.8555 3.517c.6232.373 1.3358.571 2.0607.573h15.9997c1.061 0 2.079-.423 2.829-1.173l9.68-9.685 5.368 3.581-2.703 2.703h-.002c-.75.75-1.172 1.768-1.172 2.829zm28-18.516c-3.044 1.327-6.289 2.138-9.6 2.4l-2.8-5.671c-.194-.384-.448-.736-.751-1.041l-.661-.661 13.812 2.77zm-10 14.516h-4.344l4.103-4.103c1.2-.056 2.377-.149 3.556-.316zm10-30.92c-5.217 1.549-10.598 2.479-16.032 2.775-.016-.569-.153-1.128-.4-1.642l-3.096-6.213h19.529zm-5.828-21.247c-4.109 3.23-8.924 5.446-14.052 6.464l-4.248.852c-.261-1.259-1.116-2.313-2.295-2.825l-5.296-2.272 22.493-5.623zm-19.832-26.2-2.34 1.568-5.076-3.3843 9.8-7.3517 5.28 1.7643c-2.085 2.9107-4.682 5.4194-7.664 7.4037zm14.983-20.5003c.215.1036.372.2964.429.5286.064.2285.023.475-.113.6714l-3.271 4.907-2.964-.9875 4.964-4.9642c.252-.2517.637-.3142.955-.1553zm-27.855 24.6523 5.693 3.796c-2.367 5.805-5.804 11.116-10.133 15.652l-6.7762-2.904 3.5803-4.772v-.001c2.8089-3.747 5.3609-7.679 7.6359-11.772zm-26.4967 32.892c.2411-.269.4464-.568.6089-.889l2.8911-5.787h1.5286c1.0607 0 2.0786-.422 2.8285-1.172l2.0875-2.084 23.0841 9.891v1.365c0 1.06.421 2.078 1.171 2.828l3.54 3.54 3.289 6.576v7.056c0 1.061.421 2.079 1.171 2.829l3.54 3.539 2.419 4.845-1.487 1.487-9.423-6.3c-1.586-1.057-3.7-.848-5.049.5l-10.828 10.829h-13.2361l-4.9069-2.928c-8.0892-4.738-16.7251-8.477-25.7161-11.133zm-34.9714 26.9v-7.312l14.3035-8.581zm1.6-41.676 1.5803-4.736 6.1161-2.039v-.002c1.125 5.116 1.2161 10.406.2679 15.557-1.6054-.636-3.3518-.83-5.0588-.566-1.7053.264-3.3107.979-4.65 2.07l-2.4-2.4c1.7929-2.391 3.1911-5.052 4.1446-7.884zm2.4 18.1c0-1.106.8946-2 2-2 1.1053 0 2 .894 2 2v2.135l-4 2.4zm-13.2608 61.101 5.5643-2.8 10 3.336 18.6231 11.177 3.0732 6.128v3.055c0 .62.1429 1.233.4197 1.788l2.7125 5.423-.8.8-2.3322.002c0-.1-.0553-.193-.0643-.293-.0303-.384-.116-.763-.2553-1.123-.05-.148-.1072-.295-.1732-.436-.2447-.489-.5876-.921-1.0072-1.273l-20-16c-.7089-.572-1.5893-.884-2.5-.888h-15.0555l-3.1036-1.551zm-.6 16.897h12.4553l16.4 13.103-.5553 1.107-.4714.945-15.7285-10.487c-.6643-.44-1.4428-.672-2.2393-.668h-12.5234zm-6.6624 28 2.6643-4h8.6587l6 4zm34.0516 0h-5.6c0-.136.0607-.261.0482-.4-.1196-1.191-.7643-2.268-1.7607-2.932l-12-8c-.6571-.434-1.4286-.668-2.2161-.668h-12c-1.3375 0-2.5857.668-3.3285 1.78l-6.8105 10.219h-6.4l10.6642-16h20.6752l18.4928 12.329 1.5607 1.039z"/><path d="m3.99996 75.9999h29.52864l6.8928 13.7874h-.0017c.6768 1.3589 2.0642 2.2161 3.5803 2.2161s2.9036-.8572 3.5803-2.2161l6.891-13.7874h29.5287c1.0607 0 2.0786-.4214 2.8286-1.1714s1.1714-1.7679 1.1714-2.8286v-47.9999c0-1.0607-.4214-2.0786-1.1714-2.8286s-1.7679-1.1714-2.8286-1.1714h-80c-2.20891 0-4 1.7911-4 4v47.9999c0 1.0607.421431 2.0786 1.17143 2.8286.75.75 1.76786 1.1714 2.82857 1.1714zm4-47.9999h72.00004v39.9999h-28c-1.5161 0-2.9018.8554-3.5804 2.2125l-4.4196 8.8429-4.4-8.8429c-.6804-1.3625-2.0768-2.2215-3.6-2.2125h-28.00004z"/><path d="m176 160v64c0 1.06.421 2.078 1.171 2.828s1.768 1.172 2.829 1.172h4.877l3.244 12.971h-.001c.375 1.496 1.576 2.643 3.087 2.948.261.056.527.082.793.081 1.259 0 2.445-.593 3.2-1.6l10.8-14.4h30c1.061 0 2.079-.422 2.829-1.172s1.171-1.768 1.171-2.828v-64c0-1.061-.421-2.079-1.171-2.829s-1.768-1.171-2.829-1.171h-56c-2.209 0-4 1.791-4 4zm8 4h48v56h-28c-1.259 0-2.445.593-3.2 1.6l-6.961 9.276-1.961-7.848h.002c-.446-1.78-2.046-3.028-3.88-3.028h-4z"/><path d="m192 172h32v8h-32z"/><path d="m208 188h16v8h-16z"/><path d="m192 204h24v8h-24z"/><path d="m192 188h8v8h-8z"/><path d="m32 36h40v8h-40z"/><path d="m16 51.9999h40v8h-40z"/><path d="m16 36h8v8h-8z"/><path d="m252 0h-248c-2.20891 0-4 1.79108-4 3.99999v8.00001h8v-4.00001h240v23.99991h8v-27.99991c0-1.0607-.421-2.07858-1.171-2.82856-.75-.749991-1.768-1.17143-2.829-1.17143z"/><path d="m0 83.9999h8v144.0001h-8z"/><path d="m248 112h-44c-2.209 0-4 1.791-4 4v20c0 1.061.421 2.078 1.171 2.828s1.768 1.172 2.829 1.172h44v108h-76v-12c0-1.061-.421-2.079-1.171-2.829s-1.768-1.171-2.829-1.171h-60c-2.209 0-4 1.791-4 4v12h-28v8h176c1.061 0 2.079-.422 2.829-1.172s1.171-1.768 1.171-2.828v-156.0001h-8zm-136 128h52v8h-52zm96-108v-12h40v12z"/><path d="m64 51.9999h8v8h-8z"/><path d="m192 32h-88c-2.209 0-4 1.7911-4 4v43.9999h8v-39.9999h80v55.9999h-44v8.0001h48c1.061 0 2.079-.422 2.829-1.172s1.171-1.767 1.171-2.8281v-63.9999c0-1.0607-.421-2.0786-1.171-2.8286s-1.768-1.1714-2.829-1.1714z"/><path d="m212 43.9999v39.9999c0 1.0607.421 2.0786 1.171 2.8286s1.768 1.1714 2.829 1.1714h40v-8h-36v-31.9999h36v-8h-40c-2.209 0-4 1.7911-4 4z"/><path d="m228 59.9999h8v8h-8z"/><path d="m244 59.9999h8v8h-8z"/></g></svg>