<svg fill="none" height="256" viewBox="0 0 256 256" width="256" xmlns="http://www.w3.org/2000/svg"><g fill="#000"><path d="m154.251 134.562v-9.844c0-1.296-.763-2.473-1.95-2.999l-8.016-3.563h.733c1.642.001 3.199-.736 4.239-2.009 1.039-1.271 1.452-2.944 1.122-4.554-.937-4.622-3.441-8.777-7.088-11.7656-3.646-2.9898-8.212-4.629-12.927-4.6406h-13.332l-22.4571-31.4368c-.6153-.8628-1.6084-1.374-2.6675-1.3755h-65.6245c-1.812 0-3.2812 1.4693-3.2812 3.2812v144.3743c0 .87.3457 1.705.9609 2.32s1.4502.961 2.3203.961h55.1471l14.6642 5.864 6.0018 12.008h-.002c.557 1.114 1.694 1.815 2.937 1.815h36.094c1.343 0 2.55-.817 3.048-2.064l6.562-16.406-.042-.016c.069-.132.127-.267.177-.407l1.726-6.91c5.406-21.745 5.97-44.411 1.654-66.401zm-8.016 71.043-1.109 4.427h-9.111l6.283-16.735c1.397-3.736.794-7.929-1.604-11.119-2.398-3.189-6.257-4.935-10.235-4.63l-21.183 1.64h-.001c-11.7734.901-23.3454 3.555-34.3347 7.875h-45.3747v-19.687h32.8123c4.1366-.003 8.197-1.122 11.7509-3.24 3.5537-2.117 6.4702-5.155 8.4419-8.792.9946 4.344 3.4336 8.225 6.9168 11.007 3.4834 2.78 7.8075 4.299 12.2655 4.306.145 0 .29-.01.433-.029l23.199-3.091h-.002c9.938-1.352 18.735-7.107 23.953-15.671 2.294 17.95 1.244 36.171-3.1 53.737zm-47.2907 7.642-14.2574-5.7-5.0887-15.263c9.703-3.577 19.8557-5.793 30.1668-6.586l21.187-1.64c1.742-.132 3.429.631 4.481 2.025 1.05 1.395 1.318 3.229.71 4.865l-7.218 19.272zm38.5717-75.213c-.774 3.848-2.78 7.338-5.714 9.947-2.932 2.608-6.635 4.191-10.547 4.509l-9.935.765c-2.47.218-4.915-.633-6.714-2.34-1.186-1.088-2.05-2.483-2.497-4.03zm-41.9579 9.656c.747 3.445 2.6528 6.53 5.3989 8.739 2.748 2.209 6.169 3.41 9.695 3.402.391 0 .78-.017 1.172-.046l9.941-.764c5.583-.46 10.843-2.809 14.914-6.658 4.07-3.848 6.709-8.968 7.481-14.517h3.327c-.742 5.854-3.396 11.3-7.549 15.492s-9.572 6.897-15.42 7.694l-22.969 3.064c-3.4434-.059-6.7263-1.466-9.1431-3.921-2.417-2.454-3.7732-5.76-3.7777-9.204v-3.281zm-65.992-3.281h47.8609l1.3124 1.312c-.3354 4.111-2.2045 7.944-5.2353 10.74-3.0308 2.797-7.0019 4.351-11.1254 4.354h-32.8122zm118.1239-17.558v4.433h-9.844c-.268 0-.534.032-.793.098l-38.9852 9.745h-14.644l-2.3203-2.32h.0015c-.6152-.615-1.4502-.961-2.3203-.961h-49.2184v-22.968h91.1767l7.258 3.225v.056h.125zm-17.337-25.098c2.973.007 5.865.967 8.254 2.739 2.388 1.771 4.146 4.261 5.014 7.104h-14.109l-1.641-.725c-.085-.423-.256-.824-.501-1.18l-5.647-7.938zm-100.7884-32.8125h60.652l28.1264 39.3745h-88.7807zm0 137.8115v-13.125h43.5709l4.374 13.125zm109.3414 19.687h-31.845l-3.525-7.051 27.914-2.792h11.392z"/><path d="m157.532 65.656h-13.125c-1.812 0-3.281 1.4692-3.281 3.2812.013 12.1788 4.857 23.8562 13.469 32.4678 8.612 8.612 20.289 13.456 32.468 13.469.87 0 1.705-.345 2.32-.961.615-.615.961-1.45.961-2.32v-13.1247c0-.8701-.346-1.7051-.961-2.3203-.615-.6153-1.45-.961-2.32-.961-6.96-.0073-13.632-2.7758-18.552-7.6975-4.922-4.9204-7.691-11.5927-7.698-18.5523 0-.8701-.346-1.705-.961-2.3203-.615-.6152-1.45-.9609-2.32-.9609zm26.25 35.929v6.592c-9.273-.79-17.968-4.831-24.548-11.4112-6.58-6.5801-10.621-15.2752-11.411-24.5477h6.592c.767 7.5262 4.108 14.5574 9.458 19.9086 5.351 5.3497 12.382 8.6913 19.909 9.4583z"/><path d="m187.063 42.6873c6.959.0074 13.632 2.7759 18.552 7.6976 4.922 4.9203 7.691 11.5927 7.698 18.5522 0 .8701.345 1.7051.961 2.3203.615.6153 1.45.961 2.32.961h13.125c.87 0 1.705-.3457 2.32-.961.615-.6152.961-1.4502.961-2.3203-.013-12.1787-4.857-23.8561-13.469-32.468-8.612-8.6118-20.289-13.456-32.468-13.4691-1.812 0-3.281 1.4692-3.281 3.2812v13.1249c0 .8701.345 1.7051.961 2.3203.615.6152 1.45.9609 2.32.9609zm3.281-12.9902c9.273.7895 17.968 4.8311 24.548 11.4111 6.58 6.5801 10.621 15.2752 11.411 24.5477h-6.592c-.767-7.5262-4.109-14.5574-9.458-19.9086-5.352-5.3497-12.383-8.6909-19.909-9.4585z"/><path d="m167.375 62.3747c3.481 0 6.819-1.3828 9.282-3.8437 2.461-2.4624 3.843-5.8009 3.843-9.2812 0-3.4804-1.382-6.819-3.843-9.2812-2.463-2.4609-5.801-3.8437-9.282-3.8437-3.48 0-6.818 1.3828-9.281 3.8437-2.461 2.4624-3.843 5.8008-3.843 9.2812 0 3.4803 1.382 6.8189 3.843 9.2812 2.463 2.4609 5.801 3.8437 9.281 3.8437zm0-19.6874c1.741 0 3.411.6914 4.641 1.9219 1.231 1.2304 1.922 2.9004 1.922 4.6406s-.691 3.4101-1.922 4.6406c-1.23 1.2304-2.9 1.9218-4.641 1.9218-1.74 0-3.41-.6914-4.64-1.9218-1.231-1.2305-1.922-2.9004-1.922-4.6406s.691-3.4102 1.922-4.6406c1.23-1.2305 2.9-1.9219 4.64-1.9219z"/><path d="m206.75 101.749c3.481 0 6.819-1.382 9.281-3.8433 2.461-2.4624 3.844-5.8008 3.844-9.2812 0-3.4803-1.383-6.8189-3.844-9.2811-2.462-2.461-5.8-3.8438-9.281-3.8438-3.48 0-6.819 1.3828-9.281 3.8438-2.461 2.4623-3.844 5.8008-3.844 9.2811 0 3.4804 1.383 6.819 3.844 9.2812 2.462 2.4613 5.801 3.8433 9.281 3.8433zm0-19.6869c1.74 0 3.41.6914 4.641 1.9218 1.23 1.2305 1.922 2.9004 1.922 4.6406s-.692 3.4102-1.922 4.6406c-1.231 1.2304-2.901 1.9219-4.641 1.9219s-3.41-.6915-4.64-1.9219c-1.231-1.2304-1.922-2.9004-1.922-4.6406s.691-3.4101 1.922-4.6406c1.23-1.2304 2.9-1.9218 4.64-1.9218z"/><path d="m36.1266 49.2498h57.4195l8.8589 11.8124c.62.8262 1.593 1.3125 2.625 1.3125 1.033 0 2.006-.4863 2.625-1.3125l8.86-11.8124h21.328c4.689 0 9.022-2.502 11.367-6.5625 2.343-4.0604 2.343-9.0644 0-13.1249-2.346-4.0604-6.679-6.5624-11.367-6.5624h-101.7183c-4.689 0-9.022 2.5019-11.3669 6.5624-2.3437 4.0605-2.3437 9.0645 0 13.1249 2.3452 4.0605 6.6783 6.5625 11.3669 6.5625zm0-19.6874h101.7184c2.345 0 4.511 1.251 5.683 3.2813 1.172 2.0302 1.172 4.5322 0 6.5624-1.172 2.0303-3.338 3.2812-5.683 3.2812h-22.969c-1.033 0-2.005.4864-2.625 1.3125l-7.219 9.624-7.2184-9.624c-.6196-.8261-1.5923-1.3125-2.625-1.3125h-59.062c-2.3452 0-4.5116-1.2509-5.6835-3.2812-1.1718-2.0303-1.1718-4.5322 0-6.5624 1.1719-2.0303 3.3384-3.2813 5.6835-3.2813z"/><path d="m187.063 91.9057v-6.5625c-4.349-.0058-8.52-1.7358-11.596-4.8104-3.074-3.0762-4.804-7.2465-4.81-11.5957h-6.563c.008 6.0892 2.43 11.9268 6.736 16.2333 4.306 4.3049 10.144 6.7278 16.233 6.7353z"/><path d="m203.469 68.9371h6.562c-.007-6.0892-2.43-11.9268-6.735-16.2333-4.306-4.3049-10.144-6.7278-16.233-6.7353v6.5625c4.349.0058 8.519 1.7358 11.596 4.8104 3.074 3.0762 4.804 7.2465 4.81 11.5957z"/><path d="m229.719 124.718h-55.781c-1.812 0-3.281 1.469-3.281 3.281v14.651l-8.383 5.578c-.913.608-1.462 1.632-1.462 2.729 0 1.098.549 2.123 1.462 2.731l8.383 5.597v70.432c0 .87.345 1.705.961 2.32.615.615 1.45.961 2.32.961h55.781c.87 0 1.705-.346 2.32-.961s.961-1.45.961-2.32v-101.718c0-.87-.346-1.705-.961-2.32-.615-.616-1.45-.961-2.32-.961zm-3.281 101.718h-49.219v-68.906c0-1.097-.548-2.121-1.46-2.73l-5.758-3.832 5.748-3.832c.917-.607 1.469-1.632 1.47-2.731v-13.125h49.219z"/></g></svg>