<svg width="512" height="512" viewBox="0 0 512 512" fill="none" xmlns="http://www.w3.org/2000/svg">
<path d="M163.876 248.796C168.265 248.803 172.647 248.535 177.004 247.996C181.029 247.492 184.043 244.053 184.011 239.996V199.998C184.011 197.877 183.168 195.841 181.668 194.341C180.168 192.841 178.132 191.998 176.011 191.998C147.877 192.012 121.145 179.72 102.847 158.353L86.0869 138.8C83.9085 136.261 80.38 135.347 77.2444 136.504C74.1053 137.665 72.0197 140.654 72.0161 144V191.998C72.0089 193.401 72.3732 194.78 73.0731 195.998C82.1942 212.036 95.4008 225.371 111.353 234.643C127.302 243.918 145.428 248.803 163.876 248.796ZM88.015 165.599L90.7041 168.735C110.221 191.544 138.067 205.584 168.012 207.719V232.661C152.052 233.414 136.188 229.829 122.099 222.29C108.014 214.747 96.2362 203.529 88.0153 189.83L88.015 165.599Z" fill="black"/>
<path d="M328.001 279.999C328.537 279.999 329.076 279.945 329.601 279.838L359.368 273.885V273.888C393.648 267.014 424.415 248.289 446.275 221.001C447.4 219.576 448.007 217.816 447.996 216.001V136.005C447.996 132.769 446.046 129.855 443.057 128.616C440.068 127.377 436.629 128.063 434.34 130.348C409.305 155.415 377.628 172.804 343.041 180.467L326.242 184.188C322.588 185.01 319.995 188.256 320.003 192.002V271.998C320.003 274.12 320.845 276.155 322.345 277.655C323.845 279.155 325.881 279.998 328.002 279.998L328.001 279.999ZM336.001 198.402L346.511 196.067C377.942 189.099 407.251 174.721 431.996 154.133V213.156C412.597 236.362 385.855 252.251 356.2 258.201L336.001 262.24V198.402Z" fill="black"/>
<path d="M84.9586 87.4005C85.9265 87.804 86.9657 88.0112 88.0157 88.0076C90.1406 88.0076 92.1762 87.1648 93.6797 85.6649L97.3831 81.9436C113.957 65.2834 136.51 55.9443 160.012 56.0093C162.134 56.0093 164.169 55.1664 165.669 53.6665C167.169 52.1666 168.012 50.1309 168.012 48.0096V8.01147C168.012 5.89015 167.169 3.8545 165.669 2.35459C164.169 0.854682 162.134 0.0118408 160.012 0.0118408C132.328 0.0725521 105.401 9.04713 83.216 25.6107C81.2018 27.1213 80.0162 29.4926 80.0162 32.0104V80.0082C80.0162 83.2438 81.9695 86.1613 84.9586 87.4005ZM96.0155 36.0995C112.583 24.6212 131.914 17.7863 152.013 16.3007V40.2996C131.632 41.8031 112.147 49.2992 96.0155 61.8483V36.0995Z" fill="black"/>
<path d="M391.998 64.0087C409.905 63.9872 426.889 71.944 438.332 85.7183L457.853 109.131V109.135C460.01 111.72 463.556 112.681 466.72 111.531C469.888 110.385 471.999 107.374 471.995 104.006V48.0089C471.995 46.1947 471.377 44.4341 470.242 43.0163L463.721 34.856H463.724C455.149 24.0816 443.761 15.8891 430.822 11.1789C417.884 6.47202 403.895 5.42914 390.399 8.17187C386.674 8.93255 383.999 12.2074 383.999 16.0108V56.0089C383.999 58.1303 384.842 60.1659 386.342 61.6658C387.842 63.1657 389.877 64.0087 391.998 64.0087ZM399.998 22.9216C419.658 21.2146 438.871 29.4463 451.195 44.8562L455.995 50.8166V81.9118L450.628 75.5121C437.932 60.2196 419.761 50.4993 399.998 48.424L399.998 22.9216Z" fill="black"/>
<path d="M511.993 375.994H394.302C379.181 354.956 352.258 337.782 317.506 328.15L303.906 246.689H303.828C303.824 246.475 303.806 246.261 303.778 246.046L296.385 216.448L319.513 154.787V154.79C320.616 151.847 319.899 148.533 317.674 146.316L296.003 124.695V98.8142C301.146 92.5895 303.971 84.7723 304.003 76.6977V64.5949C304.003 53.1312 298.96 42.2499 290.214 34.8391C281.468 27.4322 269.904 24.2503 258.598 26.1395L222.689 32.1249C222.529 32.1249 222.393 32.2464 222.232 32.2785V32.2749C221.679 32.3999 221.143 32.5821 220.632 32.8178C220.393 32.9213 220.161 33.0392 219.936 33.1713C219.8 33.2499 219.647 33.2999 219.511 33.3856C219.15 33.6535 218.811 33.9499 218.497 34.2749C218.368 34.3784 218.243 34.4856 218.129 34.6034C217.611 35.1641 217.182 35.7962 216.847 36.4819C216.757 36.6569 216.711 36.8497 216.64 37.0355C216.407 37.5926 216.243 38.1747 216.15 38.7711C216.15 38.8996 216.061 39.0175 216.047 39.1568C216.032 39.2925 216.047 39.371 216.047 39.4853C216.047 39.596 216.007 39.8246 216.007 40.0103V64.0092C216.004 67.2804 217.993 70.2232 221.032 71.441L233.089 76.2408L244.193 104.007H232.008C230.768 104.007 229.544 104.293 228.433 104.847L183.082 127.528L156.954 121L142.666 99.5689H142.669C140.791 96.7548 137.348 95.4263 134.07 96.2477L102.071 104.247C98.5108 105.14 96.0144 108.34 96.0144 112.008V128.007C96.0144 130.128 96.8572 132.164 98.3572 133.664C99.8571 135.164 101.893 136.007 104.014 136.007H112.014C112.014 138.681 113.349 141.178 115.574 142.663L139.573 158.663C139.891 158.838 140.223 158.995 140.566 159.127C140.741 159.216 140.862 159.366 141.037 159.438L181.035 175.437C182.946 176.198 185.075 176.198 186.985 175.437L202.449 169.244L212.727 172.676L208.848 180.43C207.816 182.504 207.73 184.922 208.62 187.065C209.509 189.204 211.28 190.854 213.48 191.59L216.009 192.436V248.001C216.009 251.276 218.001 254.219 221.04 255.433L224.008 256.619V295.999C224.008 296.477 224.051 296.959 224.137 297.431L228.537 321.623C178.66 327.301 138.03 348.085 117.849 376.02H0.012207V392.019H108.908C105.74 399.619 104.079 407.762 104.012 415.994C104.072 421.404 104.84 426.782 106.301 431.993H0.0198866V447.992H112.883C133.818 485.215 189.983 511.989 256.008 511.989C322.033 511.989 378.206 485.215 399.133 447.992H511.996V431.993H405.715C407.176 426.782 407.944 421.404 408.005 415.994C407.965 407.758 406.337 399.612 403.205 391.995H512L511.993 375.994ZM240.005 261.906C245.255 263.159 250.612 263.927 256.004 264.195V296.608L262.74 384.21L255.244 379.211L240.005 295.272V261.906ZM249.862 394.846L258.158 400.374L240.087 413.974L240.083 413.977C239.526 414.409 238.769 414.481 238.14 414.159C237.648 413.917 237.287 413.463 237.162 412.927C237.037 412.392 237.158 411.827 237.494 411.392L249.862 394.846ZM239.509 381.983L224.684 401.753C221.209 406.374 220.188 412.392 221.945 417.902C223.702 423.409 228.02 427.727 233.527 429.484C239.037 431.241 245.055 430.22 249.676 426.745L276.803 406.392C277.003 406.217 277.196 406.035 277.378 405.838C277.582 405.663 277.778 405.478 277.964 405.281C278.282 404.91 278.564 404.513 278.81 404.096C278.907 403.928 279.035 403.774 279.132 403.599C279.446 402.981 279.678 402.324 279.828 401.649V401.399C279.928 400.874 279.978 400.338 279.978 399.799C279.975 399.728 279.975 399.656 279.978 399.585V399.399L276.132 349.562L295.427 422.855L286.453 438.301H286.449C282.531 442.78 281.139 448.937 282.753 454.664C284.367 460.396 288.77 464.921 294.449 466.692C281.892 469.938 268.975 471.567 256.004 471.542C204.006 471.542 160.008 446.111 160.008 415.991C160.008 390.049 192.286 367.264 235.83 361.754L239.509 381.983ZM300.667 451.268C300.271 451.533 299.781 451.615 299.324 451.493C298.753 451.34 298.306 450.894 298.153 450.326C297.999 449.754 298.164 449.144 298.578 448.726C299.064 448.247 299.485 447.712 299.835 447.126L308.61 431.991H316.731C313.338 439.826 307.759 446.519 300.667 451.268ZM333.258 433.527L335.594 426.52C335.633 426.384 335.64 426.241 335.683 426.106C335.722 425.97 335.74 425.809 335.772 425.648H335.769C336.001 424.627 336.026 423.574 335.84 422.545V422.424L327.201 379.115C343.047 389.314 352 402.314 352 415.992C352 432.72 338.401 447.99 317.441 458.261C324.662 451.44 330.094 442.944 333.258 433.527ZM318.241 415.991H310.17L272.004 270.956V263.556C278.061 262.763 284.018 261.342 289.777 259.314L304.162 345.599L318.241 415.991ZM283.635 204.865L249.789 187.944L253.254 177.545L278.052 183.752L278.049 183.755C280.217 184.295 282.509 183.905 284.377 182.684C286.245 181.459 287.516 179.509 287.881 177.306L293.327 144.642L302.687 154.01L283.635 204.865ZM234.94 181.88L227.284 179.327L231.162 171.574L231.166 171.577C232.198 169.502 232.283 167.084 231.394 164.942C230.505 162.803 228.733 161.153 226.534 160.417L216.134 156.939L234.669 153.228L239.572 168.002L234.94 181.88ZM260.204 100.955L253.804 85.0518L261.443 87.5874V87.5909C262.189 87.8302 262.964 87.9552 263.746 87.9659C263.818 87.9659 263.9 88.0052 263.971 88.0052C264.043 88.0052 264.261 87.9481 264.411 87.9409C264.903 87.9088 265.389 87.8374 265.868 87.7266C266.107 87.6695 266.339 87.6052 266.571 87.5266C267.103 87.3409 267.614 87.1017 268.093 86.8053C268.203 86.7338 268.339 86.7088 268.46 86.6303L268.539 86.5588L268.643 86.5017C268.921 86.2946 269.146 86.0374 269.396 85.8124C269.643 85.5875 269.803 85.4696 269.982 85.2696H269.978C270.225 84.9732 270.446 84.6554 270.642 84.3268C270.778 84.1126 270.939 83.9269 271.057 83.7019H271.06C271.239 83.3197 271.392 82.9233 271.514 82.5162C271.578 82.3162 271.682 82.1305 271.728 81.9234L271.732 81.9269C271.903 81.2984 271.992 80.6556 272.003 80.0056H287.724C287.113 83.5269 285.534 86.8052 283.163 89.4762L271.681 95.2045L260.204 100.955ZM264.003 116.954L280.003 108.955V122.243L266.164 126.85L264.003 124.693L264.003 116.954ZM261.228 41.9187C267.792 40.8259 274.51 42.6294 279.646 46.8649C284.782 51.1005 287.828 57.3541 288.003 64.007H272.003V56.0074C272.007 52.7361 270.018 49.7934 266.979 48.5756L253.526 43.208L261.228 41.9187ZM232.005 51.8218L256.004 61.4213V68.1889L232.005 58.5893V51.8218ZM120.01 120.004H112.01V118.251L132.481 113.129L143.209 129.179L139.763 139.532L128.01 131.725V128.004C128.01 125.883 127.167 123.847 125.667 122.347C124.167 120.847 122.131 120.004 120.01 120.004ZM198.406 144.164C194.681 144.925 192.007 148.2 192.007 152.003V156.188L184.007 159.388L153.983 147.389L157.258 137.564L182.057 143.771H182.053C183.907 144.235 185.864 144.025 187.574 143.171L233.894 120.004H248.004V128.004C248.004 130.125 248.847 132.161 250.347 133.661L258.347 141.66C259.025 142.332 259.818 142.875 260.693 143.26C260.914 143.36 261.139 143.446 261.371 143.525C262.089 143.778 262.843 143.925 263.603 143.964C263.739 143.964 263.868 144.042 264.003 144.042H264.164C264.978 144.039 265.789 143.907 266.564 143.65L277.964 139.857L273.571 166.209L254.237 161.37L247.63 141.539C246.373 137.657 242.401 135.343 238.405 136.164L198.406 144.164ZM236.876 199.401L281.099 221.511L286.588 243.438C269.588 250.116 250.683 250.059 233.726 243.277L232.005 242.585V197.787L236.876 199.401ZM256.004 495.991C181.015 495.991 120.01 460.103 120.01 415.994C120.01 377.821 168.254 344.359 231.401 337.405L233.001 346.012C181.068 352.797 144.005 381.596 144.005 415.994C144.005 456.121 193.196 487.545 256 487.545C318.804 487.545 367.995 456.121 367.995 415.994C367.995 393.099 351.756 372.204 323.444 358.676L323.197 359.197L320.501 345.694C364.267 359.718 391.994 386.595 391.994 415.995C391.994 460.103 330.989 495.991 256 495.991L256.004 495.991Z" fill="black"/>
</svg>
