<svg fill="none" height="256" viewBox="0 0 256 256" width="256" xmlns="http://www.w3.org/2000/svg"><g fill="#000"><path d="m81.9383 124.398c2.1946.003 4.3856-.131 6.5638-.4 2.0124-.252 3.5195-1.972 3.5035-4v-19.9991c0-1.0607-.4214-2.0785-1.1714-2.8285-.75-.7499-1.7678-1.1714-2.8284-1.1714-14.0671.0072-27.4328-6.1391-36.5821-16.8225l-8.38-9.7765c-1.0892-1.2695-2.8534-1.7267-4.4212-1.1481-1.5696.5803-2.6124 2.0749-2.6142 3.748v23.9989c-.0036.7018.1785 1.391.5285 1.9999 4.5605 8.0193 11.1638 14.6873 19.1401 19.3223 7.9745 4.638 17.0372 7.08 26.2614 7.077zm-37.9306-41.5984 1.3446 1.5678c9.7586 11.4048 23.6812 18.4246 38.6538 19.4926v12.47c-7.98.377-15.912-1.416-22.9562-5.185-7.0425-3.772-12.9315-9.38-17.042-16.2299z"/><path d="m164.001 139.999c.268 0 .537-.026.8-.08l14.883-2.977v.002c17.14-3.437 32.524-12.799 43.454-26.443.562-.713.866-1.593.86-2.5v-39.9986c0-1.6178-.975-3.0748-2.469-3.6944-1.495-.6196-3.214-.2768-4.359.866-12.517 12.5334-28.356 21.2278-45.649 25.0594l-8.4 1.8606c-1.827.4107-3.123 2.0339-3.119 3.907v39.998c0 1.061.421 2.079 1.171 2.829s1.768 1.171 2.828 1.171zm4-40.7978 5.255-1.1678c15.715-3.4838 30.37-10.6729 42.742-20.9668v29.5114c-9.699 11.603-23.07 19.547-37.898 22.522l-10.099 2.02z"/><path d="m42.4796 43.7002c.4839.2018 1.0035.3053 1.5285.3035 1.0624 0 2.0803-.4214 2.832-1.1713l1.8517-1.8607c8.2872-8.3301 19.5635-12.9996 31.3147-12.9671 1.0606 0 2.0785-.4214 2.8284-1.1714.75-.75 1.1714-1.7678 1.1714-2.8284v-19.99912c0-1.06066-.4214-2.07849-1.1714-2.82845-.7499-.74995-1.7678-1.17137062-2.8284-1.17137062-13.8421.03035562-27.3057 4.51764062-38.3983 12.79944062-1.007.7553-1.5999 1.941-1.5999 3.1998v23.9989c0 1.6178.9767 3.0766 2.4713 3.6962zm5.5284-25.6505c8.2835-5.7392 17.9493-9.1566 27.9987-9.89942v11.99942c-10.1906.7518-19.9328 4.4998-27.9987 10.7744z"/><path d="m195.999 32.0043c8.954-.0107 17.446 3.9676 23.167 10.8548l9.761 11.7064v.0018c1.078 1.2928 2.851 1.7731 4.433 1.1982 1.584-.5732 2.64-2.0785 2.638-3.7624v-27.9987c0-.9071-.309-1.7874-.877-2.4963l-3.26-4.0802h.001c-4.287-5.3871-9.981-9.48341-16.451-11.83851-6.469-2.35344-13.463-2.87488-20.211-1.50351-1.863.38033-3.2 2.01778-3.2 3.91945v19.99907c0 1.0607.421 2.0785 1.171 2.8284.75.75 1.768 1.1715 2.828 1.1715zm4-20.5435c9.83-.8536 19.437 3.2623 25.599 10.9672l2.4 2.9802v15.5477l-2.684-3.1999c-6.348-7.6463-15.433-12.5064-25.315-13.5441z"/><path d="m255.997 187.997h-58.846c-7.56-10.519-21.022-19.106-38.398-23.922l-6.8-40.73h-.039c-.002-.108-.011-.215-.025-.322l-3.696-14.799 11.564-30.8308v.0018c.551-1.4714.193-3.1285-.92-4.2373l-10.835-10.81v-12.9407c2.571-3.1123 3.984-7.0209 4-11.0582v-6.0514c0-5.7318-2.522-11.1725-6.895-14.8779-4.373-3.7034-10.155-5.2944-15.808-4.3498l-17.954 2.9927c-.08 0-.148.0607-.229.0768v-.0018c-.276.0625-.544.1536-.8.2714-.119.0518-.235.1107-.348.1768-.068.0393-.144.0643-.212.1071-.181.134-.35.2822-.507.4447-.065.0517-.127.1053-.184.1642-.259.2804-.474.5965-.641.9393-.045.0875-.068.1839-.104.2768-.116.2785-.198.5696-.245.8678 0 .0642-.044.1232-.051.1928-.008.0679 0 .1072 0 .1643 0 .0554-.02.1696-.02.2625v11.9994c-.002 1.6357.993 3.107 2.512 3.7159l6.029 2.3999 5.552 13.8833h-6.093c-.62 0-1.232.1428-1.787.4196l-22.6759 11.3407-13.0636-3.2641-7.1444-10.7154h.0018c-.9392-1.4071-2.6606-2.0713-4.2997-1.6606l-15.9993 3.9998c-1.7803.4464-3.0284 2.0463-3.0284 3.8802v7.9996c0 1.0607.4214 2.0785 1.1713 2.8285.75.7499 1.7678 1.1713 2.8285 1.1713h3.9998c0 1.3375.6678 2.5856 1.7802 3.3284l11.9995 7.9997c.1589.0875.325.166.4964.2321.0875.0446.1482.1196.2357.1553l19.9991 7.9997c.9553.3803 2.0195.3803 2.9748 0l7.7322-3.0963 5.139 1.716-1.94 3.8766c-.516 1.0374-.559 2.2464-.114 3.3177.445 1.0696 1.33 1.8945 2.43 2.2624l1.265.4232v27.782c0 1.638.996 3.109 2.515 3.716l1.484.593v19.69c0 .24.022.481.065.716l2.2 12.096c-24.9388 2.839-45.2537 13.232-55.3442 27.199h-58.91845234v8h54.44775234c-1.5838 3.799-2.4141 7.871-2.4481 11.987.0304 2.705.4143 5.394 1.1446 7.999h-53.1404125v8h56.4317125c10.4671 18.612 38.55 31.998 71.5621 31.998 33.013 0 61.099-13.386 71.563-31.998h56.431v-8h-53.14c.73-2.605 1.114-5.294 1.145-7.999-.02-4.118-.834-8.191-2.4-12h54.397zm-135.994-57.044c2.625.627 5.303 1.01 7.999 1.144v16.207l3.368 43.801-3.748-2.5-7.619-41.969zm4.928 66.47 4.148 2.764-9.035 6.8-.002.002c-.279.216-.657.251-.972.091-.246-.122-.426-.349-.489-.616-.062-.268-.002-.55.166-.768zm-5.176-6.432-7.413 9.885c-1.737 2.311-2.248 5.32-1.369 8.075.878 2.753 3.037 4.912 5.791 5.791 2.755.878 5.763.368 8.074-1.37l13.564-10.176c.1-.088.196-.179.287-.277.102-.087.2-.18.293-.278.159-.186.3-.384.423-.593.049-.084.113-.161.161-.249.157-.308.273-.637.348-.974v-.125c.05-.263.075-.531.075-.8-.001-.036-.001-.072 0-.108v-.092l-1.923-24.919 9.648 36.647-4.487 7.723h-.002c-1.959 2.239-2.655 5.317-1.848 8.181.807 2.866 3.008 5.129 5.848 6.014-6.279 1.623-12.737 2.437-19.223 2.425-25.999 0-47.9977-12.715-47.9977-27.776 0-12.971 16.1387-24.363 37.9107-27.118zm30.579 34.643c-.198.132-.443.173-.672.113-.285-.077-.509-.3-.585-.584-.077-.286.005-.591.212-.8.243-.239.454-.507.629-.8l4.387-7.568h4.061c-1.697 3.918-4.486 7.264-8.032 9.639zm16.295-8.871 1.168-3.503c.02-.068.023-.139.045-.207.019-.068.028-.148.044-.229h-.001c.116-.511.128-1.037.035-1.552v-.06l-4.319-21.655c7.923 5.1 12.399 11.6 12.399 18.439 0 8.364-6.799 15.999-17.279 21.134 3.61-3.41 6.326-7.658 7.908-12.367zm-7.508-8.767h-4.036l-19.083-72.518v-3.7c3.029-.396 6.007-1.107 8.887-2.121l7.192 43.142zm-17.303-105.563-16.923-8.4608 1.732-5.1998 12.399 3.1034-.001.0018c1.084.2697 2.23.075 3.164-.5357.934-.6124 1.569-1.5874 1.752-2.6891l2.723-16.3316 4.68 4.6836zm-24.348-11.4929-3.828-1.2768 1.939-3.8766.002.0018c.516-1.0375.559-2.2464.114-3.3177-.444-1.0696-1.33-1.8946-2.43-2.2624l-5.2-1.7392 9.268-1.8553 2.451 7.3871zm12.632-40.4626-3.2-7.9517 3.82 1.2678v.0018c.373.1196.76.1821 1.151.1875.036 0 .077.0196.113.0196s.145-.0285.22-.0321c.246-.0161.489-.0518.728-.1071.12-.0286.236-.0608.352-.1.266-.0929.521-.2125.761-.3607.055-.0357.123-.0482.183-.0875l.04-.0357.052-.0286c.139-.1036.251-.2321.376-.3446.124-.1125.204-.1715.293-.2715h-.002c.124-.1482.234-.3071.332-.4713.068-.1072.149-.2.208-.3125h.001c.09-.1911.166-.3893.227-.5929.032-.1.084-.1928.107-.2964l.002.0018c.086-.3143.13-.6357.136-.9607h7.86c-.305 1.7607-1.095 3.3999-2.28 4.7353l-5.741 2.8642zm1.9 7.9996 8-3.9998v6.6443l-6.92 2.3034-1.08-1.0785zm-1.388-37.5178c3.282-.5464 6.641.3553 9.209 2.4731s4.091 5.2446 4.179 8.571h-8v-3.9998c.002-1.6356-.993-3.107-2.512-3.7159l-6.727-2.6838zm-14.611 4.9515 11.999 4.7998v3.3838l-11.999-4.7998zm-55.9978 34.0913h-3.9999v-.8768l10.2355-2.5606 5.3638 8.0248-1.7231 5.1764-5.8763-3.9034v-1.8606c0-1.0607-.4214-2.0785-1.1714-2.8285-.7499-.7499-1.768-1.1713-2.8286-1.1713zm39.1982 12.0799c-1.8625.3803-3.1999 2.0177-3.1999 3.9194v2.0928l-3.9998 1.5999-15.0119-5.9997 1.6374-4.9123 12.3994 3.1034h-.0017c.9267.2322 1.9052.1268 2.7606-.3l23.1595-11.5834h7.055v3.9998c0 1.0607.422 2.0785 1.172 2.8284l3.999 3.9999c.34.3357.736.6071 1.174.7999.11.05.223.0929.339.1322.359.1267.736.1999 1.116.2196.068 0 .132.0393.2.0393h.08c.407-.0018.813-.0679 1.2-.1964l5.7-1.8964-2.196 13.1761-9.667-2.4195-3.304-9.9155c-.628-1.941-2.614-3.098-4.612-2.6873zm19.2346 27.6183 22.112 11.0547 2.744 10.964c-8.5 3.339-17.952 3.311-26.431-.08l-.86-.347v-22.3987zm9.564 148.2947c-37.4945 0-67.9968-17.944-67.9968-39.998 0-19.087 24.1223-35.818 55.6958-39.295l.8 4.304c-25.967 3.393-44.4982 17.792-44.4982 34.991 0 20.064 24.5954 35.775 55.9972 35.775 31.402 0 55.998-15.711 55.998-35.775 0-11.448-8.12-21.895-22.276-28.659l-.123.261-1.348-6.752c21.883 7.012 35.746 20.451 35.746 35.15 0 22.055-30.502 39.998-67.997 39.998z"/></g></svg>