<?xml version="1.0" encoding="UTF-8"?>
<svg width="700pt" height="700pt" version="1.1" viewBox="0 0 700 700" xmlns="http://www.w3.org/2000/svg" xmlns:xlink="http://www.w3.org/1999/xlink">
 <defs>
  <symbol id="d" overflow="visible">
   <path d="m29.312-1.75c-1.5117 0.78125-3.0898 1.3711-4.7344 1.7656-1.6367 0.40625-3.3398 0.60938-5.1094 0.60938-5.3125 0-9.5273-1.4844-12.641-4.4531-3.1055-2.9688-4.6562-7-4.6562-12.094s1.5508-9.125 4.6562-12.094c3.1133-2.9688 7.3281-4.4531 12.641-4.4531 1.7695 0 3.4727 0.19922 5.1094 0.59375 1.6445 0.39844 3.2227 0.99219 4.7344 1.7812v6.5938c-1.5312-1.0391-3.0391-1.8008-4.5156-2.2812-1.4805-0.48828-3.0391-0.73438-4.6719-0.73438-2.9375 0-5.2461 0.94531-6.9219 2.8281-1.6797 1.875-2.5156 4.4648-2.5156 7.7656 0 3.293 0.83594 5.8828 2.5156 7.7656 1.6758 1.875 3.9844 2.8125 6.9219 2.8125 1.6328 0 3.1914-0.23828 4.6719-0.71875 1.4766-0.48828 2.9844-1.2539 4.5156-2.2969z"/>
  </symbol>
  <symbol id="k" overflow="visible">
   <path d="m21.453-17.406c-0.67969-0.3125-1.3516-0.53906-2.0156-0.6875-0.65625-0.15625-1.3203-0.23438-1.9844-0.23438-1.9688 0-3.4844 0.63281-4.5469 1.8906-1.0547 1.2617-1.5781 3.0703-1.5781 5.4219v11.016h-7.6562v-23.922h7.6562v3.9219c0.97656-1.5625 2.1016-2.7031 3.375-3.4219 1.2812-0.71875 2.8125-1.0781 4.5938-1.0781 0.25 0 0.52344 0.011719 0.82812 0.03125 0.30078 0.023438 0.73438 0.070312 1.2969 0.14062z"/>
  </symbol>
  <symbol id="a" overflow="visible">
   <path d="m27.562-12.031v2.1875h-17.891c0.1875 1.793 0.83203 3.1367 1.9375 4.0312 1.1133 0.89844 2.6719 1.3438 4.6719 1.3438 1.6016 0 3.25-0.23438 4.9375-0.70312 1.6875-0.47656 3.4219-1.2031 5.2031-2.1719v5.8906c-1.8047 0.6875-3.6094 1.2031-5.4219 1.5469-1.8125 0.35156-3.6211 0.53125-5.4219 0.53125-4.3359 0-7.7031-1.0977-10.109-3.2969-2.3984-2.207-3.5938-5.2969-3.5938-9.2656 0-3.9062 1.1758-6.9727 3.5312-9.2031 2.3633-2.2383 5.6094-3.3594 9.7344-3.3594 3.7578 0 6.7695 1.1367 9.0312 3.4062 2.2578 2.2617 3.3906 5.2812 3.3906 9.0625zm-7.8594-2.5312c0-1.457-0.42969-2.6289-1.2812-3.5156-0.84375-0.89453-1.9492-1.3438-3.3125-1.3438-1.4922 0-2.6992 0.41797-3.625 1.25-0.91797 0.83594-1.4922 2.0391-1.7188 3.6094z"/>
  </symbol>
  <symbol id="j" overflow="visible">
   <path d="m14.391-10.766c-1.5938 0-2.793 0.27344-3.5938 0.8125-0.80469 0.54297-1.2031 1.3398-1.2031 2.3906 0 0.96875 0.32031 1.7305 0.96875 2.2812 0.64453 0.54297 1.5469 0.8125 2.7031 0.8125 1.4375 0 2.6445-0.51562 3.625-1.5469 0.98828-1.0312 1.4844-2.3203 1.4844-3.875v-0.875zm11.688-2.8906v13.656h-7.7031v-3.5469c-1.0312 1.4492-2.1875 2.5078-3.4688 3.1719s-2.8398 1-4.6719 1c-2.4805 0-4.4961-0.72266-6.0469-2.1719-1.543-1.4453-2.3125-3.3203-2.3125-5.625 0-2.8125 0.96094-4.8672 2.8906-6.1719 1.9375-1.3125 4.9688-1.9688 9.0938-1.9688h4.5156v-0.60938c0-1.207-0.48047-2.0938-1.4375-2.6562-0.94922-0.5625-2.4375-0.84375-4.4688-0.84375-1.6367 0-3.1562 0.16797-4.5625 0.5-1.4062 0.32422-2.7188 0.8125-3.9375 1.4688v-5.8281c1.6445-0.40625 3.2891-0.70703 4.9375-0.90625 1.6562-0.20703 3.3047-0.3125 4.9531-0.3125 4.3203 0 7.4375 0.85547 9.3438 2.5625 1.9141 1.6992 2.875 4.4609 2.875 8.2812z"/>
  </symbol>
  <symbol id="i" overflow="visible">
   <path d="m12.031-30.719v6.7969h7.875v5.4688h-7.875v10.141c0 1.1172 0.21875 1.8711 0.65625 2.2656 0.4375 0.38672 1.3125 0.57812 2.625 0.57812h3.9375v5.4688h-6.5625c-3.0234 0-5.1641-0.62891-6.4219-1.8906-1.2617-1.2578-1.8906-3.3984-1.8906-6.4219v-10.141h-3.7969v-5.4688h3.7969v-6.7969z"/>
  </symbol>
  <symbol id="h" overflow="visible">
   <path d="m19.953-20.422v-12.812h7.6875v33.234h-7.6875v-3.4531c-1.0547 1.4062-2.2148 2.4375-3.4844 3.0938-1.2734 0.65625-2.7422 0.98438-4.4062 0.98438-2.9492 0-5.3711-1.1719-7.2656-3.5156-1.8867-2.3438-2.8281-5.3594-2.8281-9.0469s0.94141-6.7031 2.8281-9.0469c1.8945-2.3438 4.3164-3.5156 7.2656-3.5156 1.6562 0 3.1172 0.33594 4.3906 1 1.2812 0.65625 2.4453 1.6836 3.5 3.0781zm-5.0469 15.484c1.6445 0 2.8945-0.59766 3.75-1.7969 0.86328-1.1953 1.2969-2.9297 1.2969-5.2031 0-2.2812-0.43359-4.0195-1.2969-5.2188-0.85547-1.1953-2.1055-1.7969-3.75-1.7969-1.625 0-2.8711 0.60156-3.7344 1.7969-0.85547 1.1992-1.2812 2.9375-1.2812 5.2188 0 2.2734 0.42578 4.0078 1.2812 5.2031 0.86328 1.1992 2.1094 1.7969 3.7344 1.7969z"/>
  </symbol>
  <symbol id="g" overflow="visible">
   <path d="m16.406-4.9375c1.6328 0 2.8828-0.59766 3.75-1.7969 0.86328-1.1953 1.2969-2.9297 1.2969-5.2031 0-2.2812-0.43359-4.0195-1.2969-5.2188-0.86719-1.1953-2.1172-1.7969-3.75-1.7969-1.6367 0-2.8906 0.60547-3.7656 1.8125-0.875 1.1992-1.3125 2.9336-1.3125 5.2031 0 2.2617 0.4375 3.9961 1.3125 5.2031 0.875 1.1992 2.1289 1.7969 3.7656 1.7969zm-5.0781-15.484c1.0508-1.3945 2.2188-2.4219 3.5-3.0781 1.2812-0.66406 2.7539-1 4.4219-1 2.9453 0 5.3672 1.1719 7.2656 3.5156 1.8945 2.3438 2.8438 5.3594 2.8438 9.0469s-0.94922 6.7031-2.8438 9.0469c-1.8984 2.3438-4.3203 3.5156-7.2656 3.5156-1.668 0-3.1406-0.33594-4.4219-1s-2.4492-1.6914-3.5-3.0781v3.4531h-7.6562v-33.234h7.6562z"/>
  </symbol>
  <symbol id="f" overflow="visible">
   <path d="m0.53125-23.922h7.6562l6.4219 16.234 5.4688-16.234h7.6562l-10.062 26.188c-1.0117 2.6641-2.1953 4.5234-3.5469 5.5781-1.3438 1.0625-3.1211 1.5938-5.3281 1.5938h-4.4219v-5.0156h2.3906c1.3008 0 2.2422-0.21094 2.8281-0.625 0.59375-0.40625 1.0547-1.1484 1.3906-2.2188l0.20312-0.65625z"/>
  </symbol>
  <symbol id="e" overflow="visible">
   <path d="m0.21875-31.891h8.2656l8.4531 23.531 8.4375-23.531h8.2656l-11.812 31.891h-9.7969z"/>
  </symbol>
  <symbol id="p" overflow="visible">
   <path d="m4.0156-31.891h8.2188v31.891h-8.2188z"/>
  </symbol>
  <symbol id="c" overflow="visible">
   <path d="m4.0156-31.891h9.1875l11.594 21.875v-21.875h7.7969v31.891h-9.1875l-11.594-21.875v21.875h-7.7969z"/>
  </symbol>
  <symbol id="o" overflow="visible">
   <path d="m2.4531-31.891h26.812v4.9688l-17.109 20.703h17.594v6.2188h-27.781v-4.9844l17.109-20.688h-16.625z"/>
  </symbol>
  <symbol id="b" overflow="visible">
   <path d="m4.0156-31.891h22.203v6.2188h-13.984v5.9375h13.141v6.2188h-13.141v7.2969h14.453v6.2188h-22.672z"/>
  </symbol>
  <symbol id="n" overflow="visible">
   <path d="m26.219-30.891v6.75c-1.7617-0.78125-3.4766-1.3672-5.1406-1.7656-1.668-0.40625-3.2422-0.60938-4.7188-0.60938-1.9609 0-3.4141 0.27344-4.3594 0.8125-0.9375 0.54297-1.4062 1.3867-1.4062 2.5312 0 0.85547 0.31641 1.5234 0.95312 2 0.63281 0.46875 1.7852 0.875 3.4531 1.2188l3.5 0.70312c3.5391 0.71875 6.0625 1.8047 7.5625 3.25 1.5 1.4492 2.25 3.5117 2.25 6.1875 0 3.5234-1.0469 6.1406-3.1406 7.8594-2.0859 1.7188-5.2734 2.5781-9.5625 2.5781-2.0234 0-4.0547-0.19531-6.0938-0.57812-2.0312-0.38281-4.0625-0.95703-6.0938-1.7188v-6.9375c2.0312 1.0859 3.9922 1.9023 5.8906 2.4531 1.9062 0.54297 3.7422 0.8125 5.5156 0.8125 1.7891 0 3.1602-0.29688 4.1094-0.89062 0.95703-0.60156 1.4375-1.457 1.4375-2.5625 0-1-0.32422-1.7695-0.96875-2.3125-0.64844-0.53906-1.9375-1.0234-3.875-1.4531l-3.1875-0.70312c-3.1875-0.6875-5.5234-1.7734-7-3.2656-1.4688-1.5-2.2031-3.5156-2.2031-6.0469 0-3.1758 1.0234-5.6172 3.0781-7.3281 2.0508-1.707 5-2.5625 8.8438-2.5625 1.75 0 3.5508 0.13281 5.4062 0.39062 1.8516 0.26172 3.7695 0.65625 5.75 1.1875z"/>
  </symbol>
  <symbol id="m" overflow="visible">
   <path d="m0.21875-31.891h29.391v6.2188h-10.578v25.672h-8.2188v-25.672h-10.594z"/>
  </symbol>
  <symbol id="l" overflow="visible">
   <path d="m4.0156-31.891h8.2188v19.109c0 2.6367 0.42969 4.5234 1.2969 5.6562 0.86328 1.1367 2.2695 1.7031 4.2188 1.7031 1.9688 0 3.3789-0.56641 4.2344-1.7031 0.86328-1.1328 1.2969-3.0195 1.2969-5.6562v-19.109h8.2344v19.109c0 4.5234-1.1367 7.8867-3.4062 10.094-2.2617 2.2109-5.7148 3.3125-10.359 3.3125-4.625 0-8.0742-1.1016-10.344-3.3125-2.2617-2.207-3.3906-5.5703-3.3906-10.094z"/>
  </symbol>
 </defs>
 <g>
  <path d="m603.75 262.5c9.3789 0 18.043-5.0039 22.734-13.125 4.6875-8.1211 4.6875-18.129 0-26.25-4.6914-8.1211-13.355-13.125-22.734-13.125h-43.75v-17.5c0-2.3203-0.92188-4.5469-2.5625-6.1875s-3.8672-2.5625-6.1875-2.5625c-17.121 0.019531-33.152 8.3867-42.961 22.418-9.3398-16.492-25.781-27.742-44.539-30.469v-7.6992c0-3.9453-2.6367-7.4023-6.4414-8.4453-6.5781-1.7891-13.184-3.4805-19.809-5.0664v-27.613c0-7.8164-4.168-15.035-10.938-18.945-6.7695-3.9062-15.105-3.9062-21.875 0-6.7695 3.9102-10.938 11.129-10.938 18.945v18.75c-69.52-11.586-140.48-11.586-210 0v-18.75c0-7.8164-4.168-15.035-10.938-18.945-6.7695-3.9062-15.105-3.9062-21.875 0-6.7695 3.9102-10.938 11.129-10.938 18.945v27.613c-6.6211 1.5938-13.223 3.2812-19.809 5.0664-2.0898 0.57422-3.8906 1.8984-5.0586 3.7188-4.1484 6.5234-7.7266 13.391-10.691 20.527-9.1758 0.14844-17.93 3.8945-24.371 10.43-6.4414 6.5352-10.059 15.344-10.07 24.52v35c0.011719 9.1758 3.6289 17.984 10.07 24.52 6.4414 6.5352 15.195 10.281 24.371 10.43 2.9648 7.1367 6.543 14.004 10.691 20.527 1.168 1.8203 2.9688 3.1445 5.0586 3.7188 6.5781 1.7891 13.184 3.4805 19.809 5.0664v34.125c0.019531 17.188 4.0195 34.141 11.691 49.523 6.25 12.469 8.4102 26.586 6.1758 40.355-2.2344 13.766-8.75 26.477-18.621 36.328-5.1367 5.1211-8.0273 12.074-8.0352 19.324-0.003907 7.2539 2.875 14.211 8.0078 19.34 5.1289 5.125 12.086 8.0039 19.34 7.9922h150.79c3.8203-0.003906 7.4805-1.5195 10.18-4.2227 2.7031-2.6992 4.2188-6.3594 4.2227-10.18 0.007812-7.8359-2.4531-15.473-7.0352-21.828-4.5781-6.3555-11.047-11.105-18.48-13.574-2.2344-0.75-4.1094-2.3125-5.25-4.375-14.531-26.309-22.25-55.836-22.453-85.891 41.363-0.32813 79.941-20.898 103.27-55.055 28.184-3.7852 56.082-9.4453 83.508-16.949 3.8008-1.0391 6.4336-4.4883 6.4414-8.4258v-7.6992c18.758-2.7266 35.199-13.977 44.539-30.469 9.8086 14.031 25.84 22.398 42.961 22.418 2.3203 0 4.5469-0.92188 6.1875-2.5625s2.5625-3.8672 2.5625-6.1875v-17.5zm0-35c4.832 0 8.75 3.918 8.75 8.75s-3.918 8.75-8.75 8.75h-43.75v-17.5zm-157.5 26.25h-61.25c-6.2539 0-12.031-3.3359-15.156-8.75s-3.125-12.086 0-17.5 8.9023-8.75 15.156-8.75h61.25zm-35-126.88c0-2.418 1.957-4.375 4.375-4.375s4.375 1.957 4.375 4.375v23.73c-2.918-0.61328-5.832-1.1953-8.75-1.75zm-253.75 0c0-2.418 1.957-4.375 4.375-4.375s4.375 1.957 4.375 4.375v21.961c-2.918 0.58203-5.832 1.168-8.75 1.75zm-70 126.88v-35c0.003906-3.4219 1.0117-6.7695 2.8945-9.6289 1.8867-2.8555 4.5703-5.0977 7.7188-6.4453-5.6172 22.031-5.6172 45.117 0 67.148-3.1484-1.3477-5.832-3.5898-7.7188-6.4453-1.8828-2.8594-2.8906-6.207-2.8945-9.6289zm61.25 243.94c0.007812-2.6016 1.0391-5.0938 2.8711-6.9375 9.0156-9.0195 15.855-19.977 20-32.035l38.379 19.188v29.594h-51.441c-5.4141-0.003906-9.8047-4.3945-9.8086-9.8086zm143.95-5.9414c3.4531 1.1523 6.5195 3.2305 8.8672 6.0078 2.3516 2.7773 3.8906 6.1484 4.4531 9.7422h-78.516v-35c0.019531-3.332-1.8594-6.3867-4.8398-7.875l-47.059-23.527h0.003907c1.9141-16.219-0.95703-32.645-8.2617-47.25-6.457-12.945-9.8281-27.211-9.8438-41.676v-30.277c33.434 7.0078 67.375 11.324 101.5 12.906-0.55078 2.1445-1.1094 4.2891-1.5742 6.4492h-73.676c-3.0312 0-5.8516 1.5664-7.4453 4.1484-1.5977 2.5781-1.7422 5.8008-0.38672 8.5117l17.5 35c1.4844 2.9688 4.5156 4.8398 7.832 4.8398h51.93c1.5508 30.008 9.9336 59.27 24.5 85.547 3.2695 5.8867 8.6289 10.328 15.016 12.453zm-86.039-115.5-8.75-17.5h56.523c-0.72656 5.8203-1.1719 11.656-1.3828 17.5zm64.594-8.8633c0.98438-10.824 2.9492-21.539 5.8711-32.008 3.8867 0.070313 7.7617 0.20312 11.645 0.20312 20.125 0 40.25-1.0078 60.375-2.9062-20.148 21.699-48.281 34.234-77.891 34.711zm175-69.605c-104.32 27.332-213.96 27.047-318.13-0.82422-10.988-18.344-16.793-39.324-16.793-60.707s5.8047-42.363 16.793-60.707c104.18-27.871 213.81-28.156 318.13-0.82422v26.531h-61.25c-12.504 0-24.059 6.6719-30.312 17.5-6.25 10.828-6.25 24.172 0 35 6.2539 10.828 17.809 17.5 30.312 17.5h61.25zm17.5-18.656v-85.75c13.289 2.6992 24.578 11.406 30.559 23.578 5.9805 12.168 5.9805 26.426 0 38.594-5.9805 12.172-17.27 20.879-30.559 23.578zm78.75-8.9766c-10.09-2.6055-18.492-9.5703-22.926-19-4.4336-9.4336-4.4336-20.348 0-29.777 4.4336-9.4297 12.836-16.395 22.926-19z"/>
  <path d="m183.75 175c-16.246 0-31.824 6.4531-43.309 17.941-11.488 11.484-17.941 27.062-17.941 43.309s6.4531 31.824 17.941 43.309c11.484 11.488 27.062 17.941 43.309 17.941s31.824-6.4531 43.309-17.941c11.488-11.484 17.941-27.062 17.941-43.309-0.019531-16.238-6.4805-31.805-17.961-43.289-11.484-11.48-27.051-17.941-43.289-17.961zm0 105c-11.602 0-22.73-4.6094-30.938-12.812-8.2031-8.207-12.812-19.336-12.812-30.938s4.6094-22.73 12.812-30.938c8.207-8.2031 19.336-12.812 30.938-12.812s22.73 4.6094 30.938 12.812c8.2031 8.207 12.812 19.336 12.812 30.938-0.015625 11.598-4.6289 22.719-12.828 30.922-8.2031 8.1992-19.324 12.812-30.922 12.828z"/>
  <path d="m183.75 201.25c-9.2812 0-18.184 3.6875-24.75 10.25-6.5625 6.5664-10.25 15.469-10.25 24.75s3.6875 18.184 10.25 24.75c6.5664 6.5625 15.469 10.25 24.75 10.25s18.184-3.6875 24.75-10.25c6.5625-6.5664 10.25-15.469 10.25-24.75s-3.6875-18.184-10.25-24.75c-6.5664-6.5625-15.469-10.25-24.75-10.25zm0 52.5c-4.6406 0-9.0938-1.8438-12.375-5.125s-5.125-7.7344-5.125-12.375 1.8438-9.0938 5.125-12.375 7.7344-5.125 12.375-5.125 9.0938 1.8438 12.375 5.125 5.125 7.7344 5.125 12.375-1.8438 9.0938-5.125 12.375-7.7344 5.125-12.375 5.125z"/>
  <path d="m297.5 192.5c-11.602 0-22.73 4.6094-30.938 12.812-8.2031 8.207-12.812 19.336-12.812 30.938s4.6094 22.73 12.812 30.938c8.207 8.2031 19.336 12.812 30.938 12.812s22.73-4.6094 30.938-12.812c8.2031-8.207 12.812-19.336 12.812-30.938-0.015625-11.598-4.6289-22.719-12.828-30.922-8.2031-8.1992-19.324-12.812-30.922-12.828zm0 70c-6.9609 0-13.641-2.7656-18.562-7.6875s-7.6875-11.602-7.6875-18.562 2.7656-13.641 7.6875-18.562 11.602-7.6875 18.562-7.6875 13.641 2.7656 18.562 7.6875 7.6875 11.602 7.6875 18.562-2.7656 13.641-7.6875 18.562-11.602 7.6875-18.562 7.6875z"/>
  <path d="m560 148.75h17.5v-17.5h17.5v-17.5h-17.5v-17.5h-17.5v17.5h-17.5v17.5h17.5z"/>
  <path d="m612.5 306.25h-17.5v17.5h-17.5v17.5h17.5v17.5h17.5v-17.5h17.5v-17.5h-17.5z"/>
  <path d="m160.75 86.879c10.465-4.1836 21.051-7.8359 31.754-10.957v20.328h17.5v-24.91c8.75-2.0547 17.5-3.7344 26.25-5.1016v21.262h17.5v-23.539c8.75-0.875 17.5-1.418 26.25-1.6445v25.184h17.5v-25.184c8.75 0.22656 17.5 0.74219 26.25 1.6445v23.539h17.5v-21.262c8.793 1.3633 17.543 3.0469 26.25 5.1016v24.91h17.5v-20.328c10.691 3.125 21.277 6.7773 31.754 10.953l6.4922-16.258v0.003906c-12.504-4.9727-25.27-9.25-38.246-12.809v-22.812h-17.5v18.426c-8.707-1.9531-17.457-3.6406-26.25-4.9336v-22.242h-17.5v20.125c-8.75-0.875-17.5-1.3047-26.25-1.5234v-18.602h-17.5v18.559c-8.75 0.21875-17.5 0.67188-26.25 1.5234v-20.082h-17.5v22.242c-8.75 1.2969-17.5 2.9844-26.25 4.9336v-18.426h-17.5v22.812c-12.977 3.5586-25.742 7.8359-38.246 12.809z"/>
  <use x="70" y="691.25" xlink:href="#d"/>
  <use x="102.109375" y="691.25" xlink:href="#k"/>
  <use x="123.683594" y="691.25" xlink:href="#a"/>
  <use x="153.355469" y="691.25" xlink:href="#j"/>
  <use x="182.878906" y="691.25" xlink:href="#i"/>
  <use x="203.792969" y="691.25" xlink:href="#a"/>
  <use x="233.464844" y="691.25" xlink:href="#h"/>
  <use x="280.011719" y="691.25" xlink:href="#g"/>
  <use x="311.328125" y="691.25" xlink:href="#f"/>
  <use x="355.078125" y="691.25" xlink:href="#e"/>
  <use x="388.9375" y="691.25" xlink:href="#p"/>
  <use x="405.21875" y="691.25" xlink:href="#c"/>
  <use x="441.832031" y="691.25" xlink:href="#o"/>
  <use x="473.554688" y="691.25" xlink:href="#b"/>
  <use x="503.441406" y="691.25" xlink:href="#c"/>
  <use x="540.054688" y="691.25" xlink:href="#d"/>
  <use x="572.164062" y="691.25" xlink:href="#b"/>
  <use x="617.28125" y="691.25" xlink:href="#n"/>
  <use x="648.789062" y="691.25" xlink:href="#m"/>
  <use x="678.632812" y="691.25" xlink:href="#l"/>
 </g>
</svg>
