<?xml version="1.0" encoding="UTF-8"?>
<svg width="700pt" height="700pt" version="1.1" viewBox="0 0 700 700" xmlns="http://www.w3.org/2000/svg" xmlns:xlink="http://www.w3.org/1999/xlink">
 <defs>
  <symbol id="d" overflow="visible">
   <path d="m29.312-1.75c-1.5117 0.78125-3.0898 1.3711-4.7344 1.7656-1.6367 0.40625-3.3398 0.60938-5.1094 0.60938-5.3125 0-9.5273-1.4844-12.641-4.4531-3.1055-2.9688-4.6562-7-4.6562-12.094s1.5508-9.125 4.6562-12.094c3.1133-2.9688 7.3281-4.4531 12.641-4.4531 1.7695 0 3.4727 0.19922 5.1094 0.59375 1.6445 0.39844 3.2227 0.99219 4.7344 1.7812v6.5938c-1.5312-1.0391-3.0391-1.8008-4.5156-2.2812-1.4805-0.48828-3.0391-0.73438-4.6719-0.73438-2.9375 0-5.2461 0.94531-6.9219 2.8281-1.6797 1.875-2.5156 4.4648-2.5156 7.7656 0 3.293 0.83594 5.8828 2.5156 7.7656 1.6758 1.875 3.9844 2.8125 6.9219 2.8125 1.6328 0 3.1914-0.23828 4.6719-0.71875 1.4766-0.48828 2.9844-1.2539 4.5156-2.2969z"/>
  </symbol>
  <symbol id="k" overflow="visible">
   <path d="m21.453-17.406c-0.67969-0.3125-1.3516-0.53906-2.0156-0.6875-0.65625-0.15625-1.3203-0.23438-1.9844-0.23438-1.9688 0-3.4844 0.63281-4.5469 1.8906-1.0547 1.2617-1.5781 3.0703-1.5781 5.4219v11.016h-7.6562v-23.922h7.6562v3.9219c0.97656-1.5625 2.1016-2.7031 3.375-3.4219 1.2812-0.71875 2.8125-1.0781 4.5938-1.0781 0.25 0 0.52344 0.011719 0.82812 0.03125 0.30078 0.023438 0.73438 0.070312 1.2969 0.14062z"/>
  </symbol>
  <symbol id="a" overflow="visible">
   <path d="m27.562-12.031v2.1875h-17.891c0.1875 1.793 0.83203 3.1367 1.9375 4.0312 1.1133 0.89844 2.6719 1.3438 4.6719 1.3438 1.6016 0 3.25-0.23438 4.9375-0.70312 1.6875-0.47656 3.4219-1.2031 5.2031-2.1719v5.8906c-1.8047 0.6875-3.6094 1.2031-5.4219 1.5469-1.8125 0.35156-3.6211 0.53125-5.4219 0.53125-4.3359 0-7.7031-1.0977-10.109-3.2969-2.3984-2.207-3.5938-5.2969-3.5938-9.2656 0-3.9062 1.1758-6.9727 3.5312-9.2031 2.3633-2.2383 5.6094-3.3594 9.7344-3.3594 3.7578 0 6.7695 1.1367 9.0312 3.4062 2.2578 2.2617 3.3906 5.2812 3.3906 9.0625zm-7.8594-2.5312c0-1.457-0.42969-2.6289-1.2812-3.5156-0.84375-0.89453-1.9492-1.3438-3.3125-1.3438-1.4922 0-2.6992 0.41797-3.625 1.25-0.91797 0.83594-1.4922 2.0391-1.7188 3.6094z"/>
  </symbol>
  <symbol id="j" overflow="visible">
   <path d="m14.391-10.766c-1.5938 0-2.793 0.27344-3.5938 0.8125-0.80469 0.54297-1.2031 1.3398-1.2031 2.3906 0 0.96875 0.32031 1.7305 0.96875 2.2812 0.64453 0.54297 1.5469 0.8125 2.7031 0.8125 1.4375 0 2.6445-0.51562 3.625-1.5469 0.98828-1.0312 1.4844-2.3203 1.4844-3.875v-0.875zm11.688-2.8906v13.656h-7.7031v-3.5469c-1.0312 1.4492-2.1875 2.5078-3.4688 3.1719s-2.8398 1-4.6719 1c-2.4805 0-4.4961-0.72266-6.0469-2.1719-1.543-1.4453-2.3125-3.3203-2.3125-5.625 0-2.8125 0.96094-4.8672 2.8906-6.1719 1.9375-1.3125 4.9688-1.9688 9.0938-1.9688h4.5156v-0.60938c0-1.207-0.48047-2.0938-1.4375-2.6562-0.94922-0.5625-2.4375-0.84375-4.4688-0.84375-1.6367 0-3.1562 0.16797-4.5625 0.5-1.4062 0.32422-2.7188 0.8125-3.9375 1.4688v-5.8281c1.6445-0.40625 3.2891-0.70703 4.9375-0.90625 1.6562-0.20703 3.3047-0.3125 4.9531-0.3125 4.3203 0 7.4375 0.85547 9.3438 2.5625 1.9141 1.6992 2.875 4.4609 2.875 8.2812z"/>
  </symbol>
  <symbol id="i" overflow="visible">
   <path d="m12.031-30.719v6.7969h7.875v5.4688h-7.875v10.141c0 1.1172 0.21875 1.8711 0.65625 2.2656 0.4375 0.38672 1.3125 0.57812 2.625 0.57812h3.9375v5.4688h-6.5625c-3.0234 0-5.1641-0.62891-6.4219-1.8906-1.2617-1.2578-1.8906-3.3984-1.8906-6.4219v-10.141h-3.7969v-5.4688h3.7969v-6.7969z"/>
  </symbol>
  <symbol id="h" overflow="visible">
   <path d="m19.953-20.422v-12.812h7.6875v33.234h-7.6875v-3.4531c-1.0547 1.4062-2.2148 2.4375-3.4844 3.0938-1.2734 0.65625-2.7422 0.98438-4.4062 0.98438-2.9492 0-5.3711-1.1719-7.2656-3.5156-1.8867-2.3438-2.8281-5.3594-2.8281-9.0469s0.94141-6.7031 2.8281-9.0469c1.8945-2.3438 4.3164-3.5156 7.2656-3.5156 1.6562 0 3.1172 0.33594 4.3906 1 1.2812 0.65625 2.4453 1.6836 3.5 3.0781zm-5.0469 15.484c1.6445 0 2.8945-0.59766 3.75-1.7969 0.86328-1.1953 1.2969-2.9297 1.2969-5.2031 0-2.2812-0.43359-4.0195-1.2969-5.2188-0.85547-1.1953-2.1055-1.7969-3.75-1.7969-1.625 0-2.8711 0.60156-3.7344 1.7969-0.85547 1.1992-1.2812 2.9375-1.2812 5.2188 0 2.2734 0.42578 4.0078 1.2812 5.2031 0.86328 1.1992 2.1094 1.7969 3.7344 1.7969z"/>
  </symbol>
  <symbol id="g" overflow="visible">
   <path d="m16.406-4.9375c1.6328 0 2.8828-0.59766 3.75-1.7969 0.86328-1.1953 1.2969-2.9297 1.2969-5.2031 0-2.2812-0.43359-4.0195-1.2969-5.2188-0.86719-1.1953-2.1172-1.7969-3.75-1.7969-1.6367 0-2.8906 0.60547-3.7656 1.8125-0.875 1.1992-1.3125 2.9336-1.3125 5.2031 0 2.2617 0.4375 3.9961 1.3125 5.2031 0.875 1.1992 2.1289 1.7969 3.7656 1.7969zm-5.0781-15.484c1.0508-1.3945 2.2188-2.4219 3.5-3.0781 1.2812-0.66406 2.7539-1 4.4219-1 2.9453 0 5.3672 1.1719 7.2656 3.5156 1.8945 2.3438 2.8438 5.3594 2.8438 9.0469s-0.94922 6.7031-2.8438 9.0469c-1.8984 2.3438-4.3203 3.5156-7.2656 3.5156-1.668 0-3.1406-0.33594-4.4219-1s-2.4492-1.6914-3.5-3.0781v3.4531h-7.6562v-33.234h7.6562z"/>
  </symbol>
  <symbol id="f" overflow="visible">
   <path d="m0.53125-23.922h7.6562l6.4219 16.234 5.4688-16.234h7.6562l-10.062 26.188c-1.0117 2.6641-2.1953 4.5234-3.5469 5.5781-1.3438 1.0625-3.1211 1.5938-5.3281 1.5938h-4.4219v-5.0156h2.3906c1.3008 0 2.2422-0.21094 2.8281-0.625 0.59375-0.40625 1.0547-1.1484 1.3906-2.2188l0.20312-0.65625z"/>
  </symbol>
  <symbol id="e" overflow="visible">
   <path d="m0.21875-31.891h8.2656l8.4531 23.531 8.4375-23.531h8.2656l-11.812 31.891h-9.7969z"/>
  </symbol>
  <symbol id="p" overflow="visible">
   <path d="m4.0156-31.891h8.2188v31.891h-8.2188z"/>
  </symbol>
  <symbol id="c" overflow="visible">
   <path d="m4.0156-31.891h9.1875l11.594 21.875v-21.875h7.7969v31.891h-9.1875l-11.594-21.875v21.875h-7.7969z"/>
  </symbol>
  <symbol id="o" overflow="visible">
   <path d="m2.4531-31.891h26.812v4.9688l-17.109 20.703h17.594v6.2188h-27.781v-4.9844l17.109-20.688h-16.625z"/>
  </symbol>
  <symbol id="b" overflow="visible">
   <path d="m4.0156-31.891h22.203v6.2188h-13.984v5.9375h13.141v6.2188h-13.141v7.2969h14.453v6.2188h-22.672z"/>
  </symbol>
  <symbol id="n" overflow="visible">
   <path d="m26.219-30.891v6.75c-1.7617-0.78125-3.4766-1.3672-5.1406-1.7656-1.668-0.40625-3.2422-0.60938-4.7188-0.60938-1.9609 0-3.4141 0.27344-4.3594 0.8125-0.9375 0.54297-1.4062 1.3867-1.4062 2.5312 0 0.85547 0.31641 1.5234 0.95312 2 0.63281 0.46875 1.7852 0.875 3.4531 1.2188l3.5 0.70312c3.5391 0.71875 6.0625 1.8047 7.5625 3.25 1.5 1.4492 2.25 3.5117 2.25 6.1875 0 3.5234-1.0469 6.1406-3.1406 7.8594-2.0859 1.7188-5.2734 2.5781-9.5625 2.5781-2.0234 0-4.0547-0.19531-6.0938-0.57812-2.0312-0.38281-4.0625-0.95703-6.0938-1.7188v-6.9375c2.0312 1.0859 3.9922 1.9023 5.8906 2.4531 1.9062 0.54297 3.7422 0.8125 5.5156 0.8125 1.7891 0 3.1602-0.29688 4.1094-0.89062 0.95703-0.60156 1.4375-1.457 1.4375-2.5625 0-1-0.32422-1.7695-0.96875-2.3125-0.64844-0.53906-1.9375-1.0234-3.875-1.4531l-3.1875-0.70312c-3.1875-0.6875-5.5234-1.7734-7-3.2656-1.4688-1.5-2.2031-3.5156-2.2031-6.0469 0-3.1758 1.0234-5.6172 3.0781-7.3281 2.0508-1.707 5-2.5625 8.8438-2.5625 1.75 0 3.5508 0.13281 5.4062 0.39062 1.8516 0.26172 3.7695 0.65625 5.75 1.1875z"/>
  </symbol>
  <symbol id="m" overflow="visible">
   <path d="m0.21875-31.891h29.391v6.2188h-10.578v25.672h-8.2188v-25.672h-10.594z"/>
  </symbol>
  <symbol id="l" overflow="visible">
   <path d="m4.0156-31.891h8.2188v19.109c0 2.6367 0.42969 4.5234 1.2969 5.6562 0.86328 1.1367 2.2695 1.7031 4.2188 1.7031 1.9688 0 3.3789-0.56641 4.2344-1.7031 0.86328-1.1328 1.2969-3.0195 1.2969-5.6562v-19.109h8.2344v19.109c0 4.5234-1.1367 7.8867-3.4062 10.094-2.2617 2.2109-5.7148 3.3125-10.359 3.3125-4.625 0-8.0742-1.1016-10.344-3.3125-2.2617-2.207-3.3906-5.5703-3.3906-10.094z"/>
  </symbol>
 </defs>
 <g>
  <path d="m373.51 251.37 2.1094-2.1172c3.3203-3.3477 5.4961-7.6641 6.2031-12.324 0.71094-4.6641-0.082031-9.4297-2.2578-13.613-1.6914-3.3516-1.9648-7.2422-0.76172-10.797l1.75-5.1797c1.7305-5.2422 1.8203-10.887 0.25391-16.18-1.5625-5.2969-4.7031-9.9844-9.0039-13.449l-24.457-19.566v0.003907c-4.4258-3.5508-7.4648-8.543-8.582-14.105l-1.0938-5.4688c-4.7148-23.449-16.574-44.863-33.953-61.297-17.375-16.438-39.418-27.086-63.094-30.48-14.77-2.1289-29.812-1.3555-44.285 2.2734l-14.742 3.6914c-0.46875 0.18359-0.92578 0.40625-1.3555 0.66406-0.41797 0.11719-0.82422 0.26562-1.2188 0.4375l-10.148 6.5117c-23.719 14.93-41.031 38.156-48.559 65.152s-4.7305 55.828 7.8438 80.875c-6.0898 10.371-7.3398 22.891-3.4102 34.258l-0.77734-0.51562h-0.003906c-15.688 23.27-22.012 51.602-17.703 79.332 4.3047 27.73 18.922 52.816 40.926 70.23l10.266 8.2148c-0.58203 2.8398-0.91016 5.7227-0.98047 8.6211-44.953 24.328-75.711 68.527-82.906 119.13l-3.5 24.332v0.003906c-0.35937 2.5156 0.39063 5.0625 2.0547 6.9805 1.668 1.918 4.0859 3.0156 6.625 3.0117h271.25c3.0391 0.015625 5.8711-1.5469 7.4766-4.1289 1.6055-2.582 1.7578-5.8125 0.39844-8.5312l-17.5-34.902v-0.003906c-6.5898-13.094-17.215-23.719-30.309-30.309-9.3047-4.6367-16.578-12.531-20.441-22.18-6.9883-17.453-20.875-31.246-38.379-38.117 0.61328-1.6641 1.1289-3.3594 1.5508-5.082l9.5273-47.496c0.003906-0.074219 0.003906-0.15234 0-0.22656 0-0.085938 0.070312-0.15625 0.085937-0.24609l7-49.289h0.003906c7.4727 2.7852 15.383 4.2305 23.359 4.2617h60.57c4.9141-0.003906 9.7578-1.1484 14.156-3.3438 5.2695-2.6133 9.7031-6.6523 12.797-11.656 3.0898-5.0039 4.7227-10.773 4.7031-16.656v-21.324c0.015625-3.9688-1.043-7.8711-3.0664-11.285-2.0234-3.418-4.9336-6.2188-8.4219-8.1133zm-127.23 106.5-60.84-6.7656 1.8828-9.3984 60.312 6.7031zm-78.934-8.4336c-11.242-9.6641-18.688-23.008-21-37.652-2.3125-14.645 0.65625-29.633 8.375-42.289 1.6445 0.45312 3.3125 0.8125 4.9961 1.0781l14.988 44.977-6.8516 34.293zm-1.1016-148.19c6.9609 0 13.641 2.7656 18.562 7.6875s7.6875 11.602 7.6875 18.562-2.7656 13.641-7.6875 18.562-11.602 7.6875-18.562 7.6875-13.641-2.7656-18.562-7.6875-7.6875-11.602-7.6875-18.562 2.7656-13.641 7.6875-18.562 11.602-7.6875 18.562-7.6875zm8.4453 199.2 7.1406-32.129 8.3906 0.9375-11.023 55.125c-0.11328-0.16797-0.26172-0.29688-0.36719-0.47266l-0.003907-0.003906c-4.4531-6.9531-5.9414-15.398-4.1367-23.457zm32.988-29.262 8.2266 0.91797-13.203 66.035-0.003906 0.003906c-1.4688-0.082031-2.9297-0.25391-4.375-0.52734-1.2617-0.32812-2.5-0.73438-3.7109-1.2148zm25.68 2.8594 9.9414 1.1016-7.6406 38.16c-1.6133 8.2305-6.5039 15.449-13.547 20.004-0.21875 0.14062-0.45313 0.21094-0.67188 0.35156zm-42.613-49.566 0.64844-3.2461 13.203-5.6523 46.75 6.6758-1.2617 8.8125zm44.793-22.164 5.5742-2.3906c1.1211 1.3125 2.3789 2.4766 3.5859 3.6914zm-46.523 0.875-11.211-33.688c12.156-3.3516 22.273-11.793 27.746-23.152l17.035 4.2617c-0.74219 7.3477 0.38672 14.766 3.2812 21.559l4.4609 10.402c0.35938 0.875 0.875 1.5938 1.25 2.4062zm20.766-73.84c0-0.64062 0.19141-1.2344 0.19141-1.8711l-0.003906-0.003906c-0.03125-9.543-3.2188-18.809-9.0625-26.355l22.566-13.535 5.3984 13.879c4.0547 10.508 3.5859 22.223-1.2969 32.375zm-31.5-154.27 1.1289-0.72656 37.273 96.906-29.801 17.887-0.003907-0.003906c-7.1367-3.9883-15.27-5.8398-23.43-5.3359-8.1602 0.5-16 3.3398-22.594 8.1719-8.5156-20.773-9.4258-43.879-2.5781-65.258 6.8438-21.379 21.012-39.656 40.008-51.617zm-44.09 182-0.003906-0.003906c1.5273 1.6211 3.1719 3.125 4.9258 4.5-9.4844 16.16-12.996 35.137-9.918 53.621 3.0781 18.488 12.551 35.305 26.762 47.52l7.7266 6.6133-2.1094 9.4766-3.457-2.7656c-17.43-13.789-29.398-33.316-33.777-55.105-4.3828-21.785-0.89062-44.422 9.8555-63.875zm-1.7031 285.42c2.5664-10.078 9.5-18.48 18.902-22.918 9.4062-4.4336 20.305-4.4336 29.711 0 9.4023 4.4375 16.336 12.84 18.902 22.918zm140.88-76.055c5.457 13.633 15.734 24.781 28.875 31.332 9.7188 4.8828 17.605 12.77 22.488 22.488l11.113 22.234h-117.88c-2.7617-16.438-13.176-30.582-28.055-38.102-14.875-7.5195-32.438-7.5195-47.312 0-14.879 7.5195-25.293 21.664-28.055 38.102h-25.699l2.0469-14.352c6.0508-43.102 31.441-81.09 68.949-103.17 5.8867 15.086 18.91 26.242 34.719 29.75 3.5078 0.78125 7.0859 1.1758 10.676 1.1797 14.801 0.0625 28.781-6.7852 37.801-18.516 13.848 4.8398 24.922 15.434 30.371 29.051zm94.133-174.35c-0.003906 7.8164-6.3398 14.152-14.156 14.156h-60.57c-9.875 0.011719-19.535-2.8828-27.781-8.3164-8.2461-5.4375-14.711-13.176-18.594-22.258l-4.4531-10.395c-3.0664-7.1367-2.8203-15.266 0.66406-22.207l0.39453-0.80469c7.3359-14.699 8.1289-31.812 2.1875-47.129l-49.691-127.77 5.1094-1.2773c26.016-6.4492 53.535-1.9805 76.172 12.363s38.426 37.32 43.703 63.594l1.0938 5.4609c1.9219 9.6016 7.168 18.219 14.816 24.336l24.457 19.574v-0.003906c3.0977 2.4961 4.3242 6.6523 3.0781 10.434l-1.75 5.1719v-0.003906c-2.6992 8.1133-2.0078 16.969 1.918 24.562 0.88672 1.7812 0.53516 3.9336-0.875 5.3359l-5.6875 5.6875c-3.1445 3.1484-4.5898 7.6094-3.8789 12s3.4883 8.1719 7.4648 10.164l3.7969 1.8984c1.5703 0.78125 2.5625 2.3867 2.5547 4.1406z"/>
  <path d="m306.25 166.25c4.832 0 8.75-3.918 8.75-8.75s-3.918-8.75-8.75-8.75c-6.3867-0.59766-12.746 1.375-17.672 5.4805s-8.0156 10.008-8.5781 16.395c0.5625 6.3867 3.6523 12.289 8.5781 16.395s11.285 6.0781 17.672 5.4805c4.832 0 8.75-3.918 8.75-8.75s-3.918-8.75-8.75-8.75c-5.4258 0-8.75-2.8359-8.75-4.375s3.3242-4.375 8.75-4.375z"/>
  <path d="m587.12 397.98-1.2148 1.207c-5.1953 5.1875-11.039 9.6836-17.387 13.371l60.629-128.84-15.836-7.4531-68.531 145.67c-3.2461 0.77734-6.5312 1.3633-9.8438 1.75l-16.258 1.8008 1.8281-2.4336v0.003906c4.3477-5.7969 5.6484-13.332 3.4883-20.25-2.1562-6.918-7.5078-12.375-14.383-14.672-5.5469-1.8281-11.594-1.4062-16.836 1.1719l-47.602-87.266-15.363 8.3828 49.367 90.5-10.781 10.781 0.003906 0.003906c-1.543-0.23828-3.0977-0.39453-4.6562-0.46484-11.207 0.027344-21.977 4.3633-30.078 12.105-8.1016 7.7422-12.918 18.305-13.453 29.5l-34.695 95.375c-0.98438 2.6875-0.59766 5.6875 1.043 8.0312 1.6406 2.3477 4.3203 3.7422 7.1836 3.7383h61.25c3.9062-0.003906 7.3398-2.5938 8.4102-6.3516l16.625-58.109c7.0156-2.875 13.168-7.5195 17.848-13.484l23.109 2.2383c3.6211 0.35156 7.2344 0.52344 10.832 0.52344v0.003906c23.773 0.28906 46.891-7.7891 65.312-22.82 12.23-10.359 21.891-23.41 28.227-38.133 2.8906-6.75 2.4648-14.461-1.1562-20.852-3.6211-6.3867-10.02-10.719-17.293-11.703-7.2773-0.98828-14.598 1.4805-19.789 6.6719zm-88.207 8.0156c1.3438-1.3516 3.3438-1.8203 5.1523-1.207 1.543 0.50781 2.7422 1.7227 3.2305 3.2734 0.48438 1.5469 0.19531 3.2344-0.78125 4.5312l-10.168 13.527c-2.7539-3.1406-5.9492-5.8711-9.4844-8.1016zm-50.516 136.5h-42.156l22.41-61.637h-0.003906c7.6562 10.371 19.512 16.82 32.375 17.605zm15.348-61.25c-6.9609 0-13.641-2.7656-18.562-7.6875s-7.6875-11.602-7.6875-18.562 2.7656-13.641 7.6875-18.562 11.602-7.6875 18.562-7.6875 13.641 2.7656 18.562 7.6875 7.6875 11.602 7.6875 18.562-2.7656 13.641-7.6875 18.562-11.602 7.6875-18.562 7.6875zm145.52-64.27c-6.9648 16.664-19.223 30.578-34.875 39.59-15.652 9.0117-33.836 12.625-51.75 10.285l-16.504-1.6016h0.003906c1.8164-6.8008 1.7969-13.965-0.0625-20.754l30.781-3.4219c23.227-2.6055 44.875-13.016 61.418-29.523l1.2148-1.207c2.0352-2.043 5.2344-2.3516 7.6211-0.73438 2.3906 1.6172 3.2891 4.7031 2.1445 7.3516z"/>
  <path d="m423.73 147.17 87.5 61.25c0.10547 0.078125 0.22656 0.097656 0.33203 0.16797 0.10547 0.070312 0.23438 0.20312 0.36719 0.28125l0.003906-0.003907c0.37109 0.18359 0.75781 0.33984 1.1523 0.47266 0.24609 0.097656 0.48047 0.21875 0.73438 0.29687h0.003906c2.0312 0.63281 4.2305 0.44141 6.125-0.53516 0.10547-0.050781 0.23438 0 0.33984-0.085937 0.10547-0.085938 0.14062-0.11328 0.21875-0.15625s0.16797-0.050781 0.24609-0.10547l87.5-52.5c2.6328-1.582 4.2422-4.4297 4.2422-7.5v-96.25c-0.035156-4.0117-2.832-7.4688-6.7461-8.3477l-85.559-43.215c-2.4766-1.25-5.3984-1.25-7.875 0l-85.574 43.215c-3.9141 0.87891-6.7109 4.3359-6.7461 8.3477v87.5c0 2.8555 1.3945 5.5312 3.7344 7.168zm13.766-80.895 35 17.727v21c0 2.3203 0.92188 4.5469 2.5625 6.1875l32.438 32.434v40.828l-70-49zm80.859 63.453-28.359-28.348v-8.582l22.305 11.27v-0.003906c2.4766 1.25 5.3984 1.25 7.875 0l31.07-15.688v28.203zm6.6406 56.07v-39.875l38.254-15.297v0.003906c3.3242-1.332 5.5-4.5508 5.4961-8.1289v-42.961l26.25-13.266v77.523zm-8.75-167.25 67.207 33.949-67.207 33.949-67.207-33.949z"/>
  <path d="m447.18 222.66 15.652-7.8281 78.75 157.5-15.652 7.8281z"/>
  <path d="m526.55 301.27 78.746-113.75 14.387 9.9609-78.746 113.75z"/>
  <use x="70" y="691.25" xlink:href="#d"/>
  <use x="102.109375" y="691.25" xlink:href="#k"/>
  <use x="123.683594" y="691.25" xlink:href="#a"/>
  <use x="153.355469" y="691.25" xlink:href="#j"/>
  <use x="182.878906" y="691.25" xlink:href="#i"/>
  <use x="203.792969" y="691.25" xlink:href="#a"/>
  <use x="233.464844" y="691.25" xlink:href="#h"/>
  <use x="280.011719" y="691.25" xlink:href="#g"/>
  <use x="311.328125" y="691.25" xlink:href="#f"/>
  <use x="355.078125" y="691.25" xlink:href="#e"/>
  <use x="388.9375" y="691.25" xlink:href="#p"/>
  <use x="405.21875" y="691.25" xlink:href="#c"/>
  <use x="441.832031" y="691.25" xlink:href="#o"/>
  <use x="473.554688" y="691.25" xlink:href="#b"/>
  <use x="503.441406" y="691.25" xlink:href="#c"/>
  <use x="540.054688" y="691.25" xlink:href="#d"/>
  <use x="572.164062" y="691.25" xlink:href="#b"/>
  <use x="617.28125" y="691.25" xlink:href="#n"/>
  <use x="648.789062" y="691.25" xlink:href="#m"/>
  <use x="678.632812" y="691.25" xlink:href="#l"/>
 </g>
</svg>
