<?xml version="1.0" encoding="UTF-8"?>
<svg width="700pt" height="700pt" version="1.1" viewBox="0 0 700 700" xmlns="http://www.w3.org/2000/svg" xmlns:xlink="http://www.w3.org/1999/xlink">
 <defs>
  <symbol id="d" overflow="visible">
   <path d="m29.312-1.75c-1.5117 0.78125-3.0898 1.3711-4.7344 1.7656-1.6367 0.40625-3.3398 0.60938-5.1094 0.60938-5.3125 0-9.5273-1.4844-12.641-4.4531-3.1055-2.9688-4.6562-7-4.6562-12.094s1.5508-9.125 4.6562-12.094c3.1133-2.9688 7.3281-4.4531 12.641-4.4531 1.7695 0 3.4727 0.19922 5.1094 0.59375 1.6445 0.39844 3.2227 0.99219 4.7344 1.7812v6.5938c-1.5312-1.0391-3.0391-1.8008-4.5156-2.2812-1.4805-0.48828-3.0391-0.73438-4.6719-0.73438-2.9375 0-5.2461 0.94531-6.9219 2.8281-1.6797 1.875-2.5156 4.4648-2.5156 7.7656 0 3.293 0.83594 5.8828 2.5156 7.7656 1.6758 1.875 3.9844 2.8125 6.9219 2.8125 1.6328 0 3.1914-0.23828 4.6719-0.71875 1.4766-0.48828 2.9844-1.2539 4.5156-2.2969z"/>
  </symbol>
  <symbol id="k" overflow="visible">
   <path d="m21.453-17.406c-0.67969-0.3125-1.3516-0.53906-2.0156-0.6875-0.65625-0.15625-1.3203-0.23438-1.9844-0.23438-1.9688 0-3.4844 0.63281-4.5469 1.8906-1.0547 1.2617-1.5781 3.0703-1.5781 5.4219v11.016h-7.6562v-23.922h7.6562v3.9219c0.97656-1.5625 2.1016-2.7031 3.375-3.4219 1.2812-0.71875 2.8125-1.0781 4.5938-1.0781 0.25 0 0.52344 0.011719 0.82812 0.03125 0.30078 0.023438 0.73438 0.070312 1.2969 0.14062z"/>
  </symbol>
  <symbol id="a" overflow="visible">
   <path d="m27.562-12.031v2.1875h-17.891c0.1875 1.793 0.83203 3.1367 1.9375 4.0312 1.1133 0.89844 2.6719 1.3438 4.6719 1.3438 1.6016 0 3.25-0.23438 4.9375-0.70312 1.6875-0.47656 3.4219-1.2031 5.2031-2.1719v5.8906c-1.8047 0.6875-3.6094 1.2031-5.4219 1.5469-1.8125 0.35156-3.6211 0.53125-5.4219 0.53125-4.3359 0-7.7031-1.0977-10.109-3.2969-2.3984-2.207-3.5938-5.2969-3.5938-9.2656 0-3.9062 1.1758-6.9727 3.5312-9.2031 2.3633-2.2383 5.6094-3.3594 9.7344-3.3594 3.7578 0 6.7695 1.1367 9.0312 3.4062 2.2578 2.2617 3.3906 5.2812 3.3906 9.0625zm-7.8594-2.5312c0-1.457-0.42969-2.6289-1.2812-3.5156-0.84375-0.89453-1.9492-1.3438-3.3125-1.3438-1.4922 0-2.6992 0.41797-3.625 1.25-0.91797 0.83594-1.4922 2.0391-1.7188 3.6094z"/>
  </symbol>
  <symbol id="j" overflow="visible">
   <path d="m14.391-10.766c-1.5938 0-2.793 0.27344-3.5938 0.8125-0.80469 0.54297-1.2031 1.3398-1.2031 2.3906 0 0.96875 0.32031 1.7305 0.96875 2.2812 0.64453 0.54297 1.5469 0.8125 2.7031 0.8125 1.4375 0 2.6445-0.51562 3.625-1.5469 0.98828-1.0312 1.4844-2.3203 1.4844-3.875v-0.875zm11.688-2.8906v13.656h-7.7031v-3.5469c-1.0312 1.4492-2.1875 2.5078-3.4688 3.1719s-2.8398 1-4.6719 1c-2.4805 0-4.4961-0.72266-6.0469-2.1719-1.543-1.4453-2.3125-3.3203-2.3125-5.625 0-2.8125 0.96094-4.8672 2.8906-6.1719 1.9375-1.3125 4.9688-1.9688 9.0938-1.9688h4.5156v-0.60938c0-1.207-0.48047-2.0938-1.4375-2.6562-0.94922-0.5625-2.4375-0.84375-4.4688-0.84375-1.6367 0-3.1562 0.16797-4.5625 0.5-1.4062 0.32422-2.7188 0.8125-3.9375 1.4688v-5.8281c1.6445-0.40625 3.2891-0.70703 4.9375-0.90625 1.6562-0.20703 3.3047-0.3125 4.9531-0.3125 4.3203 0 7.4375 0.85547 9.3438 2.5625 1.9141 1.6992 2.875 4.4609 2.875 8.2812z"/>
  </symbol>
  <symbol id="i" overflow="visible">
   <path d="m12.031-30.719v6.7969h7.875v5.4688h-7.875v10.141c0 1.1172 0.21875 1.8711 0.65625 2.2656 0.4375 0.38672 1.3125 0.57812 2.625 0.57812h3.9375v5.4688h-6.5625c-3.0234 0-5.1641-0.62891-6.4219-1.8906-1.2617-1.2578-1.8906-3.3984-1.8906-6.4219v-10.141h-3.7969v-5.4688h3.7969v-6.7969z"/>
  </symbol>
  <symbol id="h" overflow="visible">
   <path d="m19.953-20.422v-12.812h7.6875v33.234h-7.6875v-3.4531c-1.0547 1.4062-2.2148 2.4375-3.4844 3.0938-1.2734 0.65625-2.7422 0.98438-4.4062 0.98438-2.9492 0-5.3711-1.1719-7.2656-3.5156-1.8867-2.3438-2.8281-5.3594-2.8281-9.0469s0.94141-6.7031 2.8281-9.0469c1.8945-2.3438 4.3164-3.5156 7.2656-3.5156 1.6562 0 3.1172 0.33594 4.3906 1 1.2812 0.65625 2.4453 1.6836 3.5 3.0781zm-5.0469 15.484c1.6445 0 2.8945-0.59766 3.75-1.7969 0.86328-1.1953 1.2969-2.9297 1.2969-5.2031 0-2.2812-0.43359-4.0195-1.2969-5.2188-0.85547-1.1953-2.1055-1.7969-3.75-1.7969-1.625 0-2.8711 0.60156-3.7344 1.7969-0.85547 1.1992-1.2812 2.9375-1.2812 5.2188 0 2.2734 0.42578 4.0078 1.2812 5.2031 0.86328 1.1992 2.1094 1.7969 3.7344 1.7969z"/>
  </symbol>
  <symbol id="g" overflow="visible">
   <path d="m16.406-4.9375c1.6328 0 2.8828-0.59766 3.75-1.7969 0.86328-1.1953 1.2969-2.9297 1.2969-5.2031 0-2.2812-0.43359-4.0195-1.2969-5.2188-0.86719-1.1953-2.1172-1.7969-3.75-1.7969-1.6367 0-2.8906 0.60547-3.7656 1.8125-0.875 1.1992-1.3125 2.9336-1.3125 5.2031 0 2.2617 0.4375 3.9961 1.3125 5.2031 0.875 1.1992 2.1289 1.7969 3.7656 1.7969zm-5.0781-15.484c1.0508-1.3945 2.2188-2.4219 3.5-3.0781 1.2812-0.66406 2.7539-1 4.4219-1 2.9453 0 5.3672 1.1719 7.2656 3.5156 1.8945 2.3438 2.8438 5.3594 2.8438 9.0469s-0.94922 6.7031-2.8438 9.0469c-1.8984 2.3438-4.3203 3.5156-7.2656 3.5156-1.668 0-3.1406-0.33594-4.4219-1s-2.4492-1.6914-3.5-3.0781v3.4531h-7.6562v-33.234h7.6562z"/>
  </symbol>
  <symbol id="f" overflow="visible">
   <path d="m0.53125-23.922h7.6562l6.4219 16.234 5.4688-16.234h7.6562l-10.062 26.188c-1.0117 2.6641-2.1953 4.5234-3.5469 5.5781-1.3438 1.0625-3.1211 1.5938-5.3281 1.5938h-4.4219v-5.0156h2.3906c1.3008 0 2.2422-0.21094 2.8281-0.625 0.59375-0.40625 1.0547-1.1484 1.3906-2.2188l0.20312-0.65625z"/>
  </symbol>
  <symbol id="e" overflow="visible">
   <path d="m0.21875-31.891h8.2656l8.4531 23.531 8.4375-23.531h8.2656l-11.812 31.891h-9.7969z"/>
  </symbol>
  <symbol id="p" overflow="visible">
   <path d="m4.0156-31.891h8.2188v31.891h-8.2188z"/>
  </symbol>
  <symbol id="c" overflow="visible">
   <path d="m4.0156-31.891h9.1875l11.594 21.875v-21.875h7.7969v31.891h-9.1875l-11.594-21.875v21.875h-7.7969z"/>
  </symbol>
  <symbol id="o" overflow="visible">
   <path d="m2.4531-31.891h26.812v4.9688l-17.109 20.703h17.594v6.2188h-27.781v-4.9844l17.109-20.688h-16.625z"/>
  </symbol>
  <symbol id="b" overflow="visible">
   <path d="m4.0156-31.891h22.203v6.2188h-13.984v5.9375h13.141v6.2188h-13.141v7.2969h14.453v6.2188h-22.672z"/>
  </symbol>
  <symbol id="n" overflow="visible">
   <path d="m26.219-30.891v6.75c-1.7617-0.78125-3.4766-1.3672-5.1406-1.7656-1.668-0.40625-3.2422-0.60938-4.7188-0.60938-1.9609 0-3.4141 0.27344-4.3594 0.8125-0.9375 0.54297-1.4062 1.3867-1.4062 2.5312 0 0.85547 0.31641 1.5234 0.95312 2 0.63281 0.46875 1.7852 0.875 3.4531 1.2188l3.5 0.70312c3.5391 0.71875 6.0625 1.8047 7.5625 3.25 1.5 1.4492 2.25 3.5117 2.25 6.1875 0 3.5234-1.0469 6.1406-3.1406 7.8594-2.0859 1.7188-5.2734 2.5781-9.5625 2.5781-2.0234 0-4.0547-0.19531-6.0938-0.57812-2.0312-0.38281-4.0625-0.95703-6.0938-1.7188v-6.9375c2.0312 1.0859 3.9922 1.9023 5.8906 2.4531 1.9062 0.54297 3.7422 0.8125 5.5156 0.8125 1.7891 0 3.1602-0.29688 4.1094-0.89062 0.95703-0.60156 1.4375-1.457 1.4375-2.5625 0-1-0.32422-1.7695-0.96875-2.3125-0.64844-0.53906-1.9375-1.0234-3.875-1.4531l-3.1875-0.70312c-3.1875-0.6875-5.5234-1.7734-7-3.2656-1.4688-1.5-2.2031-3.5156-2.2031-6.0469 0-3.1758 1.0234-5.6172 3.0781-7.3281 2.0508-1.707 5-2.5625 8.8438-2.5625 1.75 0 3.5508 0.13281 5.4062 0.39062 1.8516 0.26172 3.7695 0.65625 5.75 1.1875z"/>
  </symbol>
  <symbol id="m" overflow="visible">
   <path d="m0.21875-31.891h29.391v6.2188h-10.578v25.672h-8.2188v-25.672h-10.594z"/>
  </symbol>
  <symbol id="l" overflow="visible">
   <path d="m4.0156-31.891h8.2188v19.109c0 2.6367 0.42969 4.5234 1.2969 5.6562 0.86328 1.1367 2.2695 1.7031 4.2188 1.7031 1.9688 0 3.3789-0.56641 4.2344-1.7031 0.86328-1.1328 1.2969-3.0195 1.2969-5.6562v-19.109h8.2344v19.109c0 4.5234-1.1367 7.8867-3.4062 10.094-2.2617 2.2109-5.7148 3.3125-10.359 3.3125-4.625 0-8.0742-1.1016-10.344-3.3125-2.2617-2.207-3.3906-5.5703-3.3906-10.094z"/>
  </symbol>
 </defs>
 <g>
  <path d="m249.23 272.12c4.8008 0.007812 9.5938-0.28516 14.359-0.875 4.4023-0.55078 7.6992-4.3125 7.6641-8.75v-43.75c0-2.3203-0.92188-4.5469-2.5625-6.1875s-3.8672-2.5625-6.1875-2.5625c-30.773 0.015625-60.012-13.43-80.027-36.801l-18.332-21.387c-2.3828-2.7773-6.2422-3.7773-9.6719-2.5117-3.4336 1.2695-5.7148 4.5391-5.7188 8.1992v52.5c-0.007812 1.5352 0.39062 3.043 1.1562 4.375 9.9766 17.543 24.422 32.129 41.871 42.27 17.445 10.145 37.27 15.488 57.449 15.48zm-82.977-91 2.9414 3.4297c21.348 24.949 51.805 40.305 84.559 42.641v27.281c-17.457 0.82422-34.809-3.0977-50.219-11.344-15.406-8.25-28.289-20.52-37.281-35.504z"/>
  <path d="m428.75 306.25c0.58594 0 1.1758-0.058594 1.75-0.17578l32.559-6.5117v0.003906c37.496-7.5195 71.148-28 95.059-57.848 1.2305-1.5586 1.8945-3.4844 1.8828-5.4688v-87.5c0-3.5391-2.1328-6.7266-5.4023-8.082-3.2695-1.3555-7.0312-0.60547-9.5352 1.8945-27.383 27.418-62.031 46.438-99.863 54.82l-18.375 4.0703c-3.9961 0.89844-6.832 4.4492-6.8242 8.5469v87.5c0 2.3203 0.92188 4.5469 2.5625 6.1875s3.8672 2.5625 6.1875 2.5625zm8.75-89.25 11.496-2.5547c34.379-7.6211 66.438-23.348 93.504-45.867v64.559c-21.219 25.383-50.469 42.762-82.906 49.27l-22.094 4.418z"/>
  <path d="m162.91 95.586c1.0586 0.44141 2.1953 0.66797 3.3438 0.66406 2.3242 0 4.5508-0.92188 6.1953-2.5625l4.0508-4.0703c18.129-18.223 42.797-28.438 68.504-28.367 2.3203 0 4.5469-0.92188 6.1875-2.5625s2.5625-3.8672 2.5625-6.1875v-43.75c0-2.3203-0.92188-4.5469-2.5625-6.1875s-3.8672-2.5625-6.1875-2.5625c-30.281 0.066406-59.734 9.8828-84 28-2.2031 1.6523-3.5 4.2461-3.5 7v52.5c0 3.5391 2.1367 6.7305 5.4062 8.0859zm12.094-56.113c18.121-12.555 39.266-20.031 61.25-21.656v26.25c-22.293 1.6445-43.605 9.8438-61.25 23.57z"/>
  <path d="m498.75 70c19.586-0.023438 38.164 8.6797 50.68 23.746l21.352 25.609v0.003906c2.3594 2.8281 6.2383 3.8789 9.6992 2.6211 3.4648-1.2539 5.7734-4.5469 5.7695-8.2305v-61.25c0-1.9844-0.67578-3.9102-1.918-5.4609l-7.1328-8.9258h0.003906c-9.3789-11.785-21.836-20.746-35.988-25.898-14.152-5.1484-29.453-6.2891-44.215-3.2891-4.0742 0.83203-7 4.4141-7 8.5742v43.75c0 2.3203 0.92188 4.5469 2.5625 6.1875s3.8672 2.5625 6.1875 2.5625zm8.75-44.941c21.504-1.8672 42.52 7.1367 56 23.992l5.25 6.5195v34.012l-5.8711-7c-13.887-16.727-33.762-27.359-55.379-29.629z"/>
  <path d="m630 411.25h-128.73c-16.539-23.012-45.988-41.797-84-52.332l-14.875-89.102h-0.085937c-0.003906-0.23438-0.023438-0.46875-0.054688-0.70312l-8.0859-32.375 25.297-67.445v0.003906c1.207-3.2188 0.42188-6.8438-2.0117-9.2695l-23.703-23.648v-28.309c5.625-6.8086 8.7148-15.359 8.75-24.191v-13.238c0-12.539-5.5156-24.441-15.082-32.547-9.5664-8.1016-22.215-11.582-34.582-9.5156l-39.277 6.5469c-0.17578 0-0.32422 0.13281-0.5 0.16797v-0.003907c-0.60547 0.13672-1.1914 0.33594-1.75 0.59375-0.26172 0.11328-0.51562 0.24219-0.76172 0.38672-0.14844 0.085938-0.31641 0.14062-0.46484 0.23438-0.39453 0.29297-0.76562 0.61719-1.1094 0.97266-0.14062 0.11328-0.27734 0.23047-0.40234 0.35938-0.56641 0.61328-1.0352 1.3047-1.4023 2.0547-0.097657 0.19141-0.14844 0.40234-0.22656 0.60547-0.25391 0.60938-0.43359 1.2461-0.53516 1.8984 0 0.14062-0.097656 0.26953-0.11328 0.42188-0.015625 0.14844 0 0.23438 0 0.35938 0 0.12109-0.042969 0.37109-0.042969 0.57422v26.25c-0.003906 3.5781 2.1719 6.7969 5.4961 8.1289l13.188 5.25 12.145 30.371h-13.328c-1.3555 0-2.6953 0.3125-3.9102 0.91797l-49.605 24.809-28.578-7.1406-15.629-23.441h0.003906c-2.0547-3.0781-5.8203-4.5312-9.4062-3.6328l-35 8.75c-3.8945 0.97656-6.625 4.4766-6.625 8.4883v17.5c0 2.3203 0.92188 4.5469 2.5625 6.1875s3.8672 2.5625 6.1875 2.5625h8.75c0 2.9258 1.4609 5.6562 3.8945 7.2812l26.25 17.5c0.34766 0.19141 0.71094 0.36328 1.0859 0.50781 0.19141 0.097657 0.32422 0.26172 0.51562 0.33984l43.75 17.5c2.0898 0.83203 4.418 0.83203 6.5078 0l16.914-6.7734 11.242 3.7539-4.2422 8.4805c-1.1289 2.2695-1.2227 4.9141-0.25 7.2578 0.97266 2.3398 2.9102 4.1445 5.3164 4.9492l2.7656 0.92578v60.777c0 3.582 2.1797 6.8008 5.5039 8.1289l3.2461 1.2969v43.074c0 0.52344 0.046875 1.0508 0.14062 1.5664l4.8125 26.461c-54.555 6.2109-98.996 28.945-121.07 59.5h-128.89v17.5h119.11c-3.4648 8.3125-5.2812 17.219-5.3555 26.223 0.066406 5.918 0.90625 11.801 2.5039 17.5h-116.25v17.5h123.45c22.898 40.715 84.332 70 156.55 70s133.66-29.285 156.55-70h123.45v-17.5h-116.25c1.5977-5.6992 2.4375-11.582 2.5039-17.5-0.042969-9.0078-1.8242-17.918-5.25-26.25h119zm-297.5-124.79c5.7422 1.3711 11.602 2.2109 17.5 2.5039v35.453l7.3672 95.82-8.1992-5.4688-16.668-91.812zm10.781 145.41 9.0742 6.0469-19.766 14.875-0.003906 0.003906c-0.60938 0.47266-1.4375 0.55078-2.125 0.19922-0.53906-0.26562-0.93359-0.76172-1.0703-1.3477-0.13672-0.58594-0.003906-1.2031 0.36328-1.6797zm-11.324-14.07-16.215 21.625c-3.8008 5.0547-4.918 11.637-2.9961 17.664 1.9219 6.0234 6.6445 10.746 12.668 12.668 6.0273 1.9219 12.609 0.80469 17.664-2.9961l29.672-22.262c0.21875-0.19141 0.42969-0.39062 0.62891-0.60547 0.22266-0.19141 0.4375-0.39453 0.64062-0.60938 0.34766-0.40625 0.65625-0.83984 0.92578-1.2969 0.10547-0.18359 0.24609-0.35156 0.35156-0.54297 0.34375-0.67578 0.59766-1.3945 0.76172-2.1328v-0.26953-0.003907c0.10938-0.57422 0.16406-1.1602 0.16406-1.75-0.003906-0.078124-0.003906-0.15625 0-0.23437v-0.20313l-4.207-54.512 21.105 80.168-9.8164 16.895h-0.003907c-4.2852 4.8984-5.8086 11.633-4.043 17.898 1.7656 6.2695 6.582 11.219 12.793 13.156-13.734 3.5508-27.863 5.332-42.051 5.3047-56.875 0-105-27.816-105-60.762 0-28.375 35.305-53.297 82.934-59.324zm66.895 75.785c-0.43359 0.28906-0.96875 0.37891-1.4688 0.24609-0.625-0.16797-1.1133-0.65625-1.2812-1.2773-0.16797-0.625 0.011719-1.293 0.46484-1.75 0.53125-0.52344 0.99219-1.1094 1.375-1.75l9.5977-16.555h8.8828c-3.7109 8.5703-9.8125 15.891-17.57 21.086zm35.648-19.406 2.5547-7.6641c0.042968-0.14844 0.050781-0.30469 0.097656-0.45312 0.042968-0.14844 0.0625-0.32422 0.097656-0.5h-0.003906c0.25391-1.1172 0.28125-2.2695 0.078125-3.3945v-0.13281l-9.4492-47.371c17.332 11.156 27.125 25.375 27.125 40.336 0 18.297-14.875 35-37.801 46.234 7.8984-7.4609 13.84-16.754 17.301-27.055zm-16.426-19.18h-8.8281l-41.746-158.64v-8.0938c6.625-0.86719 13.141-2.4219 19.441-4.6406l15.734 94.379zm-37.852-230.93-37.02-18.508 3.7891-11.375 27.125 6.7891-0.003907 0.003907c2.3711 0.58984 4.8789 0.16406 6.9219-1.1719 2.043-1.3398 3.4336-3.4727 3.832-5.8828l5.957-35.727 10.238 10.246zm-53.262-25.141-8.375-2.793 4.2422-8.4805 0.003906 0.003906c1.1289-2.2695 1.2227-4.9141 0.25-7.2578-0.97266-2.3398-2.9102-4.1445-5.3164-4.9492l-11.375-3.8047 20.273-4.0586 5.3633 16.16zm27.633-88.516-7-17.395 8.3555 2.7734v0.003906c0.81641 0.26172 1.6641 0.39844 2.5195 0.41016 0.078125 0 0.16797 0.042969 0.24609 0.042969s0.31641-0.0625 0.48047-0.070312c0.53906-0.035157 1.0703-0.11328 1.5938-0.23438 0.26172-0.0625 0.51563-0.13281 0.76953-0.21875 0.58203-0.20312 1.1406-0.46484 1.6641-0.78906 0.12109-0.078125 0.26953-0.10547 0.40234-0.19141l0.085938-0.078125 0.11328-0.0625c0.30469-0.22656 0.55078-0.50781 0.82422-0.75391 0.26953-0.24609 0.44531-0.375 0.64062-0.59375h-0.003906c0.26953-0.32422 0.51172-0.67187 0.72656-1.0312 0.14844-0.23437 0.32422-0.4375 0.45312-0.68359h0.003906c0.19531-0.41797 0.36328-0.85156 0.49609-1.2969 0.070312-0.21875 0.18359-0.42188 0.23438-0.64844l0.003906 0.003906c0.1875-0.6875 0.28516-1.3906 0.29688-2.1016h17.195c-0.66797 3.8516-2.3945 7.4375-4.9883 10.359l-12.559 6.2656zm4.1562 17.5 17.5-8.75v14.535l-15.137 5.0391-2.3633-2.3594zm-3.0352-82.074c7.1797-1.1953 14.527 0.77734 20.145 5.4102s8.9492 11.473 9.1406 18.75h-17.5v-8.75c0.003906-3.5781-2.1719-6.7969-5.4961-8.1289l-14.715-5.8711zm-31.965 10.832 26.25 10.5v7.4023l-26.25-10.5zm-122.5 74.578h-8.75v-1.918l22.391-5.6016 11.734 17.555-3.7695 11.324-12.855-8.5391v-4.0703c0-2.3203-0.92188-4.5469-2.5625-6.1875s-3.8672-2.5625-6.1875-2.5625zm85.75 26.426c-4.0742 0.83203-7 4.4141-7 8.5742v4.5781l-8.75 3.5-32.84-13.125 1.1914-3.5781 2.3906-7.168 27.125 6.7891h-0.003907c2.0273 0.50781 4.168 0.27734 6.0391-0.65625l50.664-25.34h15.434v8.75c0 2.3203 0.92188 4.5469 2.5625 6.1875l8.75 8.75c0.74219 0.73438 1.6094 1.3281 2.5664 1.75 0.24219 0.10938 0.48828 0.20312 0.74219 0.28906 0.78516 0.27734 1.6094 0.4375 2.4414 0.48047 0.14844 0 0.28906 0.085938 0.4375 0.085938h0.17578c0.89062-0.003907 1.7773-0.14844 2.625-0.42969l12.469-4.1484-4.8047 28.824-21.148-5.293-7.2266-21.691c-1.375-4.2461-5.7188-6.7773-10.09-5.8789zm42.078 60.418 48.371 24.184 6.0039 23.984c-18.594 7.3047-39.273 7.2422-57.82-0.17578l-1.8828-0.75781v-49zm20.922 324.41c-82.023 0-148.75-39.254-148.75-87.5 0-41.754 52.77-78.355 121.84-85.961l1.75 9.4141c-56.805 7.4219-97.344 38.922-97.344 76.547 0 43.891 53.805 78.262 122.5 78.262s122.5-34.371 122.5-78.262c0-25.043-17.762-47.898-48.73-62.695l-0.26953 0.57031-2.9492-14.77c47.871 15.34 78.199 44.738 78.199 76.895 0 48.246-66.727 87.5-148.75 87.5z"/>
  <use x="70" y="691.25" xlink:href="#d"/>
  <use x="102.109375" y="691.25" xlink:href="#k"/>
  <use x="123.683594" y="691.25" xlink:href="#a"/>
  <use x="153.355469" y="691.25" xlink:href="#j"/>
  <use x="182.878906" y="691.25" xlink:href="#i"/>
  <use x="203.792969" y="691.25" xlink:href="#a"/>
  <use x="233.464844" y="691.25" xlink:href="#h"/>
  <use x="280.011719" y="691.25" xlink:href="#g"/>
  <use x="311.328125" y="691.25" xlink:href="#f"/>
  <use x="355.078125" y="691.25" xlink:href="#e"/>
  <use x="388.9375" y="691.25" xlink:href="#p"/>
  <use x="405.21875" y="691.25" xlink:href="#c"/>
  <use x="441.832031" y="691.25" xlink:href="#o"/>
  <use x="473.554688" y="691.25" xlink:href="#b"/>
  <use x="503.441406" y="691.25" xlink:href="#c"/>
  <use x="540.054688" y="691.25" xlink:href="#d"/>
  <use x="572.164062" y="691.25" xlink:href="#b"/>
  <use x="617.28125" y="691.25" xlink:href="#n"/>
  <use x="648.789062" y="691.25" xlink:href="#m"/>
  <use x="678.632812" y="691.25" xlink:href="#l"/>
 </g>
</svg>
